M48
; DRILL file {KiCad 9.0.7} date 2026-02-23T21:12:02+0530
; FORMAT={-:-/ absolute / metric / decimal}
; #@! TF.CreationDate,2026-02-23T21:12:02+05:30
; #@! TF.GenerationSoftware,Kicad,Pcbnew,9.0.7
; #@! TF.FileFunction,Plated,1,2,PTH
FMAT,2
METRIC
; #@! TA.AperFunction,Plated,PTH,ComponentDrill
T1C0.750
; #@! TA.AperFunction,Plated,PTH,ComponentDrill
T2C0.800
; #@! TA.AperFunction,Plated,PTH,ComponentDrill
T3C0.900
; #@! TA.AperFunction,Plated,PTH,ComponentDrill
T4C1.000
; #@! TA.AperFunction,Plated,PTH,ComponentDrill
T5C1.100
; #@! TA.AperFunction,Plated,PTH,ComponentDrill
T6C1.200
; #@! TA.AperFunction,Plated,PTH,ComponentDrill
T7C1.300
%
G90
G05
T1
X30.83Y-142.433
X32.1Y-142.433
X33.37Y-142.433
X51.23Y-142.632
X52.5Y-142.632
X53.77Y-142.632
X65.25Y-74.73
X65.25Y-76.0
X65.25Y-77.27
X65.3Y-108.43
X65.3Y-109.7
X65.3Y-110.97
X65.4Y-91.05
X65.4Y-92.32
X65.4Y-93.59
X70.71Y-142.572
X71.98Y-142.572
X73.25Y-142.572
X91.11Y-142.572
X92.38Y-142.572
X93.65Y-142.572
X109.66Y-142.972
X110.93Y-142.972
X112.2Y-142.972
T2
X23.36Y-128.222
X26.15Y-137.332
X26.15Y-152.572
X30.995Y-149.147
X30.995Y-151.688
X33.25Y-65.63
X33.25Y-80.87
X37.8Y-131.232
X37.8Y-146.472
X38.6Y-128.222
X38.615Y-149.147
X38.615Y-151.688
X43.81Y-128.273
X46.25Y-137.373
X46.25Y-152.612
X48.0Y-67.26
X48.0Y-82.5
X48.25Y-86.13
X48.25Y-101.37
X48.25Y-104.63
X48.25Y-119.87
X51.445Y-149.248
X51.445Y-151.787
X52.0Y-48.13
X52.0Y-63.37
X53.71Y-104.35
X53.73Y-70.35
X53.76Y-86.7
X58.25Y-131.332
X58.25Y-146.572
X59.05Y-128.273
X59.065Y-149.248
X59.065Y-151.787
X59.51Y-49.35
X59.96Y-82.1
X59.96Y-115.85
X60.01Y-98.55
X63.23Y-128.172
X65.9Y-137.422
X65.9Y-152.662
X68.95Y-104.35
X68.97Y-70.35
X69.0Y-86.7
X70.895Y-149.197
X70.895Y-151.737
X71.76Y-103.48
X71.76Y-111.1
X71.81Y-69.53
X71.81Y-77.15
X71.81Y-85.9
X71.81Y-93.52
X74.3Y-103.48
X74.3Y-111.1
X74.35Y-69.53
X74.35Y-77.15
X74.35Y-85.9
X74.35Y-93.52
X74.75Y-49.35
X75.2Y-82.1
X75.2Y-115.85
X75.25Y-98.55
X77.7Y-131.282
X77.7Y-146.522
X78.47Y-128.172
X78.515Y-149.197
X78.515Y-151.737
X83.7Y-127.822
X86.0Y-137.523
X86.0Y-152.762
X91.1Y-48.01
X91.1Y-63.25
X91.245Y-149.097
X91.245Y-151.637
X98.05Y-131.183
X98.05Y-146.422
X98.865Y-149.097
X98.865Y-151.637
X98.94Y-127.822
X100.11Y-49.3
X102.03Y-128.273
X104.9Y-137.433
X104.9Y-152.672
X109.8Y-149.433
X109.8Y-151.972
X111.75Y-86.63
X111.75Y-101.87
X115.35Y-49.3
X116.6Y-131.532
X116.6Y-146.772
X117.27Y-128.273
X117.42Y-149.433
X117.42Y-151.972
T3
X30.11Y-161.672
X32.65Y-161.672
X46.95Y-35.023
X50.11Y-161.672
X52.65Y-161.672
X54.45Y-36.322
X69.86Y-161.922
X72.4Y-161.922
X83.28Y-77.15
X83.33Y-110.9
X83.35Y-93.95
X85.82Y-77.15
X85.87Y-110.9
X85.89Y-93.95
X89.9Y-161.672
X92.44Y-161.672
X109.69Y-161.672
X112.2Y-116.5
X112.23Y-161.672
X113.5Y-109.0
T4
X19.75Y-103.17
X19.75Y-105.71
X19.75Y-108.25
X19.75Y-110.79
X19.75Y-113.33
X19.75Y-115.87
X19.75Y-118.41
X19.75Y-120.95
X24.0Y-87.5
X25.3Y-168.272
X30.5Y-53.5
X30.5Y-87.5
X35.0Y-103.17
X35.0Y-105.71
X35.0Y-108.25
X35.0Y-110.79
X35.0Y-113.33
X35.0Y-115.87
X35.0Y-118.41
X35.0Y-120.95
X37.3Y-168.272
X38.0Y-53.5
X45.55Y-168.272
X57.55Y-168.272
X65.4Y-168.373
X77.4Y-168.373
X85.1Y-168.373
X90.8Y-71.05
X90.8Y-83.05
X90.8Y-88.0
X90.8Y-100.0
X90.8Y-104.95
X90.8Y-116.95
X97.1Y-168.373
X104.9Y-168.572
X116.9Y-168.572
T5
X20.25Y-64.42
X20.25Y-74.58
X26.27Y-156.422
X26.75Y-64.17
X26.75Y-74.33
X36.43Y-156.422
X46.35Y-156.522
X56.51Y-156.522
X65.95Y-156.572
X76.11Y-156.572
X79.05Y-71.97
X79.05Y-82.13
X79.1Y-88.34
X79.1Y-98.5
X79.1Y-105.87
X79.1Y-116.03
X86.13Y-156.623
X96.29Y-156.623
X105.98Y-156.422
X116.14Y-156.422
T6
X58.1Y-59.0
X85.6Y-59.0
X96.35Y-58.25
X112.0Y-66.75
X112.0Y-81.75
X123.85Y-58.25
T7
X17.25Y-27.0
X17.25Y-32.08
X25.3Y-180.472
X26.5Y-191.672
X31.35Y-166.322
X31.5Y-191.672
X36.5Y-191.672
X37.35Y-180.522
X37.8Y-19.223
X45.55Y-180.472
X46.55Y-191.722
X51.55Y-191.722
X51.6Y-166.322
X56.55Y-191.722
X57.6Y-180.522
X60.3Y-19.223
X65.4Y-180.572
X66.4Y-191.672
X70.052Y-24.672
X70.052Y-32.472
X71.4Y-191.672
X71.45Y-166.422
X76.4Y-191.672
X77.45Y-180.623
X85.1Y-180.572
X86.05Y-191.672
X88.85Y-77.0
X88.85Y-93.95
X88.85Y-110.9
X91.05Y-191.672
X91.15Y-166.422
X96.05Y-191.672
X97.15Y-180.623
X103.0Y-83.05
X103.0Y-100.0
X103.0Y-116.95
X103.05Y-71.0
X103.05Y-87.95
X103.05Y-104.9
X104.9Y-180.772
X105.65Y-191.672
X110.65Y-191.672
X110.95Y-166.623
X112.552Y-17.273
X112.552Y-39.872
X115.65Y-191.672
X116.95Y-180.822
X122.0Y-95.25
X122.0Y-117.75
X123.75Y-79.75
X123.75Y-84.75
X123.75Y-89.75
M30
