%TF.GenerationSoftware,KiCad,Pcbnew,9.0.7*%
%TF.CreationDate,2026-02-23T21:11:31+05:30*%
%TF.ProjectId,Home_Automation,486f6d65-5f41-4757-946f-6d6174696f6e,rev?*%
%TF.SameCoordinates,Original*%
%TF.FileFunction,Legend,Top*%
%TF.FilePolarity,Positive*%
%FSLAX46Y46*%
G04 Gerber Fmt 4.6, Leading zero omitted, Abs format (unit mm)*
G04 Created by KiCad (PCBNEW 9.0.7) date 2026-02-23 21:11:31*
%MOMM*%
%LPD*%
G01*
G04 APERTURE LIST*
%ADD10C,0.300000*%
%ADD11C,0.200000*%
%ADD12C,0.150000*%
%ADD13C,0.120000*%
G04 APERTURE END LIST*
D10*
X25303572Y-119828328D02*
X24446429Y-119828328D01*
X24875000Y-119828328D02*
X24875000Y-118328328D01*
X24875000Y-118328328D02*
X24732143Y-118542614D01*
X24732143Y-118542614D02*
X24589286Y-118685471D01*
X24589286Y-118685471D02*
X24446429Y-118756900D01*
X26660714Y-118328328D02*
X25946428Y-118328328D01*
X25946428Y-118328328D02*
X25875000Y-119042614D01*
X25875000Y-119042614D02*
X25946428Y-118971185D01*
X25946428Y-118971185D02*
X26089286Y-118899757D01*
X26089286Y-118899757D02*
X26446428Y-118899757D01*
X26446428Y-118899757D02*
X26589286Y-118971185D01*
X26589286Y-118971185D02*
X26660714Y-119042614D01*
X26660714Y-119042614D02*
X26732143Y-119185471D01*
X26732143Y-119185471D02*
X26732143Y-119542614D01*
X26732143Y-119542614D02*
X26660714Y-119685471D01*
X26660714Y-119685471D02*
X26589286Y-119756900D01*
X26589286Y-119756900D02*
X26446428Y-119828328D01*
X26446428Y-119828328D02*
X26089286Y-119828328D01*
X26089286Y-119828328D02*
X25946428Y-119756900D01*
X25946428Y-119756900D02*
X25875000Y-119685471D01*
X27374999Y-119685471D02*
X27446428Y-119756900D01*
X27446428Y-119756900D02*
X27374999Y-119828328D01*
X27374999Y-119828328D02*
X27303571Y-119756900D01*
X27303571Y-119756900D02*
X27374999Y-119685471D01*
X27374999Y-119685471D02*
X27374999Y-119828328D01*
X28017857Y-118471185D02*
X28089285Y-118399757D01*
X28089285Y-118399757D02*
X28232143Y-118328328D01*
X28232143Y-118328328D02*
X28589285Y-118328328D01*
X28589285Y-118328328D02*
X28732143Y-118399757D01*
X28732143Y-118399757D02*
X28803571Y-118471185D01*
X28803571Y-118471185D02*
X28875000Y-118614042D01*
X28875000Y-118614042D02*
X28875000Y-118756900D01*
X28875000Y-118756900D02*
X28803571Y-118971185D01*
X28803571Y-118971185D02*
X27946428Y-119828328D01*
X27946428Y-119828328D02*
X28875000Y-119828328D01*
X30232142Y-118328328D02*
X29517856Y-118328328D01*
X29517856Y-118328328D02*
X29446428Y-119042614D01*
X29446428Y-119042614D02*
X29517856Y-118971185D01*
X29517856Y-118971185D02*
X29660714Y-118899757D01*
X29660714Y-118899757D02*
X30017856Y-118899757D01*
X30017856Y-118899757D02*
X30160714Y-118971185D01*
X30160714Y-118971185D02*
X30232142Y-119042614D01*
X30232142Y-119042614D02*
X30303571Y-119185471D01*
X30303571Y-119185471D02*
X30303571Y-119542614D01*
X30303571Y-119542614D02*
X30232142Y-119685471D01*
X30232142Y-119685471D02*
X30160714Y-119756900D01*
X30160714Y-119756900D02*
X30017856Y-119828328D01*
X30017856Y-119828328D02*
X29660714Y-119828328D01*
X29660714Y-119828328D02*
X29517856Y-119756900D01*
X29517856Y-119756900D02*
X29446428Y-119685471D01*
D11*
X19750000Y-117350000D02*
X19750000Y-121536420D01*
X35000000Y-121536420D02*
X35000000Y-118100000D01*
X19750000Y-120950000D02*
X35000000Y-120950000D01*
X19750000Y-120950000D02*
X20876504Y-120363579D01*
X19750000Y-120950000D02*
X20876504Y-121536421D01*
X35000000Y-120950000D02*
X33873496Y-121536421D01*
X35000000Y-120950000D02*
X33873496Y-120363579D01*
D12*
X54141905Y-162477319D02*
X54141905Y-161477319D01*
X54141905Y-161477319D02*
X54380000Y-161477319D01*
X54380000Y-161477319D02*
X54522857Y-161524938D01*
X54522857Y-161524938D02*
X54618095Y-161620176D01*
X54618095Y-161620176D02*
X54665714Y-161715414D01*
X54665714Y-161715414D02*
X54713333Y-161905890D01*
X54713333Y-161905890D02*
X54713333Y-162048747D01*
X54713333Y-162048747D02*
X54665714Y-162239223D01*
X54665714Y-162239223D02*
X54618095Y-162334461D01*
X54618095Y-162334461D02*
X54522857Y-162429700D01*
X54522857Y-162429700D02*
X54380000Y-162477319D01*
X54380000Y-162477319D02*
X54141905Y-162477319D01*
X55094286Y-161572557D02*
X55141905Y-161524938D01*
X55141905Y-161524938D02*
X55237143Y-161477319D01*
X55237143Y-161477319D02*
X55475238Y-161477319D01*
X55475238Y-161477319D02*
X55570476Y-161524938D01*
X55570476Y-161524938D02*
X55618095Y-161572557D01*
X55618095Y-161572557D02*
X55665714Y-161667795D01*
X55665714Y-161667795D02*
X55665714Y-161763033D01*
X55665714Y-161763033D02*
X55618095Y-161905890D01*
X55618095Y-161905890D02*
X55046667Y-162477319D01*
X55046667Y-162477319D02*
X55665714Y-162477319D01*
X112848095Y-146557319D02*
X112848095Y-147366842D01*
X112848095Y-147366842D02*
X112895714Y-147462080D01*
X112895714Y-147462080D02*
X112943333Y-147509700D01*
X112943333Y-147509700D02*
X113038571Y-147557319D01*
X113038571Y-147557319D02*
X113229047Y-147557319D01*
X113229047Y-147557319D02*
X113324285Y-147509700D01*
X113324285Y-147509700D02*
X113371904Y-147462080D01*
X113371904Y-147462080D02*
X113419523Y-147366842D01*
X113419523Y-147366842D02*
X113419523Y-146557319D01*
X114371904Y-146557319D02*
X113895714Y-146557319D01*
X113895714Y-146557319D02*
X113848095Y-147033509D01*
X113848095Y-147033509D02*
X113895714Y-146985890D01*
X113895714Y-146985890D02*
X113990952Y-146938271D01*
X113990952Y-146938271D02*
X114229047Y-146938271D01*
X114229047Y-146938271D02*
X114324285Y-146985890D01*
X114324285Y-146985890D02*
X114371904Y-147033509D01*
X114371904Y-147033509D02*
X114419523Y-147128747D01*
X114419523Y-147128747D02*
X114419523Y-147366842D01*
X114419523Y-147366842D02*
X114371904Y-147462080D01*
X114371904Y-147462080D02*
X114324285Y-147509700D01*
X114324285Y-147509700D02*
X114229047Y-147557319D01*
X114229047Y-147557319D02*
X113990952Y-147557319D01*
X113990952Y-147557319D02*
X113895714Y-147509700D01*
X113895714Y-147509700D02*
X113848095Y-147462080D01*
X51466666Y-187327319D02*
X51466666Y-188041604D01*
X51466666Y-188041604D02*
X51419047Y-188184461D01*
X51419047Y-188184461D02*
X51323809Y-188279700D01*
X51323809Y-188279700D02*
X51180952Y-188327319D01*
X51180952Y-188327319D02*
X51085714Y-188327319D01*
X52419047Y-187327319D02*
X51942857Y-187327319D01*
X51942857Y-187327319D02*
X51895238Y-187803509D01*
X51895238Y-187803509D02*
X51942857Y-187755890D01*
X51942857Y-187755890D02*
X52038095Y-187708271D01*
X52038095Y-187708271D02*
X52276190Y-187708271D01*
X52276190Y-187708271D02*
X52371428Y-187755890D01*
X52371428Y-187755890D02*
X52419047Y-187803509D01*
X52419047Y-187803509D02*
X52466666Y-187898747D01*
X52466666Y-187898747D02*
X52466666Y-188136842D01*
X52466666Y-188136842D02*
X52419047Y-188232080D01*
X52419047Y-188232080D02*
X52371428Y-188279700D01*
X52371428Y-188279700D02*
X52276190Y-188327319D01*
X52276190Y-188327319D02*
X52038095Y-188327319D01*
X52038095Y-188327319D02*
X51942857Y-188279700D01*
X51942857Y-188279700D02*
X51895238Y-188232080D01*
X77084819Y-94634285D02*
X76084819Y-94634285D01*
X76084819Y-94634285D02*
X76084819Y-94396190D01*
X76084819Y-94396190D02*
X76132438Y-94253333D01*
X76132438Y-94253333D02*
X76227676Y-94158095D01*
X76227676Y-94158095D02*
X76322914Y-94110476D01*
X76322914Y-94110476D02*
X76513390Y-94062857D01*
X76513390Y-94062857D02*
X76656247Y-94062857D01*
X76656247Y-94062857D02*
X76846723Y-94110476D01*
X76846723Y-94110476D02*
X76941961Y-94158095D01*
X76941961Y-94158095D02*
X77037200Y-94253333D01*
X77037200Y-94253333D02*
X77084819Y-94396190D01*
X77084819Y-94396190D02*
X77084819Y-94634285D01*
X77084819Y-93110476D02*
X77084819Y-93681904D01*
X77084819Y-93396190D02*
X76084819Y-93396190D01*
X76084819Y-93396190D02*
X76227676Y-93491428D01*
X76227676Y-93491428D02*
X76322914Y-93586666D01*
X76322914Y-93586666D02*
X76370533Y-93681904D01*
X76084819Y-92253333D02*
X76084819Y-92443809D01*
X76084819Y-92443809D02*
X76132438Y-92539047D01*
X76132438Y-92539047D02*
X76180057Y-92586666D01*
X76180057Y-92586666D02*
X76322914Y-92681904D01*
X76322914Y-92681904D02*
X76513390Y-92729523D01*
X76513390Y-92729523D02*
X76894342Y-92729523D01*
X76894342Y-92729523D02*
X76989580Y-92681904D01*
X76989580Y-92681904D02*
X77037200Y-92634285D01*
X77037200Y-92634285D02*
X77084819Y-92539047D01*
X77084819Y-92539047D02*
X77084819Y-92348571D01*
X77084819Y-92348571D02*
X77037200Y-92253333D01*
X77037200Y-92253333D02*
X76989580Y-92205714D01*
X76989580Y-92205714D02*
X76894342Y-92158095D01*
X76894342Y-92158095D02*
X76656247Y-92158095D01*
X76656247Y-92158095D02*
X76561009Y-92205714D01*
X76561009Y-92205714D02*
X76513390Y-92253333D01*
X76513390Y-92253333D02*
X76465771Y-92348571D01*
X76465771Y-92348571D02*
X76465771Y-92539047D01*
X76465771Y-92539047D02*
X76513390Y-92634285D01*
X76513390Y-92634285D02*
X76561009Y-92681904D01*
X76561009Y-92681904D02*
X76656247Y-92729523D01*
X77454819Y-98761904D02*
X76454819Y-98761904D01*
X77454819Y-98190476D02*
X76883390Y-98619047D01*
X76454819Y-98190476D02*
X77026247Y-98761904D01*
X73943095Y-146322319D02*
X73943095Y-147131842D01*
X73943095Y-147131842D02*
X73990714Y-147227080D01*
X73990714Y-147227080D02*
X74038333Y-147274700D01*
X74038333Y-147274700D02*
X74133571Y-147322319D01*
X74133571Y-147322319D02*
X74324047Y-147322319D01*
X74324047Y-147322319D02*
X74419285Y-147274700D01*
X74419285Y-147274700D02*
X74466904Y-147227080D01*
X74466904Y-147227080D02*
X74514523Y-147131842D01*
X74514523Y-147131842D02*
X74514523Y-146322319D01*
X74895476Y-146322319D02*
X75514523Y-146322319D01*
X75514523Y-146322319D02*
X75181190Y-146703271D01*
X75181190Y-146703271D02*
X75324047Y-146703271D01*
X75324047Y-146703271D02*
X75419285Y-146750890D01*
X75419285Y-146750890D02*
X75466904Y-146798509D01*
X75466904Y-146798509D02*
X75514523Y-146893747D01*
X75514523Y-146893747D02*
X75514523Y-147131842D01*
X75514523Y-147131842D02*
X75466904Y-147227080D01*
X75466904Y-147227080D02*
X75419285Y-147274700D01*
X75419285Y-147274700D02*
X75324047Y-147322319D01*
X75324047Y-147322319D02*
X75038333Y-147322319D01*
X75038333Y-147322319D02*
X74943095Y-147274700D01*
X74943095Y-147274700D02*
X74895476Y-147227080D01*
X66987142Y-96284819D02*
X66653809Y-95808628D01*
X66415714Y-96284819D02*
X66415714Y-95284819D01*
X66415714Y-95284819D02*
X66796666Y-95284819D01*
X66796666Y-95284819D02*
X66891904Y-95332438D01*
X66891904Y-95332438D02*
X66939523Y-95380057D01*
X66939523Y-95380057D02*
X66987142Y-95475295D01*
X66987142Y-95475295D02*
X66987142Y-95618152D01*
X66987142Y-95618152D02*
X66939523Y-95713390D01*
X66939523Y-95713390D02*
X66891904Y-95761009D01*
X66891904Y-95761009D02*
X66796666Y-95808628D01*
X66796666Y-95808628D02*
X66415714Y-95808628D01*
X67939523Y-96284819D02*
X67368095Y-96284819D01*
X67653809Y-96284819D02*
X67653809Y-95284819D01*
X67653809Y-95284819D02*
X67558571Y-95427676D01*
X67558571Y-95427676D02*
X67463333Y-95522914D01*
X67463333Y-95522914D02*
X67368095Y-95570533D01*
X68844285Y-95284819D02*
X68368095Y-95284819D01*
X68368095Y-95284819D02*
X68320476Y-95761009D01*
X68320476Y-95761009D02*
X68368095Y-95713390D01*
X68368095Y-95713390D02*
X68463333Y-95665771D01*
X68463333Y-95665771D02*
X68701428Y-95665771D01*
X68701428Y-95665771D02*
X68796666Y-95713390D01*
X68796666Y-95713390D02*
X68844285Y-95761009D01*
X68844285Y-95761009D02*
X68891904Y-95856247D01*
X68891904Y-95856247D02*
X68891904Y-96094342D01*
X68891904Y-96094342D02*
X68844285Y-96189580D01*
X68844285Y-96189580D02*
X68796666Y-96237200D01*
X68796666Y-96237200D02*
X68701428Y-96284819D01*
X68701428Y-96284819D02*
X68463333Y-96284819D01*
X68463333Y-96284819D02*
X68368095Y-96237200D01*
X68368095Y-96237200D02*
X68320476Y-96189580D01*
X30984819Y-73892857D02*
X30508628Y-74226190D01*
X30984819Y-74464285D02*
X29984819Y-74464285D01*
X29984819Y-74464285D02*
X29984819Y-74083333D01*
X29984819Y-74083333D02*
X30032438Y-73988095D01*
X30032438Y-73988095D02*
X30080057Y-73940476D01*
X30080057Y-73940476D02*
X30175295Y-73892857D01*
X30175295Y-73892857D02*
X30318152Y-73892857D01*
X30318152Y-73892857D02*
X30413390Y-73940476D01*
X30413390Y-73940476D02*
X30461009Y-73988095D01*
X30461009Y-73988095D02*
X30508628Y-74083333D01*
X30508628Y-74083333D02*
X30508628Y-74464285D01*
X29984819Y-73559523D02*
X29984819Y-72940476D01*
X29984819Y-72940476D02*
X30365771Y-73273809D01*
X30365771Y-73273809D02*
X30365771Y-73130952D01*
X30365771Y-73130952D02*
X30413390Y-73035714D01*
X30413390Y-73035714D02*
X30461009Y-72988095D01*
X30461009Y-72988095D02*
X30556247Y-72940476D01*
X30556247Y-72940476D02*
X30794342Y-72940476D01*
X30794342Y-72940476D02*
X30889580Y-72988095D01*
X30889580Y-72988095D02*
X30937200Y-73035714D01*
X30937200Y-73035714D02*
X30984819Y-73130952D01*
X30984819Y-73130952D02*
X30984819Y-73416666D01*
X30984819Y-73416666D02*
X30937200Y-73511904D01*
X30937200Y-73511904D02*
X30889580Y-73559523D01*
X29984819Y-72321428D02*
X29984819Y-72226190D01*
X29984819Y-72226190D02*
X30032438Y-72130952D01*
X30032438Y-72130952D02*
X30080057Y-72083333D01*
X30080057Y-72083333D02*
X30175295Y-72035714D01*
X30175295Y-72035714D02*
X30365771Y-71988095D01*
X30365771Y-71988095D02*
X30603866Y-71988095D01*
X30603866Y-71988095D02*
X30794342Y-72035714D01*
X30794342Y-72035714D02*
X30889580Y-72083333D01*
X30889580Y-72083333D02*
X30937200Y-72130952D01*
X30937200Y-72130952D02*
X30984819Y-72226190D01*
X30984819Y-72226190D02*
X30984819Y-72321428D01*
X30984819Y-72321428D02*
X30937200Y-72416666D01*
X30937200Y-72416666D02*
X30889580Y-72464285D01*
X30889580Y-72464285D02*
X30794342Y-72511904D01*
X30794342Y-72511904D02*
X30603866Y-72559523D01*
X30603866Y-72559523D02*
X30365771Y-72559523D01*
X30365771Y-72559523D02*
X30175295Y-72511904D01*
X30175295Y-72511904D02*
X30080057Y-72464285D01*
X30080057Y-72464285D02*
X30032438Y-72416666D01*
X30032438Y-72416666D02*
X29984819Y-72321428D01*
X91116666Y-187377319D02*
X91116666Y-188091604D01*
X91116666Y-188091604D02*
X91069047Y-188234461D01*
X91069047Y-188234461D02*
X90973809Y-188329700D01*
X90973809Y-188329700D02*
X90830952Y-188377319D01*
X90830952Y-188377319D02*
X90735714Y-188377319D01*
X91497619Y-187377319D02*
X92164285Y-187377319D01*
X92164285Y-187377319D02*
X91735714Y-188377319D01*
X61424819Y-139595357D02*
X60948628Y-139928690D01*
X61424819Y-140166785D02*
X60424819Y-140166785D01*
X60424819Y-140166785D02*
X60424819Y-139785833D01*
X60424819Y-139785833D02*
X60472438Y-139690595D01*
X60472438Y-139690595D02*
X60520057Y-139642976D01*
X60520057Y-139642976D02*
X60615295Y-139595357D01*
X60615295Y-139595357D02*
X60758152Y-139595357D01*
X60758152Y-139595357D02*
X60853390Y-139642976D01*
X60853390Y-139642976D02*
X60901009Y-139690595D01*
X60901009Y-139690595D02*
X60948628Y-139785833D01*
X60948628Y-139785833D02*
X60948628Y-140166785D01*
X61424819Y-138642976D02*
X61424819Y-139214404D01*
X61424819Y-138928690D02*
X60424819Y-138928690D01*
X60424819Y-138928690D02*
X60567676Y-139023928D01*
X60567676Y-139023928D02*
X60662914Y-139119166D01*
X60662914Y-139119166D02*
X60710533Y-139214404D01*
X60853390Y-138071547D02*
X60805771Y-138166785D01*
X60805771Y-138166785D02*
X60758152Y-138214404D01*
X60758152Y-138214404D02*
X60662914Y-138262023D01*
X60662914Y-138262023D02*
X60615295Y-138262023D01*
X60615295Y-138262023D02*
X60520057Y-138214404D01*
X60520057Y-138214404D02*
X60472438Y-138166785D01*
X60472438Y-138166785D02*
X60424819Y-138071547D01*
X60424819Y-138071547D02*
X60424819Y-137881071D01*
X60424819Y-137881071D02*
X60472438Y-137785833D01*
X60472438Y-137785833D02*
X60520057Y-137738214D01*
X60520057Y-137738214D02*
X60615295Y-137690595D01*
X60615295Y-137690595D02*
X60662914Y-137690595D01*
X60662914Y-137690595D02*
X60758152Y-137738214D01*
X60758152Y-137738214D02*
X60805771Y-137785833D01*
X60805771Y-137785833D02*
X60853390Y-137881071D01*
X60853390Y-137881071D02*
X60853390Y-138071547D01*
X60853390Y-138071547D02*
X60901009Y-138166785D01*
X60901009Y-138166785D02*
X60948628Y-138214404D01*
X60948628Y-138214404D02*
X61043866Y-138262023D01*
X61043866Y-138262023D02*
X61234342Y-138262023D01*
X61234342Y-138262023D02*
X61329580Y-138214404D01*
X61329580Y-138214404D02*
X61377200Y-138166785D01*
X61377200Y-138166785D02*
X61424819Y-138071547D01*
X61424819Y-138071547D02*
X61424819Y-137881071D01*
X61424819Y-137881071D02*
X61377200Y-137785833D01*
X61377200Y-137785833D02*
X61329580Y-137738214D01*
X61329580Y-137738214D02*
X61234342Y-137690595D01*
X61234342Y-137690595D02*
X61043866Y-137690595D01*
X61043866Y-137690595D02*
X60948628Y-137738214D01*
X60948628Y-137738214D02*
X60901009Y-137785833D01*
X60901009Y-137785833D02*
X60853390Y-137881071D01*
X73961905Y-162527319D02*
X73961905Y-161527319D01*
X73961905Y-161527319D02*
X74200000Y-161527319D01*
X74200000Y-161527319D02*
X74342857Y-161574938D01*
X74342857Y-161574938D02*
X74438095Y-161670176D01*
X74438095Y-161670176D02*
X74485714Y-161765414D01*
X74485714Y-161765414D02*
X74533333Y-161955890D01*
X74533333Y-161955890D02*
X74533333Y-162098747D01*
X74533333Y-162098747D02*
X74485714Y-162289223D01*
X74485714Y-162289223D02*
X74438095Y-162384461D01*
X74438095Y-162384461D02*
X74342857Y-162479700D01*
X74342857Y-162479700D02*
X74200000Y-162527319D01*
X74200000Y-162527319D02*
X73961905Y-162527319D01*
X74866667Y-161527319D02*
X75485714Y-161527319D01*
X75485714Y-161527319D02*
X75152381Y-161908271D01*
X75152381Y-161908271D02*
X75295238Y-161908271D01*
X75295238Y-161908271D02*
X75390476Y-161955890D01*
X75390476Y-161955890D02*
X75438095Y-162003509D01*
X75438095Y-162003509D02*
X75485714Y-162098747D01*
X75485714Y-162098747D02*
X75485714Y-162336842D01*
X75485714Y-162336842D02*
X75438095Y-162432080D01*
X75438095Y-162432080D02*
X75390476Y-162479700D01*
X75390476Y-162479700D02*
X75295238Y-162527319D01*
X75295238Y-162527319D02*
X75009524Y-162527319D01*
X75009524Y-162527319D02*
X74914286Y-162479700D01*
X74914286Y-162479700D02*
X74866667Y-162432080D01*
X51263333Y-126007319D02*
X50930000Y-125531128D01*
X50691905Y-126007319D02*
X50691905Y-125007319D01*
X50691905Y-125007319D02*
X51072857Y-125007319D01*
X51072857Y-125007319D02*
X51168095Y-125054938D01*
X51168095Y-125054938D02*
X51215714Y-125102557D01*
X51215714Y-125102557D02*
X51263333Y-125197795D01*
X51263333Y-125197795D02*
X51263333Y-125340652D01*
X51263333Y-125340652D02*
X51215714Y-125435890D01*
X51215714Y-125435890D02*
X51168095Y-125483509D01*
X51168095Y-125483509D02*
X51072857Y-125531128D01*
X51072857Y-125531128D02*
X50691905Y-125531128D01*
X51644286Y-125102557D02*
X51691905Y-125054938D01*
X51691905Y-125054938D02*
X51787143Y-125007319D01*
X51787143Y-125007319D02*
X52025238Y-125007319D01*
X52025238Y-125007319D02*
X52120476Y-125054938D01*
X52120476Y-125054938D02*
X52168095Y-125102557D01*
X52168095Y-125102557D02*
X52215714Y-125197795D01*
X52215714Y-125197795D02*
X52215714Y-125293033D01*
X52215714Y-125293033D02*
X52168095Y-125435890D01*
X52168095Y-125435890D02*
X51596667Y-126007319D01*
X51596667Y-126007319D02*
X52215714Y-126007319D01*
X54493095Y-146372319D02*
X54493095Y-147181842D01*
X54493095Y-147181842D02*
X54540714Y-147277080D01*
X54540714Y-147277080D02*
X54588333Y-147324700D01*
X54588333Y-147324700D02*
X54683571Y-147372319D01*
X54683571Y-147372319D02*
X54874047Y-147372319D01*
X54874047Y-147372319D02*
X54969285Y-147324700D01*
X54969285Y-147324700D02*
X55016904Y-147277080D01*
X55016904Y-147277080D02*
X55064523Y-147181842D01*
X55064523Y-147181842D02*
X55064523Y-146372319D01*
X55493095Y-146467557D02*
X55540714Y-146419938D01*
X55540714Y-146419938D02*
X55635952Y-146372319D01*
X55635952Y-146372319D02*
X55874047Y-146372319D01*
X55874047Y-146372319D02*
X55969285Y-146419938D01*
X55969285Y-146419938D02*
X56016904Y-146467557D01*
X56016904Y-146467557D02*
X56064523Y-146562795D01*
X56064523Y-146562795D02*
X56064523Y-146658033D01*
X56064523Y-146658033D02*
X56016904Y-146800890D01*
X56016904Y-146800890D02*
X55445476Y-147372319D01*
X55445476Y-147372319D02*
X56064523Y-147372319D01*
X26369047Y-80431009D02*
X26511904Y-80478628D01*
X26511904Y-80478628D02*
X26559523Y-80526247D01*
X26559523Y-80526247D02*
X26607142Y-80621485D01*
X26607142Y-80621485D02*
X26607142Y-80764342D01*
X26607142Y-80764342D02*
X26559523Y-80859580D01*
X26559523Y-80859580D02*
X26511904Y-80907200D01*
X26511904Y-80907200D02*
X26416666Y-80954819D01*
X26416666Y-80954819D02*
X26035714Y-80954819D01*
X26035714Y-80954819D02*
X26035714Y-79954819D01*
X26035714Y-79954819D02*
X26369047Y-79954819D01*
X26369047Y-79954819D02*
X26464285Y-80002438D01*
X26464285Y-80002438D02*
X26511904Y-80050057D01*
X26511904Y-80050057D02*
X26559523Y-80145295D01*
X26559523Y-80145295D02*
X26559523Y-80240533D01*
X26559523Y-80240533D02*
X26511904Y-80335771D01*
X26511904Y-80335771D02*
X26464285Y-80383390D01*
X26464285Y-80383390D02*
X26369047Y-80431009D01*
X26369047Y-80431009D02*
X26035714Y-80431009D01*
X26940476Y-79954819D02*
X27607142Y-79954819D01*
X27607142Y-79954819D02*
X26940476Y-80954819D01*
X26940476Y-80954819D02*
X27607142Y-80954819D01*
X28511904Y-80954819D02*
X27940476Y-80954819D01*
X28226190Y-80954819D02*
X28226190Y-79954819D01*
X28226190Y-79954819D02*
X28130952Y-80097676D01*
X28130952Y-80097676D02*
X28035714Y-80192914D01*
X28035714Y-80192914D02*
X27940476Y-80240533D01*
X23619048Y-85773866D02*
X24380953Y-85773866D01*
X24000000Y-86154819D02*
X24000000Y-85392914D01*
X119774819Y-139795357D02*
X119298628Y-140128690D01*
X119774819Y-140366785D02*
X118774819Y-140366785D01*
X118774819Y-140366785D02*
X118774819Y-139985833D01*
X118774819Y-139985833D02*
X118822438Y-139890595D01*
X118822438Y-139890595D02*
X118870057Y-139842976D01*
X118870057Y-139842976D02*
X118965295Y-139795357D01*
X118965295Y-139795357D02*
X119108152Y-139795357D01*
X119108152Y-139795357D02*
X119203390Y-139842976D01*
X119203390Y-139842976D02*
X119251009Y-139890595D01*
X119251009Y-139890595D02*
X119298628Y-139985833D01*
X119298628Y-139985833D02*
X119298628Y-140366785D01*
X118870057Y-139414404D02*
X118822438Y-139366785D01*
X118822438Y-139366785D02*
X118774819Y-139271547D01*
X118774819Y-139271547D02*
X118774819Y-139033452D01*
X118774819Y-139033452D02*
X118822438Y-138938214D01*
X118822438Y-138938214D02*
X118870057Y-138890595D01*
X118870057Y-138890595D02*
X118965295Y-138842976D01*
X118965295Y-138842976D02*
X119060533Y-138842976D01*
X119060533Y-138842976D02*
X119203390Y-138890595D01*
X119203390Y-138890595D02*
X119774819Y-139462023D01*
X119774819Y-139462023D02*
X119774819Y-138842976D01*
X118774819Y-138223928D02*
X118774819Y-138128690D01*
X118774819Y-138128690D02*
X118822438Y-138033452D01*
X118822438Y-138033452D02*
X118870057Y-137985833D01*
X118870057Y-137985833D02*
X118965295Y-137938214D01*
X118965295Y-137938214D02*
X119155771Y-137890595D01*
X119155771Y-137890595D02*
X119393866Y-137890595D01*
X119393866Y-137890595D02*
X119584342Y-137938214D01*
X119584342Y-137938214D02*
X119679580Y-137985833D01*
X119679580Y-137985833D02*
X119727200Y-138033452D01*
X119727200Y-138033452D02*
X119774819Y-138128690D01*
X119774819Y-138128690D02*
X119774819Y-138223928D01*
X119774819Y-138223928D02*
X119727200Y-138319166D01*
X119727200Y-138319166D02*
X119679580Y-138366785D01*
X119679580Y-138366785D02*
X119584342Y-138414404D01*
X119584342Y-138414404D02*
X119393866Y-138462023D01*
X119393866Y-138462023D02*
X119155771Y-138462023D01*
X119155771Y-138462023D02*
X118965295Y-138414404D01*
X118965295Y-138414404D02*
X118870057Y-138366785D01*
X118870057Y-138366785D02*
X118822438Y-138319166D01*
X118822438Y-138319166D02*
X118774819Y-138223928D01*
X101224819Y-139445357D02*
X100748628Y-139778690D01*
X101224819Y-140016785D02*
X100224819Y-140016785D01*
X100224819Y-140016785D02*
X100224819Y-139635833D01*
X100224819Y-139635833D02*
X100272438Y-139540595D01*
X100272438Y-139540595D02*
X100320057Y-139492976D01*
X100320057Y-139492976D02*
X100415295Y-139445357D01*
X100415295Y-139445357D02*
X100558152Y-139445357D01*
X100558152Y-139445357D02*
X100653390Y-139492976D01*
X100653390Y-139492976D02*
X100701009Y-139540595D01*
X100701009Y-139540595D02*
X100748628Y-139635833D01*
X100748628Y-139635833D02*
X100748628Y-140016785D01*
X100320057Y-139064404D02*
X100272438Y-139016785D01*
X100272438Y-139016785D02*
X100224819Y-138921547D01*
X100224819Y-138921547D02*
X100224819Y-138683452D01*
X100224819Y-138683452D02*
X100272438Y-138588214D01*
X100272438Y-138588214D02*
X100320057Y-138540595D01*
X100320057Y-138540595D02*
X100415295Y-138492976D01*
X100415295Y-138492976D02*
X100510533Y-138492976D01*
X100510533Y-138492976D02*
X100653390Y-138540595D01*
X100653390Y-138540595D02*
X101224819Y-139112023D01*
X101224819Y-139112023D02*
X101224819Y-138492976D01*
X100558152Y-137635833D02*
X101224819Y-137635833D01*
X100177200Y-137873928D02*
X100891485Y-138112023D01*
X100891485Y-138112023D02*
X100891485Y-137492976D01*
X96211905Y-103604819D02*
X96211905Y-102604819D01*
X96783333Y-103604819D02*
X96354762Y-103033390D01*
X96783333Y-102604819D02*
X96211905Y-103176247D01*
X97116667Y-102604819D02*
X97783333Y-102604819D01*
X97783333Y-102604819D02*
X97354762Y-103604819D01*
X68934819Y-74101904D02*
X69744342Y-74101904D01*
X69744342Y-74101904D02*
X69839580Y-74054285D01*
X69839580Y-74054285D02*
X69887200Y-74006666D01*
X69887200Y-74006666D02*
X69934819Y-73911428D01*
X69934819Y-73911428D02*
X69934819Y-73720952D01*
X69934819Y-73720952D02*
X69887200Y-73625714D01*
X69887200Y-73625714D02*
X69839580Y-73578095D01*
X69839580Y-73578095D02*
X69744342Y-73530476D01*
X69744342Y-73530476D02*
X68934819Y-73530476D01*
X68934819Y-72625714D02*
X68934819Y-72816190D01*
X68934819Y-72816190D02*
X68982438Y-72911428D01*
X68982438Y-72911428D02*
X69030057Y-72959047D01*
X69030057Y-72959047D02*
X69172914Y-73054285D01*
X69172914Y-73054285D02*
X69363390Y-73101904D01*
X69363390Y-73101904D02*
X69744342Y-73101904D01*
X69744342Y-73101904D02*
X69839580Y-73054285D01*
X69839580Y-73054285D02*
X69887200Y-73006666D01*
X69887200Y-73006666D02*
X69934819Y-72911428D01*
X69934819Y-72911428D02*
X69934819Y-72720952D01*
X69934819Y-72720952D02*
X69887200Y-72625714D01*
X69887200Y-72625714D02*
X69839580Y-72578095D01*
X69839580Y-72578095D02*
X69744342Y-72530476D01*
X69744342Y-72530476D02*
X69506247Y-72530476D01*
X69506247Y-72530476D02*
X69411009Y-72578095D01*
X69411009Y-72578095D02*
X69363390Y-72625714D01*
X69363390Y-72625714D02*
X69315771Y-72720952D01*
X69315771Y-72720952D02*
X69315771Y-72911428D01*
X69315771Y-72911428D02*
X69363390Y-73006666D01*
X69363390Y-73006666D02*
X69411009Y-73054285D01*
X69411009Y-73054285D02*
X69506247Y-73101904D01*
X62240057Y-76095238D02*
X62192438Y-76190476D01*
X62192438Y-76190476D02*
X62097200Y-76285714D01*
X62097200Y-76285714D02*
X61954342Y-76428571D01*
X61954342Y-76428571D02*
X61906723Y-76523809D01*
X61906723Y-76523809D02*
X61906723Y-76619047D01*
X62144819Y-76571428D02*
X62097200Y-76666666D01*
X62097200Y-76666666D02*
X62001961Y-76761904D01*
X62001961Y-76761904D02*
X61811485Y-76809523D01*
X61811485Y-76809523D02*
X61478152Y-76809523D01*
X61478152Y-76809523D02*
X61287676Y-76761904D01*
X61287676Y-76761904D02*
X61192438Y-76666666D01*
X61192438Y-76666666D02*
X61144819Y-76571428D01*
X61144819Y-76571428D02*
X61144819Y-76380952D01*
X61144819Y-76380952D02*
X61192438Y-76285714D01*
X61192438Y-76285714D02*
X61287676Y-76190476D01*
X61287676Y-76190476D02*
X61478152Y-76142857D01*
X61478152Y-76142857D02*
X61811485Y-76142857D01*
X61811485Y-76142857D02*
X62001961Y-76190476D01*
X62001961Y-76190476D02*
X62097200Y-76285714D01*
X62097200Y-76285714D02*
X62144819Y-76380952D01*
X62144819Y-76380952D02*
X62144819Y-76571428D01*
X61144819Y-75285714D02*
X61144819Y-75476190D01*
X61144819Y-75476190D02*
X61192438Y-75571428D01*
X61192438Y-75571428D02*
X61240057Y-75619047D01*
X61240057Y-75619047D02*
X61382914Y-75714285D01*
X61382914Y-75714285D02*
X61573390Y-75761904D01*
X61573390Y-75761904D02*
X61954342Y-75761904D01*
X61954342Y-75761904D02*
X62049580Y-75714285D01*
X62049580Y-75714285D02*
X62097200Y-75666666D01*
X62097200Y-75666666D02*
X62144819Y-75571428D01*
X62144819Y-75571428D02*
X62144819Y-75380952D01*
X62144819Y-75380952D02*
X62097200Y-75285714D01*
X62097200Y-75285714D02*
X62049580Y-75238095D01*
X62049580Y-75238095D02*
X61954342Y-75190476D01*
X61954342Y-75190476D02*
X61716247Y-75190476D01*
X61716247Y-75190476D02*
X61621009Y-75238095D01*
X61621009Y-75238095D02*
X61573390Y-75285714D01*
X61573390Y-75285714D02*
X61525771Y-75380952D01*
X61525771Y-75380952D02*
X61525771Y-75571428D01*
X61525771Y-75571428D02*
X61573390Y-75666666D01*
X61573390Y-75666666D02*
X61621009Y-75714285D01*
X61621009Y-75714285D02*
X61716247Y-75761904D01*
X108074819Y-145695357D02*
X107598628Y-146028690D01*
X108074819Y-146266785D02*
X107074819Y-146266785D01*
X107074819Y-146266785D02*
X107074819Y-145885833D01*
X107074819Y-145885833D02*
X107122438Y-145790595D01*
X107122438Y-145790595D02*
X107170057Y-145742976D01*
X107170057Y-145742976D02*
X107265295Y-145695357D01*
X107265295Y-145695357D02*
X107408152Y-145695357D01*
X107408152Y-145695357D02*
X107503390Y-145742976D01*
X107503390Y-145742976D02*
X107551009Y-145790595D01*
X107551009Y-145790595D02*
X107598628Y-145885833D01*
X107598628Y-145885833D02*
X107598628Y-146266785D01*
X108074819Y-144742976D02*
X108074819Y-145314404D01*
X108074819Y-145028690D02*
X107074819Y-145028690D01*
X107074819Y-145028690D02*
X107217676Y-145123928D01*
X107217676Y-145123928D02*
X107312914Y-145219166D01*
X107312914Y-145219166D02*
X107360533Y-145314404D01*
X107074819Y-144409642D02*
X107074819Y-143790595D01*
X107074819Y-143790595D02*
X107455771Y-144123928D01*
X107455771Y-144123928D02*
X107455771Y-143981071D01*
X107455771Y-143981071D02*
X107503390Y-143885833D01*
X107503390Y-143885833D02*
X107551009Y-143838214D01*
X107551009Y-143838214D02*
X107646247Y-143790595D01*
X107646247Y-143790595D02*
X107884342Y-143790595D01*
X107884342Y-143790595D02*
X107979580Y-143838214D01*
X107979580Y-143838214D02*
X108027200Y-143885833D01*
X108027200Y-143885833D02*
X108074819Y-143981071D01*
X108074819Y-143981071D02*
X108074819Y-144266785D01*
X108074819Y-144266785D02*
X108027200Y-144362023D01*
X108027200Y-144362023D02*
X107979580Y-144409642D01*
X68934819Y-90471904D02*
X69744342Y-90471904D01*
X69744342Y-90471904D02*
X69839580Y-90424285D01*
X69839580Y-90424285D02*
X69887200Y-90376666D01*
X69887200Y-90376666D02*
X69934819Y-90281428D01*
X69934819Y-90281428D02*
X69934819Y-90090952D01*
X69934819Y-90090952D02*
X69887200Y-89995714D01*
X69887200Y-89995714D02*
X69839580Y-89948095D01*
X69839580Y-89948095D02*
X69744342Y-89900476D01*
X69744342Y-89900476D02*
X68934819Y-89900476D01*
X68934819Y-89519523D02*
X68934819Y-88852857D01*
X68934819Y-88852857D02*
X69934819Y-89281428D01*
X109933333Y-51859580D02*
X109885714Y-51907200D01*
X109885714Y-51907200D02*
X109742857Y-51954819D01*
X109742857Y-51954819D02*
X109647619Y-51954819D01*
X109647619Y-51954819D02*
X109504762Y-51907200D01*
X109504762Y-51907200D02*
X109409524Y-51811961D01*
X109409524Y-51811961D02*
X109361905Y-51716723D01*
X109361905Y-51716723D02*
X109314286Y-51526247D01*
X109314286Y-51526247D02*
X109314286Y-51383390D01*
X109314286Y-51383390D02*
X109361905Y-51192914D01*
X109361905Y-51192914D02*
X109409524Y-51097676D01*
X109409524Y-51097676D02*
X109504762Y-51002438D01*
X109504762Y-51002438D02*
X109647619Y-50954819D01*
X109647619Y-50954819D02*
X109742857Y-50954819D01*
X109742857Y-50954819D02*
X109885714Y-51002438D01*
X109885714Y-51002438D02*
X109933333Y-51050057D01*
X110314286Y-51050057D02*
X110361905Y-51002438D01*
X110361905Y-51002438D02*
X110457143Y-50954819D01*
X110457143Y-50954819D02*
X110695238Y-50954819D01*
X110695238Y-50954819D02*
X110790476Y-51002438D01*
X110790476Y-51002438D02*
X110838095Y-51050057D01*
X110838095Y-51050057D02*
X110885714Y-51145295D01*
X110885714Y-51145295D02*
X110885714Y-51240533D01*
X110885714Y-51240533D02*
X110838095Y-51383390D01*
X110838095Y-51383390D02*
X110266667Y-51954819D01*
X110266667Y-51954819D02*
X110885714Y-51954819D01*
X83881905Y-97364819D02*
X83881905Y-96364819D01*
X83881905Y-96364819D02*
X84120000Y-96364819D01*
X84120000Y-96364819D02*
X84262857Y-96412438D01*
X84262857Y-96412438D02*
X84358095Y-96507676D01*
X84358095Y-96507676D02*
X84405714Y-96602914D01*
X84405714Y-96602914D02*
X84453333Y-96793390D01*
X84453333Y-96793390D02*
X84453333Y-96936247D01*
X84453333Y-96936247D02*
X84405714Y-97126723D01*
X84405714Y-97126723D02*
X84358095Y-97221961D01*
X84358095Y-97221961D02*
X84262857Y-97317200D01*
X84262857Y-97317200D02*
X84120000Y-97364819D01*
X84120000Y-97364819D02*
X83881905Y-97364819D01*
X84786667Y-96364819D02*
X85453333Y-96364819D01*
X85453333Y-96364819D02*
X85024762Y-97364819D01*
X109484819Y-94892857D02*
X109008628Y-95226190D01*
X109484819Y-95464285D02*
X108484819Y-95464285D01*
X108484819Y-95464285D02*
X108484819Y-95083333D01*
X108484819Y-95083333D02*
X108532438Y-94988095D01*
X108532438Y-94988095D02*
X108580057Y-94940476D01*
X108580057Y-94940476D02*
X108675295Y-94892857D01*
X108675295Y-94892857D02*
X108818152Y-94892857D01*
X108818152Y-94892857D02*
X108913390Y-94940476D01*
X108913390Y-94940476D02*
X108961009Y-94988095D01*
X108961009Y-94988095D02*
X109008628Y-95083333D01*
X109008628Y-95083333D02*
X109008628Y-95464285D01*
X108580057Y-94511904D02*
X108532438Y-94464285D01*
X108532438Y-94464285D02*
X108484819Y-94369047D01*
X108484819Y-94369047D02*
X108484819Y-94130952D01*
X108484819Y-94130952D02*
X108532438Y-94035714D01*
X108532438Y-94035714D02*
X108580057Y-93988095D01*
X108580057Y-93988095D02*
X108675295Y-93940476D01*
X108675295Y-93940476D02*
X108770533Y-93940476D01*
X108770533Y-93940476D02*
X108913390Y-93988095D01*
X108913390Y-93988095D02*
X109484819Y-94559523D01*
X109484819Y-94559523D02*
X109484819Y-93940476D01*
X108484819Y-93035714D02*
X108484819Y-93511904D01*
X108484819Y-93511904D02*
X108961009Y-93559523D01*
X108961009Y-93559523D02*
X108913390Y-93511904D01*
X108913390Y-93511904D02*
X108865771Y-93416666D01*
X108865771Y-93416666D02*
X108865771Y-93178571D01*
X108865771Y-93178571D02*
X108913390Y-93083333D01*
X108913390Y-93083333D02*
X108961009Y-93035714D01*
X108961009Y-93035714D02*
X109056247Y-92988095D01*
X109056247Y-92988095D02*
X109294342Y-92988095D01*
X109294342Y-92988095D02*
X109389580Y-93035714D01*
X109389580Y-93035714D02*
X109437200Y-93083333D01*
X109437200Y-93083333D02*
X109484819Y-93178571D01*
X109484819Y-93178571D02*
X109484819Y-93416666D01*
X109484819Y-93416666D02*
X109437200Y-93511904D01*
X109437200Y-93511904D02*
X109389580Y-93559523D01*
X30611905Y-154407319D02*
X30611905Y-153407319D01*
X30611905Y-153407319D02*
X30850000Y-153407319D01*
X30850000Y-153407319D02*
X30992857Y-153454938D01*
X30992857Y-153454938D02*
X31088095Y-153550176D01*
X31088095Y-153550176D02*
X31135714Y-153645414D01*
X31135714Y-153645414D02*
X31183333Y-153835890D01*
X31183333Y-153835890D02*
X31183333Y-153978747D01*
X31183333Y-153978747D02*
X31135714Y-154169223D01*
X31135714Y-154169223D02*
X31088095Y-154264461D01*
X31088095Y-154264461D02*
X30992857Y-154359700D01*
X30992857Y-154359700D02*
X30850000Y-154407319D01*
X30850000Y-154407319D02*
X30611905Y-154407319D01*
X31659524Y-154407319D02*
X31850000Y-154407319D01*
X31850000Y-154407319D02*
X31945238Y-154359700D01*
X31945238Y-154359700D02*
X31992857Y-154312080D01*
X31992857Y-154312080D02*
X32088095Y-154169223D01*
X32088095Y-154169223D02*
X32135714Y-153978747D01*
X32135714Y-153978747D02*
X32135714Y-153597795D01*
X32135714Y-153597795D02*
X32088095Y-153502557D01*
X32088095Y-153502557D02*
X32040476Y-153454938D01*
X32040476Y-153454938D02*
X31945238Y-153407319D01*
X31945238Y-153407319D02*
X31754762Y-153407319D01*
X31754762Y-153407319D02*
X31659524Y-153454938D01*
X31659524Y-153454938D02*
X31611905Y-153502557D01*
X31611905Y-153502557D02*
X31564286Y-153597795D01*
X31564286Y-153597795D02*
X31564286Y-153835890D01*
X31564286Y-153835890D02*
X31611905Y-153931128D01*
X31611905Y-153931128D02*
X31659524Y-153978747D01*
X31659524Y-153978747D02*
X31754762Y-154026366D01*
X31754762Y-154026366D02*
X31945238Y-154026366D01*
X31945238Y-154026366D02*
X32040476Y-153978747D01*
X32040476Y-153978747D02*
X32088095Y-153931128D01*
X32088095Y-153931128D02*
X32135714Y-153835890D01*
X26008095Y-154777319D02*
X26008095Y-153777319D01*
X26579523Y-154777319D02*
X26150952Y-154205890D01*
X26579523Y-153777319D02*
X26008095Y-154348747D01*
X34083333Y-44609580D02*
X34035714Y-44657200D01*
X34035714Y-44657200D02*
X33892857Y-44704819D01*
X33892857Y-44704819D02*
X33797619Y-44704819D01*
X33797619Y-44704819D02*
X33654762Y-44657200D01*
X33654762Y-44657200D02*
X33559524Y-44561961D01*
X33559524Y-44561961D02*
X33511905Y-44466723D01*
X33511905Y-44466723D02*
X33464286Y-44276247D01*
X33464286Y-44276247D02*
X33464286Y-44133390D01*
X33464286Y-44133390D02*
X33511905Y-43942914D01*
X33511905Y-43942914D02*
X33559524Y-43847676D01*
X33559524Y-43847676D02*
X33654762Y-43752438D01*
X33654762Y-43752438D02*
X33797619Y-43704819D01*
X33797619Y-43704819D02*
X33892857Y-43704819D01*
X33892857Y-43704819D02*
X34035714Y-43752438D01*
X34035714Y-43752438D02*
X34083333Y-43800057D01*
X34940476Y-44038152D02*
X34940476Y-44704819D01*
X34702381Y-43657200D02*
X34464286Y-44371485D01*
X34464286Y-44371485D02*
X35083333Y-44371485D01*
X66487142Y-47084819D02*
X66153809Y-46608628D01*
X65915714Y-47084819D02*
X65915714Y-46084819D01*
X65915714Y-46084819D02*
X66296666Y-46084819D01*
X66296666Y-46084819D02*
X66391904Y-46132438D01*
X66391904Y-46132438D02*
X66439523Y-46180057D01*
X66439523Y-46180057D02*
X66487142Y-46275295D01*
X66487142Y-46275295D02*
X66487142Y-46418152D01*
X66487142Y-46418152D02*
X66439523Y-46513390D01*
X66439523Y-46513390D02*
X66391904Y-46561009D01*
X66391904Y-46561009D02*
X66296666Y-46608628D01*
X66296666Y-46608628D02*
X65915714Y-46608628D01*
X66868095Y-46180057D02*
X66915714Y-46132438D01*
X66915714Y-46132438D02*
X67010952Y-46084819D01*
X67010952Y-46084819D02*
X67249047Y-46084819D01*
X67249047Y-46084819D02*
X67344285Y-46132438D01*
X67344285Y-46132438D02*
X67391904Y-46180057D01*
X67391904Y-46180057D02*
X67439523Y-46275295D01*
X67439523Y-46275295D02*
X67439523Y-46370533D01*
X67439523Y-46370533D02*
X67391904Y-46513390D01*
X67391904Y-46513390D02*
X66820476Y-47084819D01*
X66820476Y-47084819D02*
X67439523Y-47084819D01*
X68010952Y-46513390D02*
X67915714Y-46465771D01*
X67915714Y-46465771D02*
X67868095Y-46418152D01*
X67868095Y-46418152D02*
X67820476Y-46322914D01*
X67820476Y-46322914D02*
X67820476Y-46275295D01*
X67820476Y-46275295D02*
X67868095Y-46180057D01*
X67868095Y-46180057D02*
X67915714Y-46132438D01*
X67915714Y-46132438D02*
X68010952Y-46084819D01*
X68010952Y-46084819D02*
X68201428Y-46084819D01*
X68201428Y-46084819D02*
X68296666Y-46132438D01*
X68296666Y-46132438D02*
X68344285Y-46180057D01*
X68344285Y-46180057D02*
X68391904Y-46275295D01*
X68391904Y-46275295D02*
X68391904Y-46322914D01*
X68391904Y-46322914D02*
X68344285Y-46418152D01*
X68344285Y-46418152D02*
X68296666Y-46465771D01*
X68296666Y-46465771D02*
X68201428Y-46513390D01*
X68201428Y-46513390D02*
X68010952Y-46513390D01*
X68010952Y-46513390D02*
X67915714Y-46561009D01*
X67915714Y-46561009D02*
X67868095Y-46608628D01*
X67868095Y-46608628D02*
X67820476Y-46703866D01*
X67820476Y-46703866D02*
X67820476Y-46894342D01*
X67820476Y-46894342D02*
X67868095Y-46989580D01*
X67868095Y-46989580D02*
X67915714Y-47037200D01*
X67915714Y-47037200D02*
X68010952Y-47084819D01*
X68010952Y-47084819D02*
X68201428Y-47084819D01*
X68201428Y-47084819D02*
X68296666Y-47037200D01*
X68296666Y-47037200D02*
X68344285Y-46989580D01*
X68344285Y-46989580D02*
X68391904Y-46894342D01*
X68391904Y-46894342D02*
X68391904Y-46703866D01*
X68391904Y-46703866D02*
X68344285Y-46608628D01*
X68344285Y-46608628D02*
X68296666Y-46561009D01*
X68296666Y-46561009D02*
X68201428Y-46513390D01*
X102204819Y-175460594D02*
X101204819Y-175460594D01*
X102204819Y-174889166D02*
X101633390Y-175317737D01*
X101204819Y-174889166D02*
X101776247Y-175460594D01*
X101204819Y-173984404D02*
X101204819Y-174460594D01*
X101204819Y-174460594D02*
X101681009Y-174508213D01*
X101681009Y-174508213D02*
X101633390Y-174460594D01*
X101633390Y-174460594D02*
X101585771Y-174365356D01*
X101585771Y-174365356D02*
X101585771Y-174127261D01*
X101585771Y-174127261D02*
X101633390Y-174032023D01*
X101633390Y-174032023D02*
X101681009Y-173984404D01*
X101681009Y-173984404D02*
X101776247Y-173936785D01*
X101776247Y-173936785D02*
X102014342Y-173936785D01*
X102014342Y-173936785D02*
X102109580Y-173984404D01*
X102109580Y-173984404D02*
X102157200Y-174032023D01*
X102157200Y-174032023D02*
X102204819Y-174127261D01*
X102204819Y-174127261D02*
X102204819Y-174365356D01*
X102204819Y-174365356D02*
X102157200Y-174460594D01*
X102157200Y-174460594D02*
X102109580Y-174508213D01*
X70683333Y-125907319D02*
X70350000Y-125431128D01*
X70111905Y-125907319D02*
X70111905Y-124907319D01*
X70111905Y-124907319D02*
X70492857Y-124907319D01*
X70492857Y-124907319D02*
X70588095Y-124954938D01*
X70588095Y-124954938D02*
X70635714Y-125002557D01*
X70635714Y-125002557D02*
X70683333Y-125097795D01*
X70683333Y-125097795D02*
X70683333Y-125240652D01*
X70683333Y-125240652D02*
X70635714Y-125335890D01*
X70635714Y-125335890D02*
X70588095Y-125383509D01*
X70588095Y-125383509D02*
X70492857Y-125431128D01*
X70492857Y-125431128D02*
X70111905Y-125431128D01*
X71016667Y-124907319D02*
X71635714Y-124907319D01*
X71635714Y-124907319D02*
X71302381Y-125288271D01*
X71302381Y-125288271D02*
X71445238Y-125288271D01*
X71445238Y-125288271D02*
X71540476Y-125335890D01*
X71540476Y-125335890D02*
X71588095Y-125383509D01*
X71588095Y-125383509D02*
X71635714Y-125478747D01*
X71635714Y-125478747D02*
X71635714Y-125716842D01*
X71635714Y-125716842D02*
X71588095Y-125812080D01*
X71588095Y-125812080D02*
X71540476Y-125859700D01*
X71540476Y-125859700D02*
X71445238Y-125907319D01*
X71445238Y-125907319D02*
X71159524Y-125907319D01*
X71159524Y-125907319D02*
X71064286Y-125859700D01*
X71064286Y-125859700D02*
X71016667Y-125812080D01*
X77084819Y-112164285D02*
X76084819Y-112164285D01*
X76084819Y-112164285D02*
X76084819Y-111926190D01*
X76084819Y-111926190D02*
X76132438Y-111783333D01*
X76132438Y-111783333D02*
X76227676Y-111688095D01*
X76227676Y-111688095D02*
X76322914Y-111640476D01*
X76322914Y-111640476D02*
X76513390Y-111592857D01*
X76513390Y-111592857D02*
X76656247Y-111592857D01*
X76656247Y-111592857D02*
X76846723Y-111640476D01*
X76846723Y-111640476D02*
X76941961Y-111688095D01*
X76941961Y-111688095D02*
X77037200Y-111783333D01*
X77037200Y-111783333D02*
X77084819Y-111926190D01*
X77084819Y-111926190D02*
X77084819Y-112164285D01*
X77084819Y-110640476D02*
X77084819Y-111211904D01*
X77084819Y-110926190D02*
X76084819Y-110926190D01*
X76084819Y-110926190D02*
X76227676Y-111021428D01*
X76227676Y-111021428D02*
X76322914Y-111116666D01*
X76322914Y-111116666D02*
X76370533Y-111211904D01*
X76084819Y-109735714D02*
X76084819Y-110211904D01*
X76084819Y-110211904D02*
X76561009Y-110259523D01*
X76561009Y-110259523D02*
X76513390Y-110211904D01*
X76513390Y-110211904D02*
X76465771Y-110116666D01*
X76465771Y-110116666D02*
X76465771Y-109878571D01*
X76465771Y-109878571D02*
X76513390Y-109783333D01*
X76513390Y-109783333D02*
X76561009Y-109735714D01*
X76561009Y-109735714D02*
X76656247Y-109688095D01*
X76656247Y-109688095D02*
X76894342Y-109688095D01*
X76894342Y-109688095D02*
X76989580Y-109735714D01*
X76989580Y-109735714D02*
X77037200Y-109783333D01*
X77037200Y-109783333D02*
X77084819Y-109878571D01*
X77084819Y-109878571D02*
X77084819Y-110116666D01*
X77084819Y-110116666D02*
X77037200Y-110211904D01*
X77037200Y-110211904D02*
X76989580Y-110259523D01*
X77454819Y-116291904D02*
X76454819Y-116291904D01*
X77454819Y-115720476D02*
X76883390Y-116149047D01*
X76454819Y-115720476D02*
X77026247Y-116291904D01*
X17238095Y-14127319D02*
X17238095Y-13127319D01*
X17238095Y-13603509D02*
X17809523Y-13603509D01*
X17809523Y-14127319D02*
X17809523Y-13127319D01*
X18809523Y-14127319D02*
X18238095Y-14127319D01*
X18523809Y-14127319D02*
X18523809Y-13127319D01*
X18523809Y-13127319D02*
X18428571Y-13270176D01*
X18428571Y-13270176D02*
X18333333Y-13365414D01*
X18333333Y-13365414D02*
X18238095Y-13413033D01*
X60707142Y-68084819D02*
X60373809Y-67608628D01*
X60135714Y-68084819D02*
X60135714Y-67084819D01*
X60135714Y-67084819D02*
X60516666Y-67084819D01*
X60516666Y-67084819D02*
X60611904Y-67132438D01*
X60611904Y-67132438D02*
X60659523Y-67180057D01*
X60659523Y-67180057D02*
X60707142Y-67275295D01*
X60707142Y-67275295D02*
X60707142Y-67418152D01*
X60707142Y-67418152D02*
X60659523Y-67513390D01*
X60659523Y-67513390D02*
X60611904Y-67561009D01*
X60611904Y-67561009D02*
X60516666Y-67608628D01*
X60516666Y-67608628D02*
X60135714Y-67608628D01*
X61088095Y-67180057D02*
X61135714Y-67132438D01*
X61135714Y-67132438D02*
X61230952Y-67084819D01*
X61230952Y-67084819D02*
X61469047Y-67084819D01*
X61469047Y-67084819D02*
X61564285Y-67132438D01*
X61564285Y-67132438D02*
X61611904Y-67180057D01*
X61611904Y-67180057D02*
X61659523Y-67275295D01*
X61659523Y-67275295D02*
X61659523Y-67370533D01*
X61659523Y-67370533D02*
X61611904Y-67513390D01*
X61611904Y-67513390D02*
X61040476Y-68084819D01*
X61040476Y-68084819D02*
X61659523Y-68084819D01*
X62611904Y-68084819D02*
X62040476Y-68084819D01*
X62326190Y-68084819D02*
X62326190Y-67084819D01*
X62326190Y-67084819D02*
X62230952Y-67227676D01*
X62230952Y-67227676D02*
X62135714Y-67322914D01*
X62135714Y-67322914D02*
X62040476Y-67370533D01*
X62704819Y-175210594D02*
X61704819Y-175210594D01*
X62704819Y-174639166D02*
X62133390Y-175067737D01*
X61704819Y-174639166D02*
X62276247Y-175210594D01*
X61704819Y-174305832D02*
X61704819Y-173686785D01*
X61704819Y-173686785D02*
X62085771Y-174020118D01*
X62085771Y-174020118D02*
X62085771Y-173877261D01*
X62085771Y-173877261D02*
X62133390Y-173782023D01*
X62133390Y-173782023D02*
X62181009Y-173734404D01*
X62181009Y-173734404D02*
X62276247Y-173686785D01*
X62276247Y-173686785D02*
X62514342Y-173686785D01*
X62514342Y-173686785D02*
X62609580Y-173734404D01*
X62609580Y-173734404D02*
X62657200Y-173782023D01*
X62657200Y-173782023D02*
X62704819Y-173877261D01*
X62704819Y-173877261D02*
X62704819Y-174162975D01*
X62704819Y-174162975D02*
X62657200Y-174258213D01*
X62657200Y-174258213D02*
X62609580Y-174305832D01*
X32004761Y-139422557D02*
X31909523Y-139374938D01*
X31909523Y-139374938D02*
X31814285Y-139279700D01*
X31814285Y-139279700D02*
X31671428Y-139136842D01*
X31671428Y-139136842D02*
X31576190Y-139089223D01*
X31576190Y-139089223D02*
X31480952Y-139089223D01*
X31528571Y-139327319D02*
X31433333Y-139279700D01*
X31433333Y-139279700D02*
X31338095Y-139184461D01*
X31338095Y-139184461D02*
X31290476Y-138993985D01*
X31290476Y-138993985D02*
X31290476Y-138660652D01*
X31290476Y-138660652D02*
X31338095Y-138470176D01*
X31338095Y-138470176D02*
X31433333Y-138374938D01*
X31433333Y-138374938D02*
X31528571Y-138327319D01*
X31528571Y-138327319D02*
X31719047Y-138327319D01*
X31719047Y-138327319D02*
X31814285Y-138374938D01*
X31814285Y-138374938D02*
X31909523Y-138470176D01*
X31909523Y-138470176D02*
X31957142Y-138660652D01*
X31957142Y-138660652D02*
X31957142Y-138993985D01*
X31957142Y-138993985D02*
X31909523Y-139184461D01*
X31909523Y-139184461D02*
X31814285Y-139279700D01*
X31814285Y-139279700D02*
X31719047Y-139327319D01*
X31719047Y-139327319D02*
X31528571Y-139327319D01*
X32909523Y-139327319D02*
X32338095Y-139327319D01*
X32623809Y-139327319D02*
X32623809Y-138327319D01*
X32623809Y-138327319D02*
X32528571Y-138470176D01*
X32528571Y-138470176D02*
X32433333Y-138565414D01*
X32433333Y-138565414D02*
X32338095Y-138613033D01*
X69815714Y-154557319D02*
X69815714Y-153557319D01*
X69815714Y-153557319D02*
X70053809Y-153557319D01*
X70053809Y-153557319D02*
X70196666Y-153604938D01*
X70196666Y-153604938D02*
X70291904Y-153700176D01*
X70291904Y-153700176D02*
X70339523Y-153795414D01*
X70339523Y-153795414D02*
X70387142Y-153985890D01*
X70387142Y-153985890D02*
X70387142Y-154128747D01*
X70387142Y-154128747D02*
X70339523Y-154319223D01*
X70339523Y-154319223D02*
X70291904Y-154414461D01*
X70291904Y-154414461D02*
X70196666Y-154509700D01*
X70196666Y-154509700D02*
X70053809Y-154557319D01*
X70053809Y-154557319D02*
X69815714Y-154557319D01*
X71339523Y-154557319D02*
X70768095Y-154557319D01*
X71053809Y-154557319D02*
X71053809Y-153557319D01*
X71053809Y-153557319D02*
X70958571Y-153700176D01*
X70958571Y-153700176D02*
X70863333Y-153795414D01*
X70863333Y-153795414D02*
X70768095Y-153843033D01*
X72291904Y-154557319D02*
X71720476Y-154557319D01*
X72006190Y-154557319D02*
X72006190Y-153557319D01*
X72006190Y-153557319D02*
X71910952Y-153700176D01*
X71910952Y-153700176D02*
X71815714Y-153795414D01*
X71815714Y-153795414D02*
X71720476Y-153843033D01*
X65688095Y-154927319D02*
X65688095Y-153927319D01*
X66259523Y-154927319D02*
X65830952Y-154355890D01*
X66259523Y-153927319D02*
X65688095Y-154498747D01*
X45984819Y-112416666D02*
X45508628Y-112749999D01*
X45984819Y-112988094D02*
X44984819Y-112988094D01*
X44984819Y-112988094D02*
X44984819Y-112607142D01*
X44984819Y-112607142D02*
X45032438Y-112511904D01*
X45032438Y-112511904D02*
X45080057Y-112464285D01*
X45080057Y-112464285D02*
X45175295Y-112416666D01*
X45175295Y-112416666D02*
X45318152Y-112416666D01*
X45318152Y-112416666D02*
X45413390Y-112464285D01*
X45413390Y-112464285D02*
X45461009Y-112511904D01*
X45461009Y-112511904D02*
X45508628Y-112607142D01*
X45508628Y-112607142D02*
X45508628Y-112988094D01*
X45413390Y-111845237D02*
X45365771Y-111940475D01*
X45365771Y-111940475D02*
X45318152Y-111988094D01*
X45318152Y-111988094D02*
X45222914Y-112035713D01*
X45222914Y-112035713D02*
X45175295Y-112035713D01*
X45175295Y-112035713D02*
X45080057Y-111988094D01*
X45080057Y-111988094D02*
X45032438Y-111940475D01*
X45032438Y-111940475D02*
X44984819Y-111845237D01*
X44984819Y-111845237D02*
X44984819Y-111654761D01*
X44984819Y-111654761D02*
X45032438Y-111559523D01*
X45032438Y-111559523D02*
X45080057Y-111511904D01*
X45080057Y-111511904D02*
X45175295Y-111464285D01*
X45175295Y-111464285D02*
X45222914Y-111464285D01*
X45222914Y-111464285D02*
X45318152Y-111511904D01*
X45318152Y-111511904D02*
X45365771Y-111559523D01*
X45365771Y-111559523D02*
X45413390Y-111654761D01*
X45413390Y-111654761D02*
X45413390Y-111845237D01*
X45413390Y-111845237D02*
X45461009Y-111940475D01*
X45461009Y-111940475D02*
X45508628Y-111988094D01*
X45508628Y-111988094D02*
X45603866Y-112035713D01*
X45603866Y-112035713D02*
X45794342Y-112035713D01*
X45794342Y-112035713D02*
X45889580Y-111988094D01*
X45889580Y-111988094D02*
X45937200Y-111940475D01*
X45937200Y-111940475D02*
X45984819Y-111845237D01*
X45984819Y-111845237D02*
X45984819Y-111654761D01*
X45984819Y-111654761D02*
X45937200Y-111559523D01*
X45937200Y-111559523D02*
X45889580Y-111511904D01*
X45889580Y-111511904D02*
X45794342Y-111464285D01*
X45794342Y-111464285D02*
X45603866Y-111464285D01*
X45603866Y-111464285D02*
X45508628Y-111511904D01*
X45508628Y-111511904D02*
X45461009Y-111559523D01*
X45461009Y-111559523D02*
X45413390Y-111654761D01*
X95711905Y-119854819D02*
X95711905Y-118854819D01*
X96283333Y-119854819D02*
X95854762Y-119283390D01*
X96283333Y-118854819D02*
X95711905Y-119426247D01*
X96854762Y-119283390D02*
X96759524Y-119235771D01*
X96759524Y-119235771D02*
X96711905Y-119188152D01*
X96711905Y-119188152D02*
X96664286Y-119092914D01*
X96664286Y-119092914D02*
X96664286Y-119045295D01*
X96664286Y-119045295D02*
X96711905Y-118950057D01*
X96711905Y-118950057D02*
X96759524Y-118902438D01*
X96759524Y-118902438D02*
X96854762Y-118854819D01*
X96854762Y-118854819D02*
X97045238Y-118854819D01*
X97045238Y-118854819D02*
X97140476Y-118902438D01*
X97140476Y-118902438D02*
X97188095Y-118950057D01*
X97188095Y-118950057D02*
X97235714Y-119045295D01*
X97235714Y-119045295D02*
X97235714Y-119092914D01*
X97235714Y-119092914D02*
X97188095Y-119188152D01*
X97188095Y-119188152D02*
X97140476Y-119235771D01*
X97140476Y-119235771D02*
X97045238Y-119283390D01*
X97045238Y-119283390D02*
X96854762Y-119283390D01*
X96854762Y-119283390D02*
X96759524Y-119331009D01*
X96759524Y-119331009D02*
X96711905Y-119378628D01*
X96711905Y-119378628D02*
X96664286Y-119473866D01*
X96664286Y-119473866D02*
X96664286Y-119664342D01*
X96664286Y-119664342D02*
X96711905Y-119759580D01*
X96711905Y-119759580D02*
X96759524Y-119807200D01*
X96759524Y-119807200D02*
X96854762Y-119854819D01*
X96854762Y-119854819D02*
X97045238Y-119854819D01*
X97045238Y-119854819D02*
X97140476Y-119807200D01*
X97140476Y-119807200D02*
X97188095Y-119759580D01*
X97188095Y-119759580D02*
X97235714Y-119664342D01*
X97235714Y-119664342D02*
X97235714Y-119473866D01*
X97235714Y-119473866D02*
X97188095Y-119378628D01*
X97188095Y-119378628D02*
X97140476Y-119331009D01*
X97140476Y-119331009D02*
X97045238Y-119283390D01*
X91153333Y-125557319D02*
X90820000Y-125081128D01*
X90581905Y-125557319D02*
X90581905Y-124557319D01*
X90581905Y-124557319D02*
X90962857Y-124557319D01*
X90962857Y-124557319D02*
X91058095Y-124604938D01*
X91058095Y-124604938D02*
X91105714Y-124652557D01*
X91105714Y-124652557D02*
X91153333Y-124747795D01*
X91153333Y-124747795D02*
X91153333Y-124890652D01*
X91153333Y-124890652D02*
X91105714Y-124985890D01*
X91105714Y-124985890D02*
X91058095Y-125033509D01*
X91058095Y-125033509D02*
X90962857Y-125081128D01*
X90962857Y-125081128D02*
X90581905Y-125081128D01*
X92010476Y-124890652D02*
X92010476Y-125557319D01*
X91772381Y-124509700D02*
X91534286Y-125223985D01*
X91534286Y-125223985D02*
X92153333Y-125223985D01*
X62290057Y-109795238D02*
X62242438Y-109890476D01*
X62242438Y-109890476D02*
X62147200Y-109985714D01*
X62147200Y-109985714D02*
X62004342Y-110128571D01*
X62004342Y-110128571D02*
X61956723Y-110223809D01*
X61956723Y-110223809D02*
X61956723Y-110319047D01*
X62194819Y-110271428D02*
X62147200Y-110366666D01*
X62147200Y-110366666D02*
X62051961Y-110461904D01*
X62051961Y-110461904D02*
X61861485Y-110509523D01*
X61861485Y-110509523D02*
X61528152Y-110509523D01*
X61528152Y-110509523D02*
X61337676Y-110461904D01*
X61337676Y-110461904D02*
X61242438Y-110366666D01*
X61242438Y-110366666D02*
X61194819Y-110271428D01*
X61194819Y-110271428D02*
X61194819Y-110080952D01*
X61194819Y-110080952D02*
X61242438Y-109985714D01*
X61242438Y-109985714D02*
X61337676Y-109890476D01*
X61337676Y-109890476D02*
X61528152Y-109842857D01*
X61528152Y-109842857D02*
X61861485Y-109842857D01*
X61861485Y-109842857D02*
X62051961Y-109890476D01*
X62051961Y-109890476D02*
X62147200Y-109985714D01*
X62147200Y-109985714D02*
X62194819Y-110080952D01*
X62194819Y-110080952D02*
X62194819Y-110271428D01*
X61623390Y-109271428D02*
X61575771Y-109366666D01*
X61575771Y-109366666D02*
X61528152Y-109414285D01*
X61528152Y-109414285D02*
X61432914Y-109461904D01*
X61432914Y-109461904D02*
X61385295Y-109461904D01*
X61385295Y-109461904D02*
X61290057Y-109414285D01*
X61290057Y-109414285D02*
X61242438Y-109366666D01*
X61242438Y-109366666D02*
X61194819Y-109271428D01*
X61194819Y-109271428D02*
X61194819Y-109080952D01*
X61194819Y-109080952D02*
X61242438Y-108985714D01*
X61242438Y-108985714D02*
X61290057Y-108938095D01*
X61290057Y-108938095D02*
X61385295Y-108890476D01*
X61385295Y-108890476D02*
X61432914Y-108890476D01*
X61432914Y-108890476D02*
X61528152Y-108938095D01*
X61528152Y-108938095D02*
X61575771Y-108985714D01*
X61575771Y-108985714D02*
X61623390Y-109080952D01*
X61623390Y-109080952D02*
X61623390Y-109271428D01*
X61623390Y-109271428D02*
X61671009Y-109366666D01*
X61671009Y-109366666D02*
X61718628Y-109414285D01*
X61718628Y-109414285D02*
X61813866Y-109461904D01*
X61813866Y-109461904D02*
X62004342Y-109461904D01*
X62004342Y-109461904D02*
X62099580Y-109414285D01*
X62099580Y-109414285D02*
X62147200Y-109366666D01*
X62147200Y-109366666D02*
X62194819Y-109271428D01*
X62194819Y-109271428D02*
X62194819Y-109080952D01*
X62194819Y-109080952D02*
X62147200Y-108985714D01*
X62147200Y-108985714D02*
X62099580Y-108938095D01*
X62099580Y-108938095D02*
X62004342Y-108890476D01*
X62004342Y-108890476D02*
X61813866Y-108890476D01*
X61813866Y-108890476D02*
X61718628Y-108938095D01*
X61718628Y-108938095D02*
X61671009Y-108985714D01*
X61671009Y-108985714D02*
X61623390Y-109080952D01*
X16988095Y-188204819D02*
X16988095Y-187204819D01*
X16988095Y-187681009D02*
X17559523Y-187681009D01*
X17559523Y-188204819D02*
X17559523Y-187204819D01*
X17940476Y-187204819D02*
X18559523Y-187204819D01*
X18559523Y-187204819D02*
X18226190Y-187585771D01*
X18226190Y-187585771D02*
X18369047Y-187585771D01*
X18369047Y-187585771D02*
X18464285Y-187633390D01*
X18464285Y-187633390D02*
X18511904Y-187681009D01*
X18511904Y-187681009D02*
X18559523Y-187776247D01*
X18559523Y-187776247D02*
X18559523Y-188014342D01*
X18559523Y-188014342D02*
X18511904Y-188109580D01*
X18511904Y-188109580D02*
X18464285Y-188157200D01*
X18464285Y-188157200D02*
X18369047Y-188204819D01*
X18369047Y-188204819D02*
X18083333Y-188204819D01*
X18083333Y-188204819D02*
X17988095Y-188157200D01*
X17988095Y-188157200D02*
X17940476Y-188109580D01*
X89995714Y-154607319D02*
X89995714Y-153607319D01*
X89995714Y-153607319D02*
X90233809Y-153607319D01*
X90233809Y-153607319D02*
X90376666Y-153654938D01*
X90376666Y-153654938D02*
X90471904Y-153750176D01*
X90471904Y-153750176D02*
X90519523Y-153845414D01*
X90519523Y-153845414D02*
X90567142Y-154035890D01*
X90567142Y-154035890D02*
X90567142Y-154178747D01*
X90567142Y-154178747D02*
X90519523Y-154369223D01*
X90519523Y-154369223D02*
X90471904Y-154464461D01*
X90471904Y-154464461D02*
X90376666Y-154559700D01*
X90376666Y-154559700D02*
X90233809Y-154607319D01*
X90233809Y-154607319D02*
X89995714Y-154607319D01*
X91519523Y-154607319D02*
X90948095Y-154607319D01*
X91233809Y-154607319D02*
X91233809Y-153607319D01*
X91233809Y-153607319D02*
X91138571Y-153750176D01*
X91138571Y-153750176D02*
X91043333Y-153845414D01*
X91043333Y-153845414D02*
X90948095Y-153893033D01*
X91900476Y-153702557D02*
X91948095Y-153654938D01*
X91948095Y-153654938D02*
X92043333Y-153607319D01*
X92043333Y-153607319D02*
X92281428Y-153607319D01*
X92281428Y-153607319D02*
X92376666Y-153654938D01*
X92376666Y-153654938D02*
X92424285Y-153702557D01*
X92424285Y-153702557D02*
X92471904Y-153797795D01*
X92471904Y-153797795D02*
X92471904Y-153893033D01*
X92471904Y-153893033D02*
X92424285Y-154035890D01*
X92424285Y-154035890D02*
X91852857Y-154607319D01*
X91852857Y-154607319D02*
X92471904Y-154607319D01*
X85868095Y-154977319D02*
X85868095Y-153977319D01*
X86439523Y-154977319D02*
X86010952Y-154405890D01*
X86439523Y-153977319D02*
X85868095Y-154548747D01*
X90088214Y-12827319D02*
X90088214Y-11827319D01*
X90088214Y-11827319D02*
X90469166Y-11827319D01*
X90469166Y-11827319D02*
X90564404Y-11874938D01*
X90564404Y-11874938D02*
X90612023Y-11922557D01*
X90612023Y-11922557D02*
X90659642Y-12017795D01*
X90659642Y-12017795D02*
X90659642Y-12160652D01*
X90659642Y-12160652D02*
X90612023Y-12255890D01*
X90612023Y-12255890D02*
X90564404Y-12303509D01*
X90564404Y-12303509D02*
X90469166Y-12351128D01*
X90469166Y-12351128D02*
X90088214Y-12351128D01*
X91040595Y-12779700D02*
X91183452Y-12827319D01*
X91183452Y-12827319D02*
X91421547Y-12827319D01*
X91421547Y-12827319D02*
X91516785Y-12779700D01*
X91516785Y-12779700D02*
X91564404Y-12732080D01*
X91564404Y-12732080D02*
X91612023Y-12636842D01*
X91612023Y-12636842D02*
X91612023Y-12541604D01*
X91612023Y-12541604D02*
X91564404Y-12446366D01*
X91564404Y-12446366D02*
X91516785Y-12398747D01*
X91516785Y-12398747D02*
X91421547Y-12351128D01*
X91421547Y-12351128D02*
X91231071Y-12303509D01*
X91231071Y-12303509D02*
X91135833Y-12255890D01*
X91135833Y-12255890D02*
X91088214Y-12208271D01*
X91088214Y-12208271D02*
X91040595Y-12113033D01*
X91040595Y-12113033D02*
X91040595Y-12017795D01*
X91040595Y-12017795D02*
X91088214Y-11922557D01*
X91088214Y-11922557D02*
X91135833Y-11874938D01*
X91135833Y-11874938D02*
X91231071Y-11827319D01*
X91231071Y-11827319D02*
X91469166Y-11827319D01*
X91469166Y-11827319D02*
X91612023Y-11874938D01*
X92564404Y-12827319D02*
X91992976Y-12827319D01*
X92278690Y-12827319D02*
X92278690Y-11827319D01*
X92278690Y-11827319D02*
X92183452Y-11970176D01*
X92183452Y-11970176D02*
X92088214Y-12065414D01*
X92088214Y-12065414D02*
X91992976Y-12113033D01*
X82404819Y-175260594D02*
X81404819Y-175260594D01*
X82404819Y-174689166D02*
X81833390Y-175117737D01*
X81404819Y-174689166D02*
X81976247Y-175260594D01*
X81738152Y-173832023D02*
X82404819Y-173832023D01*
X81357200Y-174070118D02*
X82071485Y-174308213D01*
X82071485Y-174308213D02*
X82071485Y-173689166D01*
X60687142Y-102084819D02*
X60353809Y-101608628D01*
X60115714Y-102084819D02*
X60115714Y-101084819D01*
X60115714Y-101084819D02*
X60496666Y-101084819D01*
X60496666Y-101084819D02*
X60591904Y-101132438D01*
X60591904Y-101132438D02*
X60639523Y-101180057D01*
X60639523Y-101180057D02*
X60687142Y-101275295D01*
X60687142Y-101275295D02*
X60687142Y-101418152D01*
X60687142Y-101418152D02*
X60639523Y-101513390D01*
X60639523Y-101513390D02*
X60591904Y-101561009D01*
X60591904Y-101561009D02*
X60496666Y-101608628D01*
X60496666Y-101608628D02*
X60115714Y-101608628D01*
X61068095Y-101180057D02*
X61115714Y-101132438D01*
X61115714Y-101132438D02*
X61210952Y-101084819D01*
X61210952Y-101084819D02*
X61449047Y-101084819D01*
X61449047Y-101084819D02*
X61544285Y-101132438D01*
X61544285Y-101132438D02*
X61591904Y-101180057D01*
X61591904Y-101180057D02*
X61639523Y-101275295D01*
X61639523Y-101275295D02*
X61639523Y-101370533D01*
X61639523Y-101370533D02*
X61591904Y-101513390D01*
X61591904Y-101513390D02*
X61020476Y-102084819D01*
X61020476Y-102084819D02*
X61639523Y-102084819D01*
X61972857Y-101084819D02*
X62591904Y-101084819D01*
X62591904Y-101084819D02*
X62258571Y-101465771D01*
X62258571Y-101465771D02*
X62401428Y-101465771D01*
X62401428Y-101465771D02*
X62496666Y-101513390D01*
X62496666Y-101513390D02*
X62544285Y-101561009D01*
X62544285Y-101561009D02*
X62591904Y-101656247D01*
X62591904Y-101656247D02*
X62591904Y-101894342D01*
X62591904Y-101894342D02*
X62544285Y-101989580D01*
X62544285Y-101989580D02*
X62496666Y-102037200D01*
X62496666Y-102037200D02*
X62401428Y-102084819D01*
X62401428Y-102084819D02*
X62115714Y-102084819D01*
X62115714Y-102084819D02*
X62020476Y-102037200D01*
X62020476Y-102037200D02*
X61972857Y-101989580D01*
X107087142Y-47034819D02*
X106753809Y-46558628D01*
X106515714Y-47034819D02*
X106515714Y-46034819D01*
X106515714Y-46034819D02*
X106896666Y-46034819D01*
X106896666Y-46034819D02*
X106991904Y-46082438D01*
X106991904Y-46082438D02*
X107039523Y-46130057D01*
X107039523Y-46130057D02*
X107087142Y-46225295D01*
X107087142Y-46225295D02*
X107087142Y-46368152D01*
X107087142Y-46368152D02*
X107039523Y-46463390D01*
X107039523Y-46463390D02*
X106991904Y-46511009D01*
X106991904Y-46511009D02*
X106896666Y-46558628D01*
X106896666Y-46558628D02*
X106515714Y-46558628D01*
X107468095Y-46130057D02*
X107515714Y-46082438D01*
X107515714Y-46082438D02*
X107610952Y-46034819D01*
X107610952Y-46034819D02*
X107849047Y-46034819D01*
X107849047Y-46034819D02*
X107944285Y-46082438D01*
X107944285Y-46082438D02*
X107991904Y-46130057D01*
X107991904Y-46130057D02*
X108039523Y-46225295D01*
X108039523Y-46225295D02*
X108039523Y-46320533D01*
X108039523Y-46320533D02*
X107991904Y-46463390D01*
X107991904Y-46463390D02*
X107420476Y-47034819D01*
X107420476Y-47034819D02*
X108039523Y-47034819D01*
X108896666Y-46034819D02*
X108706190Y-46034819D01*
X108706190Y-46034819D02*
X108610952Y-46082438D01*
X108610952Y-46082438D02*
X108563333Y-46130057D01*
X108563333Y-46130057D02*
X108468095Y-46272914D01*
X108468095Y-46272914D02*
X108420476Y-46463390D01*
X108420476Y-46463390D02*
X108420476Y-46844342D01*
X108420476Y-46844342D02*
X108468095Y-46939580D01*
X108468095Y-46939580D02*
X108515714Y-46987200D01*
X108515714Y-46987200D02*
X108610952Y-47034819D01*
X108610952Y-47034819D02*
X108801428Y-47034819D01*
X108801428Y-47034819D02*
X108896666Y-46987200D01*
X108896666Y-46987200D02*
X108944285Y-46939580D01*
X108944285Y-46939580D02*
X108991904Y-46844342D01*
X108991904Y-46844342D02*
X108991904Y-46606247D01*
X108991904Y-46606247D02*
X108944285Y-46511009D01*
X108944285Y-46511009D02*
X108896666Y-46463390D01*
X108896666Y-46463390D02*
X108801428Y-46415771D01*
X108801428Y-46415771D02*
X108610952Y-46415771D01*
X108610952Y-46415771D02*
X108515714Y-46463390D01*
X108515714Y-46463390D02*
X108468095Y-46511009D01*
X108468095Y-46511009D02*
X108420476Y-46606247D01*
X66937142Y-113584819D02*
X66603809Y-113108628D01*
X66365714Y-113584819D02*
X66365714Y-112584819D01*
X66365714Y-112584819D02*
X66746666Y-112584819D01*
X66746666Y-112584819D02*
X66841904Y-112632438D01*
X66841904Y-112632438D02*
X66889523Y-112680057D01*
X66889523Y-112680057D02*
X66937142Y-112775295D01*
X66937142Y-112775295D02*
X66937142Y-112918152D01*
X66937142Y-112918152D02*
X66889523Y-113013390D01*
X66889523Y-113013390D02*
X66841904Y-113061009D01*
X66841904Y-113061009D02*
X66746666Y-113108628D01*
X66746666Y-113108628D02*
X66365714Y-113108628D01*
X67889523Y-113584819D02*
X67318095Y-113584819D01*
X67603809Y-113584819D02*
X67603809Y-112584819D01*
X67603809Y-112584819D02*
X67508571Y-112727676D01*
X67508571Y-112727676D02*
X67413333Y-112822914D01*
X67413333Y-112822914D02*
X67318095Y-112870533D01*
X68746666Y-112584819D02*
X68556190Y-112584819D01*
X68556190Y-112584819D02*
X68460952Y-112632438D01*
X68460952Y-112632438D02*
X68413333Y-112680057D01*
X68413333Y-112680057D02*
X68318095Y-112822914D01*
X68318095Y-112822914D02*
X68270476Y-113013390D01*
X68270476Y-113013390D02*
X68270476Y-113394342D01*
X68270476Y-113394342D02*
X68318095Y-113489580D01*
X68318095Y-113489580D02*
X68365714Y-113537200D01*
X68365714Y-113537200D02*
X68460952Y-113584819D01*
X68460952Y-113584819D02*
X68651428Y-113584819D01*
X68651428Y-113584819D02*
X68746666Y-113537200D01*
X68746666Y-113537200D02*
X68794285Y-113489580D01*
X68794285Y-113489580D02*
X68841904Y-113394342D01*
X68841904Y-113394342D02*
X68841904Y-113156247D01*
X68841904Y-113156247D02*
X68794285Y-113061009D01*
X68794285Y-113061009D02*
X68746666Y-113013390D01*
X68746666Y-113013390D02*
X68651428Y-112965771D01*
X68651428Y-112965771D02*
X68460952Y-112965771D01*
X68460952Y-112965771D02*
X68365714Y-113013390D01*
X68365714Y-113013390D02*
X68318095Y-113061009D01*
X68318095Y-113061009D02*
X68270476Y-113156247D01*
X127931009Y-106833333D02*
X127931009Y-107166666D01*
X128454819Y-107166666D02*
X127454819Y-107166666D01*
X127454819Y-107166666D02*
X127454819Y-106690476D01*
X127550057Y-106357142D02*
X127502438Y-106309523D01*
X127502438Y-106309523D02*
X127454819Y-106214285D01*
X127454819Y-106214285D02*
X127454819Y-105976190D01*
X127454819Y-105976190D02*
X127502438Y-105880952D01*
X127502438Y-105880952D02*
X127550057Y-105833333D01*
X127550057Y-105833333D02*
X127645295Y-105785714D01*
X127645295Y-105785714D02*
X127740533Y-105785714D01*
X127740533Y-105785714D02*
X127883390Y-105833333D01*
X127883390Y-105833333D02*
X128454819Y-106404761D01*
X128454819Y-106404761D02*
X128454819Y-105785714D01*
X60737142Y-84434819D02*
X60403809Y-83958628D01*
X60165714Y-84434819D02*
X60165714Y-83434819D01*
X60165714Y-83434819D02*
X60546666Y-83434819D01*
X60546666Y-83434819D02*
X60641904Y-83482438D01*
X60641904Y-83482438D02*
X60689523Y-83530057D01*
X60689523Y-83530057D02*
X60737142Y-83625295D01*
X60737142Y-83625295D02*
X60737142Y-83768152D01*
X60737142Y-83768152D02*
X60689523Y-83863390D01*
X60689523Y-83863390D02*
X60641904Y-83911009D01*
X60641904Y-83911009D02*
X60546666Y-83958628D01*
X60546666Y-83958628D02*
X60165714Y-83958628D01*
X61118095Y-83530057D02*
X61165714Y-83482438D01*
X61165714Y-83482438D02*
X61260952Y-83434819D01*
X61260952Y-83434819D02*
X61499047Y-83434819D01*
X61499047Y-83434819D02*
X61594285Y-83482438D01*
X61594285Y-83482438D02*
X61641904Y-83530057D01*
X61641904Y-83530057D02*
X61689523Y-83625295D01*
X61689523Y-83625295D02*
X61689523Y-83720533D01*
X61689523Y-83720533D02*
X61641904Y-83863390D01*
X61641904Y-83863390D02*
X61070476Y-84434819D01*
X61070476Y-84434819D02*
X61689523Y-84434819D01*
X62070476Y-83530057D02*
X62118095Y-83482438D01*
X62118095Y-83482438D02*
X62213333Y-83434819D01*
X62213333Y-83434819D02*
X62451428Y-83434819D01*
X62451428Y-83434819D02*
X62546666Y-83482438D01*
X62546666Y-83482438D02*
X62594285Y-83530057D01*
X62594285Y-83530057D02*
X62641904Y-83625295D01*
X62641904Y-83625295D02*
X62641904Y-83720533D01*
X62641904Y-83720533D02*
X62594285Y-83863390D01*
X62594285Y-83863390D02*
X62022857Y-84434819D01*
X62022857Y-84434819D02*
X62641904Y-84434819D01*
X18234819Y-70714285D02*
X17234819Y-70714285D01*
X17234819Y-70714285D02*
X17234819Y-70476190D01*
X17234819Y-70476190D02*
X17282438Y-70333333D01*
X17282438Y-70333333D02*
X17377676Y-70238095D01*
X17377676Y-70238095D02*
X17472914Y-70190476D01*
X17472914Y-70190476D02*
X17663390Y-70142857D01*
X17663390Y-70142857D02*
X17806247Y-70142857D01*
X17806247Y-70142857D02*
X17996723Y-70190476D01*
X17996723Y-70190476D02*
X18091961Y-70238095D01*
X18091961Y-70238095D02*
X18187200Y-70333333D01*
X18187200Y-70333333D02*
X18234819Y-70476190D01*
X18234819Y-70476190D02*
X18234819Y-70714285D01*
X18234819Y-69190476D02*
X18234819Y-69761904D01*
X18234819Y-69476190D02*
X17234819Y-69476190D01*
X17234819Y-69476190D02*
X17377676Y-69571428D01*
X17377676Y-69571428D02*
X17472914Y-69666666D01*
X17472914Y-69666666D02*
X17520533Y-69761904D01*
X17234819Y-68857142D02*
X17234819Y-68190476D01*
X17234819Y-68190476D02*
X18234819Y-68619047D01*
X18604819Y-74841904D02*
X17604819Y-74841904D01*
X18604819Y-74270476D02*
X18033390Y-74699047D01*
X17604819Y-74270476D02*
X18176247Y-74841904D01*
X109483333Y-126007319D02*
X109150000Y-125531128D01*
X108911905Y-126007319D02*
X108911905Y-125007319D01*
X108911905Y-125007319D02*
X109292857Y-125007319D01*
X109292857Y-125007319D02*
X109388095Y-125054938D01*
X109388095Y-125054938D02*
X109435714Y-125102557D01*
X109435714Y-125102557D02*
X109483333Y-125197795D01*
X109483333Y-125197795D02*
X109483333Y-125340652D01*
X109483333Y-125340652D02*
X109435714Y-125435890D01*
X109435714Y-125435890D02*
X109388095Y-125483509D01*
X109388095Y-125483509D02*
X109292857Y-125531128D01*
X109292857Y-125531128D02*
X108911905Y-125531128D01*
X110388095Y-125007319D02*
X109911905Y-125007319D01*
X109911905Y-125007319D02*
X109864286Y-125483509D01*
X109864286Y-125483509D02*
X109911905Y-125435890D01*
X109911905Y-125435890D02*
X110007143Y-125388271D01*
X110007143Y-125388271D02*
X110245238Y-125388271D01*
X110245238Y-125388271D02*
X110340476Y-125435890D01*
X110340476Y-125435890D02*
X110388095Y-125483509D01*
X110388095Y-125483509D02*
X110435714Y-125578747D01*
X110435714Y-125578747D02*
X110435714Y-125816842D01*
X110435714Y-125816842D02*
X110388095Y-125912080D01*
X110388095Y-125912080D02*
X110340476Y-125959700D01*
X110340476Y-125959700D02*
X110245238Y-126007319D01*
X110245238Y-126007319D02*
X110007143Y-126007319D01*
X110007143Y-126007319D02*
X109911905Y-125959700D01*
X109911905Y-125959700D02*
X109864286Y-125912080D01*
X68884819Y-108051904D02*
X69694342Y-108051904D01*
X69694342Y-108051904D02*
X69789580Y-108004285D01*
X69789580Y-108004285D02*
X69837200Y-107956666D01*
X69837200Y-107956666D02*
X69884819Y-107861428D01*
X69884819Y-107861428D02*
X69884819Y-107670952D01*
X69884819Y-107670952D02*
X69837200Y-107575714D01*
X69837200Y-107575714D02*
X69789580Y-107528095D01*
X69789580Y-107528095D02*
X69694342Y-107480476D01*
X69694342Y-107480476D02*
X68884819Y-107480476D01*
X69313390Y-106861428D02*
X69265771Y-106956666D01*
X69265771Y-106956666D02*
X69218152Y-107004285D01*
X69218152Y-107004285D02*
X69122914Y-107051904D01*
X69122914Y-107051904D02*
X69075295Y-107051904D01*
X69075295Y-107051904D02*
X68980057Y-107004285D01*
X68980057Y-107004285D02*
X68932438Y-106956666D01*
X68932438Y-106956666D02*
X68884819Y-106861428D01*
X68884819Y-106861428D02*
X68884819Y-106670952D01*
X68884819Y-106670952D02*
X68932438Y-106575714D01*
X68932438Y-106575714D02*
X68980057Y-106528095D01*
X68980057Y-106528095D02*
X69075295Y-106480476D01*
X69075295Y-106480476D02*
X69122914Y-106480476D01*
X69122914Y-106480476D02*
X69218152Y-106528095D01*
X69218152Y-106528095D02*
X69265771Y-106575714D01*
X69265771Y-106575714D02*
X69313390Y-106670952D01*
X69313390Y-106670952D02*
X69313390Y-106861428D01*
X69313390Y-106861428D02*
X69361009Y-106956666D01*
X69361009Y-106956666D02*
X69408628Y-107004285D01*
X69408628Y-107004285D02*
X69503866Y-107051904D01*
X69503866Y-107051904D02*
X69694342Y-107051904D01*
X69694342Y-107051904D02*
X69789580Y-107004285D01*
X69789580Y-107004285D02*
X69837200Y-106956666D01*
X69837200Y-106956666D02*
X69884819Y-106861428D01*
X69884819Y-106861428D02*
X69884819Y-106670952D01*
X69884819Y-106670952D02*
X69837200Y-106575714D01*
X69837200Y-106575714D02*
X69789580Y-106528095D01*
X69789580Y-106528095D02*
X69694342Y-106480476D01*
X69694342Y-106480476D02*
X69503866Y-106480476D01*
X69503866Y-106480476D02*
X69408628Y-106528095D01*
X69408628Y-106528095D02*
X69361009Y-106575714D01*
X69361009Y-106575714D02*
X69313390Y-106670952D01*
X34043095Y-146272319D02*
X34043095Y-147081842D01*
X34043095Y-147081842D02*
X34090714Y-147177080D01*
X34090714Y-147177080D02*
X34138333Y-147224700D01*
X34138333Y-147224700D02*
X34233571Y-147272319D01*
X34233571Y-147272319D02*
X34424047Y-147272319D01*
X34424047Y-147272319D02*
X34519285Y-147224700D01*
X34519285Y-147224700D02*
X34566904Y-147177080D01*
X34566904Y-147177080D02*
X34614523Y-147081842D01*
X34614523Y-147081842D02*
X34614523Y-146272319D01*
X35614523Y-147272319D02*
X35043095Y-147272319D01*
X35328809Y-147272319D02*
X35328809Y-146272319D01*
X35328809Y-146272319D02*
X35233571Y-146415176D01*
X35233571Y-146415176D02*
X35138333Y-146510414D01*
X35138333Y-146510414D02*
X35043095Y-146558033D01*
X110316666Y-186927319D02*
X110316666Y-187641604D01*
X110316666Y-187641604D02*
X110269047Y-187784461D01*
X110269047Y-187784461D02*
X110173809Y-187879700D01*
X110173809Y-187879700D02*
X110030952Y-187927319D01*
X110030952Y-187927319D02*
X109935714Y-187927319D01*
X110935714Y-187355890D02*
X110840476Y-187308271D01*
X110840476Y-187308271D02*
X110792857Y-187260652D01*
X110792857Y-187260652D02*
X110745238Y-187165414D01*
X110745238Y-187165414D02*
X110745238Y-187117795D01*
X110745238Y-187117795D02*
X110792857Y-187022557D01*
X110792857Y-187022557D02*
X110840476Y-186974938D01*
X110840476Y-186974938D02*
X110935714Y-186927319D01*
X110935714Y-186927319D02*
X111126190Y-186927319D01*
X111126190Y-186927319D02*
X111221428Y-186974938D01*
X111221428Y-186974938D02*
X111269047Y-187022557D01*
X111269047Y-187022557D02*
X111316666Y-187117795D01*
X111316666Y-187117795D02*
X111316666Y-187165414D01*
X111316666Y-187165414D02*
X111269047Y-187260652D01*
X111269047Y-187260652D02*
X111221428Y-187308271D01*
X111221428Y-187308271D02*
X111126190Y-187355890D01*
X111126190Y-187355890D02*
X110935714Y-187355890D01*
X110935714Y-187355890D02*
X110840476Y-187403509D01*
X110840476Y-187403509D02*
X110792857Y-187451128D01*
X110792857Y-187451128D02*
X110745238Y-187546366D01*
X110745238Y-187546366D02*
X110745238Y-187736842D01*
X110745238Y-187736842D02*
X110792857Y-187832080D01*
X110792857Y-187832080D02*
X110840476Y-187879700D01*
X110840476Y-187879700D02*
X110935714Y-187927319D01*
X110935714Y-187927319D02*
X111126190Y-187927319D01*
X111126190Y-187927319D02*
X111221428Y-187879700D01*
X111221428Y-187879700D02*
X111269047Y-187832080D01*
X111269047Y-187832080D02*
X111316666Y-187736842D01*
X111316666Y-187736842D02*
X111316666Y-187546366D01*
X111316666Y-187546366D02*
X111269047Y-187451128D01*
X111269047Y-187451128D02*
X111221428Y-187403509D01*
X111221428Y-187403509D02*
X111126190Y-187355890D01*
X20527319Y-29578333D02*
X21241604Y-29578333D01*
X21241604Y-29578333D02*
X21384461Y-29625952D01*
X21384461Y-29625952D02*
X21479700Y-29721190D01*
X21479700Y-29721190D02*
X21527319Y-29864047D01*
X21527319Y-29864047D02*
X21527319Y-29959285D01*
X20527319Y-29197380D02*
X20527319Y-28578333D01*
X20527319Y-28578333D02*
X20908271Y-28911666D01*
X20908271Y-28911666D02*
X20908271Y-28768809D01*
X20908271Y-28768809D02*
X20955890Y-28673571D01*
X20955890Y-28673571D02*
X21003509Y-28625952D01*
X21003509Y-28625952D02*
X21098747Y-28578333D01*
X21098747Y-28578333D02*
X21336842Y-28578333D01*
X21336842Y-28578333D02*
X21432080Y-28625952D01*
X21432080Y-28625952D02*
X21479700Y-28673571D01*
X21479700Y-28673571D02*
X21527319Y-28768809D01*
X21527319Y-28768809D02*
X21527319Y-29054523D01*
X21527319Y-29054523D02*
X21479700Y-29149761D01*
X21479700Y-29149761D02*
X21432080Y-29197380D01*
X110834761Y-139962557D02*
X110739523Y-139914938D01*
X110739523Y-139914938D02*
X110644285Y-139819700D01*
X110644285Y-139819700D02*
X110501428Y-139676842D01*
X110501428Y-139676842D02*
X110406190Y-139629223D01*
X110406190Y-139629223D02*
X110310952Y-139629223D01*
X110358571Y-139867319D02*
X110263333Y-139819700D01*
X110263333Y-139819700D02*
X110168095Y-139724461D01*
X110168095Y-139724461D02*
X110120476Y-139533985D01*
X110120476Y-139533985D02*
X110120476Y-139200652D01*
X110120476Y-139200652D02*
X110168095Y-139010176D01*
X110168095Y-139010176D02*
X110263333Y-138914938D01*
X110263333Y-138914938D02*
X110358571Y-138867319D01*
X110358571Y-138867319D02*
X110549047Y-138867319D01*
X110549047Y-138867319D02*
X110644285Y-138914938D01*
X110644285Y-138914938D02*
X110739523Y-139010176D01*
X110739523Y-139010176D02*
X110787142Y-139200652D01*
X110787142Y-139200652D02*
X110787142Y-139533985D01*
X110787142Y-139533985D02*
X110739523Y-139724461D01*
X110739523Y-139724461D02*
X110644285Y-139819700D01*
X110644285Y-139819700D02*
X110549047Y-139867319D01*
X110549047Y-139867319D02*
X110358571Y-139867319D01*
X111691904Y-138867319D02*
X111215714Y-138867319D01*
X111215714Y-138867319D02*
X111168095Y-139343509D01*
X111168095Y-139343509D02*
X111215714Y-139295890D01*
X111215714Y-139295890D02*
X111310952Y-139248271D01*
X111310952Y-139248271D02*
X111549047Y-139248271D01*
X111549047Y-139248271D02*
X111644285Y-139295890D01*
X111644285Y-139295890D02*
X111691904Y-139343509D01*
X111691904Y-139343509D02*
X111739523Y-139438747D01*
X111739523Y-139438747D02*
X111739523Y-139676842D01*
X111739523Y-139676842D02*
X111691904Y-139772080D01*
X111691904Y-139772080D02*
X111644285Y-139819700D01*
X111644285Y-139819700D02*
X111549047Y-139867319D01*
X111549047Y-139867319D02*
X111310952Y-139867319D01*
X111310952Y-139867319D02*
X111215714Y-139819700D01*
X111215714Y-139819700D02*
X111168095Y-139772080D01*
X29324819Y-145119166D02*
X28848628Y-145452499D01*
X29324819Y-145690594D02*
X28324819Y-145690594D01*
X28324819Y-145690594D02*
X28324819Y-145309642D01*
X28324819Y-145309642D02*
X28372438Y-145214404D01*
X28372438Y-145214404D02*
X28420057Y-145166785D01*
X28420057Y-145166785D02*
X28515295Y-145119166D01*
X28515295Y-145119166D02*
X28658152Y-145119166D01*
X28658152Y-145119166D02*
X28753390Y-145166785D01*
X28753390Y-145166785D02*
X28801009Y-145214404D01*
X28801009Y-145214404D02*
X28848628Y-145309642D01*
X28848628Y-145309642D02*
X28848628Y-145690594D01*
X29324819Y-144642975D02*
X29324819Y-144452499D01*
X29324819Y-144452499D02*
X29277200Y-144357261D01*
X29277200Y-144357261D02*
X29229580Y-144309642D01*
X29229580Y-144309642D02*
X29086723Y-144214404D01*
X29086723Y-144214404D02*
X28896247Y-144166785D01*
X28896247Y-144166785D02*
X28515295Y-144166785D01*
X28515295Y-144166785D02*
X28420057Y-144214404D01*
X28420057Y-144214404D02*
X28372438Y-144262023D01*
X28372438Y-144262023D02*
X28324819Y-144357261D01*
X28324819Y-144357261D02*
X28324819Y-144547737D01*
X28324819Y-144547737D02*
X28372438Y-144642975D01*
X28372438Y-144642975D02*
X28420057Y-144690594D01*
X28420057Y-144690594D02*
X28515295Y-144738213D01*
X28515295Y-144738213D02*
X28753390Y-144738213D01*
X28753390Y-144738213D02*
X28848628Y-144690594D01*
X28848628Y-144690594D02*
X28896247Y-144642975D01*
X28896247Y-144642975D02*
X28943866Y-144547737D01*
X28943866Y-144547737D02*
X28943866Y-144357261D01*
X28943866Y-144357261D02*
X28896247Y-144262023D01*
X28896247Y-144262023D02*
X28848628Y-144214404D01*
X28848628Y-144214404D02*
X28753390Y-144166785D01*
X31066666Y-187227319D02*
X31066666Y-187941604D01*
X31066666Y-187941604D02*
X31019047Y-188084461D01*
X31019047Y-188084461D02*
X30923809Y-188179700D01*
X30923809Y-188179700D02*
X30780952Y-188227319D01*
X30780952Y-188227319D02*
X30685714Y-188227319D01*
X31971428Y-187560652D02*
X31971428Y-188227319D01*
X31733333Y-187179700D02*
X31495238Y-187893985D01*
X31495238Y-187893985D02*
X32114285Y-187893985D01*
X40974819Y-139495357D02*
X40498628Y-139828690D01*
X40974819Y-140066785D02*
X39974819Y-140066785D01*
X39974819Y-140066785D02*
X39974819Y-139685833D01*
X39974819Y-139685833D02*
X40022438Y-139590595D01*
X40022438Y-139590595D02*
X40070057Y-139542976D01*
X40070057Y-139542976D02*
X40165295Y-139495357D01*
X40165295Y-139495357D02*
X40308152Y-139495357D01*
X40308152Y-139495357D02*
X40403390Y-139542976D01*
X40403390Y-139542976D02*
X40451009Y-139590595D01*
X40451009Y-139590595D02*
X40498628Y-139685833D01*
X40498628Y-139685833D02*
X40498628Y-140066785D01*
X40974819Y-138542976D02*
X40974819Y-139114404D01*
X40974819Y-138828690D02*
X39974819Y-138828690D01*
X39974819Y-138828690D02*
X40117676Y-138923928D01*
X40117676Y-138923928D02*
X40212914Y-139019166D01*
X40212914Y-139019166D02*
X40260533Y-139114404D01*
X39974819Y-138209642D02*
X39974819Y-137542976D01*
X39974819Y-137542976D02*
X40974819Y-137971547D01*
X80874819Y-139545357D02*
X80398628Y-139878690D01*
X80874819Y-140116785D02*
X79874819Y-140116785D01*
X79874819Y-140116785D02*
X79874819Y-139735833D01*
X79874819Y-139735833D02*
X79922438Y-139640595D01*
X79922438Y-139640595D02*
X79970057Y-139592976D01*
X79970057Y-139592976D02*
X80065295Y-139545357D01*
X80065295Y-139545357D02*
X80208152Y-139545357D01*
X80208152Y-139545357D02*
X80303390Y-139592976D01*
X80303390Y-139592976D02*
X80351009Y-139640595D01*
X80351009Y-139640595D02*
X80398628Y-139735833D01*
X80398628Y-139735833D02*
X80398628Y-140116785D01*
X80874819Y-138592976D02*
X80874819Y-139164404D01*
X80874819Y-138878690D02*
X79874819Y-138878690D01*
X79874819Y-138878690D02*
X80017676Y-138973928D01*
X80017676Y-138973928D02*
X80112914Y-139069166D01*
X80112914Y-139069166D02*
X80160533Y-139164404D01*
X80874819Y-138116785D02*
X80874819Y-137926309D01*
X80874819Y-137926309D02*
X80827200Y-137831071D01*
X80827200Y-137831071D02*
X80779580Y-137783452D01*
X80779580Y-137783452D02*
X80636723Y-137688214D01*
X80636723Y-137688214D02*
X80446247Y-137640595D01*
X80446247Y-137640595D02*
X80065295Y-137640595D01*
X80065295Y-137640595D02*
X79970057Y-137688214D01*
X79970057Y-137688214D02*
X79922438Y-137735833D01*
X79922438Y-137735833D02*
X79874819Y-137831071D01*
X79874819Y-137831071D02*
X79874819Y-138021547D01*
X79874819Y-138021547D02*
X79922438Y-138116785D01*
X79922438Y-138116785D02*
X79970057Y-138164404D01*
X79970057Y-138164404D02*
X80065295Y-138212023D01*
X80065295Y-138212023D02*
X80303390Y-138212023D01*
X80303390Y-138212023D02*
X80398628Y-138164404D01*
X80398628Y-138164404D02*
X80446247Y-138116785D01*
X80446247Y-138116785D02*
X80493866Y-138021547D01*
X80493866Y-138021547D02*
X80493866Y-137831071D01*
X80493866Y-137831071D02*
X80446247Y-137735833D01*
X80446247Y-137735833D02*
X80398628Y-137688214D01*
X80398628Y-137688214D02*
X80303390Y-137640595D01*
X42854819Y-175160594D02*
X41854819Y-175160594D01*
X42854819Y-174589166D02*
X42283390Y-175017737D01*
X41854819Y-174589166D02*
X42426247Y-175160594D01*
X41950057Y-174208213D02*
X41902438Y-174160594D01*
X41902438Y-174160594D02*
X41854819Y-174065356D01*
X41854819Y-174065356D02*
X41854819Y-173827261D01*
X41854819Y-173827261D02*
X41902438Y-173732023D01*
X41902438Y-173732023D02*
X41950057Y-173684404D01*
X41950057Y-173684404D02*
X42045295Y-173636785D01*
X42045295Y-173636785D02*
X42140533Y-173636785D01*
X42140533Y-173636785D02*
X42283390Y-173684404D01*
X42283390Y-173684404D02*
X42854819Y-174255832D01*
X42854819Y-174255832D02*
X42854819Y-173636785D01*
X66937142Y-79834819D02*
X66603809Y-79358628D01*
X66365714Y-79834819D02*
X66365714Y-78834819D01*
X66365714Y-78834819D02*
X66746666Y-78834819D01*
X66746666Y-78834819D02*
X66841904Y-78882438D01*
X66841904Y-78882438D02*
X66889523Y-78930057D01*
X66889523Y-78930057D02*
X66937142Y-79025295D01*
X66937142Y-79025295D02*
X66937142Y-79168152D01*
X66937142Y-79168152D02*
X66889523Y-79263390D01*
X66889523Y-79263390D02*
X66841904Y-79311009D01*
X66841904Y-79311009D02*
X66746666Y-79358628D01*
X66746666Y-79358628D02*
X66365714Y-79358628D01*
X67889523Y-79834819D02*
X67318095Y-79834819D01*
X67603809Y-79834819D02*
X67603809Y-78834819D01*
X67603809Y-78834819D02*
X67508571Y-78977676D01*
X67508571Y-78977676D02*
X67413333Y-79072914D01*
X67413333Y-79072914D02*
X67318095Y-79120533D01*
X68746666Y-79168152D02*
X68746666Y-79834819D01*
X68508571Y-78787200D02*
X68270476Y-79501485D01*
X68270476Y-79501485D02*
X68889523Y-79501485D01*
X55174819Y-56392857D02*
X54698628Y-56726190D01*
X55174819Y-56964285D02*
X54174819Y-56964285D01*
X54174819Y-56964285D02*
X54174819Y-56583333D01*
X54174819Y-56583333D02*
X54222438Y-56488095D01*
X54222438Y-56488095D02*
X54270057Y-56440476D01*
X54270057Y-56440476D02*
X54365295Y-56392857D01*
X54365295Y-56392857D02*
X54508152Y-56392857D01*
X54508152Y-56392857D02*
X54603390Y-56440476D01*
X54603390Y-56440476D02*
X54651009Y-56488095D01*
X54651009Y-56488095D02*
X54698628Y-56583333D01*
X54698628Y-56583333D02*
X54698628Y-56964285D01*
X54270057Y-56011904D02*
X54222438Y-55964285D01*
X54222438Y-55964285D02*
X54174819Y-55869047D01*
X54174819Y-55869047D02*
X54174819Y-55630952D01*
X54174819Y-55630952D02*
X54222438Y-55535714D01*
X54222438Y-55535714D02*
X54270057Y-55488095D01*
X54270057Y-55488095D02*
X54365295Y-55440476D01*
X54365295Y-55440476D02*
X54460533Y-55440476D01*
X54460533Y-55440476D02*
X54603390Y-55488095D01*
X54603390Y-55488095D02*
X55174819Y-56059523D01*
X55174819Y-56059523D02*
X55174819Y-55440476D01*
X55174819Y-54964285D02*
X55174819Y-54773809D01*
X55174819Y-54773809D02*
X55127200Y-54678571D01*
X55127200Y-54678571D02*
X55079580Y-54630952D01*
X55079580Y-54630952D02*
X54936723Y-54535714D01*
X54936723Y-54535714D02*
X54746247Y-54488095D01*
X54746247Y-54488095D02*
X54365295Y-54488095D01*
X54365295Y-54488095D02*
X54270057Y-54535714D01*
X54270057Y-54535714D02*
X54222438Y-54583333D01*
X54222438Y-54583333D02*
X54174819Y-54678571D01*
X54174819Y-54678571D02*
X54174819Y-54869047D01*
X54174819Y-54869047D02*
X54222438Y-54964285D01*
X54222438Y-54964285D02*
X54270057Y-55011904D01*
X54270057Y-55011904D02*
X54365295Y-55059523D01*
X54365295Y-55059523D02*
X54603390Y-55059523D01*
X54603390Y-55059523D02*
X54698628Y-55011904D01*
X54698628Y-55011904D02*
X54746247Y-54964285D01*
X54746247Y-54964285D02*
X54793866Y-54869047D01*
X54793866Y-54869047D02*
X54793866Y-54678571D01*
X54793866Y-54678571D02*
X54746247Y-54583333D01*
X54746247Y-54583333D02*
X54698628Y-54535714D01*
X54698628Y-54535714D02*
X54603390Y-54488095D01*
X94293095Y-146222319D02*
X94293095Y-147031842D01*
X94293095Y-147031842D02*
X94340714Y-147127080D01*
X94340714Y-147127080D02*
X94388333Y-147174700D01*
X94388333Y-147174700D02*
X94483571Y-147222319D01*
X94483571Y-147222319D02*
X94674047Y-147222319D01*
X94674047Y-147222319D02*
X94769285Y-147174700D01*
X94769285Y-147174700D02*
X94816904Y-147127080D01*
X94816904Y-147127080D02*
X94864523Y-147031842D01*
X94864523Y-147031842D02*
X94864523Y-146222319D01*
X95769285Y-146555652D02*
X95769285Y-147222319D01*
X95531190Y-146174700D02*
X95293095Y-146888985D01*
X95293095Y-146888985D02*
X95912142Y-146888985D01*
X124238095Y-186204819D02*
X124238095Y-185204819D01*
X124238095Y-185681009D02*
X124809523Y-185681009D01*
X124809523Y-186204819D02*
X124809523Y-185204819D01*
X125714285Y-185538152D02*
X125714285Y-186204819D01*
X125476190Y-185157200D02*
X125238095Y-185871485D01*
X125238095Y-185871485D02*
X125857142Y-185871485D01*
X94274819Y-56272857D02*
X93798628Y-56606190D01*
X94274819Y-56844285D02*
X93274819Y-56844285D01*
X93274819Y-56844285D02*
X93274819Y-56463333D01*
X93274819Y-56463333D02*
X93322438Y-56368095D01*
X93322438Y-56368095D02*
X93370057Y-56320476D01*
X93370057Y-56320476D02*
X93465295Y-56272857D01*
X93465295Y-56272857D02*
X93608152Y-56272857D01*
X93608152Y-56272857D02*
X93703390Y-56320476D01*
X93703390Y-56320476D02*
X93751009Y-56368095D01*
X93751009Y-56368095D02*
X93798628Y-56463333D01*
X93798628Y-56463333D02*
X93798628Y-56844285D01*
X93370057Y-55891904D02*
X93322438Y-55844285D01*
X93322438Y-55844285D02*
X93274819Y-55749047D01*
X93274819Y-55749047D02*
X93274819Y-55510952D01*
X93274819Y-55510952D02*
X93322438Y-55415714D01*
X93322438Y-55415714D02*
X93370057Y-55368095D01*
X93370057Y-55368095D02*
X93465295Y-55320476D01*
X93465295Y-55320476D02*
X93560533Y-55320476D01*
X93560533Y-55320476D02*
X93703390Y-55368095D01*
X93703390Y-55368095D02*
X94274819Y-55939523D01*
X94274819Y-55939523D02*
X94274819Y-55320476D01*
X93274819Y-54987142D02*
X93274819Y-54320476D01*
X93274819Y-54320476D02*
X94274819Y-54749047D01*
X93881905Y-162377319D02*
X93881905Y-161377319D01*
X93881905Y-161377319D02*
X94120000Y-161377319D01*
X94120000Y-161377319D02*
X94262857Y-161424938D01*
X94262857Y-161424938D02*
X94358095Y-161520176D01*
X94358095Y-161520176D02*
X94405714Y-161615414D01*
X94405714Y-161615414D02*
X94453333Y-161805890D01*
X94453333Y-161805890D02*
X94453333Y-161948747D01*
X94453333Y-161948747D02*
X94405714Y-162139223D01*
X94405714Y-162139223D02*
X94358095Y-162234461D01*
X94358095Y-162234461D02*
X94262857Y-162329700D01*
X94262857Y-162329700D02*
X94120000Y-162377319D01*
X94120000Y-162377319D02*
X93881905Y-162377319D01*
X95310476Y-161710652D02*
X95310476Y-162377319D01*
X95072381Y-161329700D02*
X94834286Y-162043985D01*
X94834286Y-162043985D02*
X95453333Y-162043985D01*
X22604819Y-175160594D02*
X21604819Y-175160594D01*
X22604819Y-174589166D02*
X22033390Y-175017737D01*
X21604819Y-174589166D02*
X22176247Y-175160594D01*
X22604819Y-173636785D02*
X22604819Y-174208213D01*
X22604819Y-173922499D02*
X21604819Y-173922499D01*
X21604819Y-173922499D02*
X21747676Y-174017737D01*
X21747676Y-174017737D02*
X21842914Y-174112975D01*
X21842914Y-174112975D02*
X21890533Y-174208213D01*
X49424819Y-145635357D02*
X48948628Y-145968690D01*
X49424819Y-146206785D02*
X48424819Y-146206785D01*
X48424819Y-146206785D02*
X48424819Y-145825833D01*
X48424819Y-145825833D02*
X48472438Y-145730595D01*
X48472438Y-145730595D02*
X48520057Y-145682976D01*
X48520057Y-145682976D02*
X48615295Y-145635357D01*
X48615295Y-145635357D02*
X48758152Y-145635357D01*
X48758152Y-145635357D02*
X48853390Y-145682976D01*
X48853390Y-145682976D02*
X48901009Y-145730595D01*
X48901009Y-145730595D02*
X48948628Y-145825833D01*
X48948628Y-145825833D02*
X48948628Y-146206785D01*
X49424819Y-144682976D02*
X49424819Y-145254404D01*
X49424819Y-144968690D02*
X48424819Y-144968690D01*
X48424819Y-144968690D02*
X48567676Y-145063928D01*
X48567676Y-145063928D02*
X48662914Y-145159166D01*
X48662914Y-145159166D02*
X48710533Y-145254404D01*
X48424819Y-144063928D02*
X48424819Y-143968690D01*
X48424819Y-143968690D02*
X48472438Y-143873452D01*
X48472438Y-143873452D02*
X48520057Y-143825833D01*
X48520057Y-143825833D02*
X48615295Y-143778214D01*
X48615295Y-143778214D02*
X48805771Y-143730595D01*
X48805771Y-143730595D02*
X49043866Y-143730595D01*
X49043866Y-143730595D02*
X49234342Y-143778214D01*
X49234342Y-143778214D02*
X49329580Y-143825833D01*
X49329580Y-143825833D02*
X49377200Y-143873452D01*
X49377200Y-143873452D02*
X49424819Y-143968690D01*
X49424819Y-143968690D02*
X49424819Y-144063928D01*
X49424819Y-144063928D02*
X49377200Y-144159166D01*
X49377200Y-144159166D02*
X49329580Y-144206785D01*
X49329580Y-144206785D02*
X49234342Y-144254404D01*
X49234342Y-144254404D02*
X49043866Y-144302023D01*
X49043866Y-144302023D02*
X48805771Y-144302023D01*
X48805771Y-144302023D02*
X48615295Y-144254404D01*
X48615295Y-144254404D02*
X48520057Y-144206785D01*
X48520057Y-144206785D02*
X48472438Y-144159166D01*
X48472438Y-144159166D02*
X48424819Y-144063928D01*
X116109580Y-74416666D02*
X116157200Y-74464285D01*
X116157200Y-74464285D02*
X116204819Y-74607142D01*
X116204819Y-74607142D02*
X116204819Y-74702380D01*
X116204819Y-74702380D02*
X116157200Y-74845237D01*
X116157200Y-74845237D02*
X116061961Y-74940475D01*
X116061961Y-74940475D02*
X115966723Y-74988094D01*
X115966723Y-74988094D02*
X115776247Y-75035713D01*
X115776247Y-75035713D02*
X115633390Y-75035713D01*
X115633390Y-75035713D02*
X115442914Y-74988094D01*
X115442914Y-74988094D02*
X115347676Y-74940475D01*
X115347676Y-74940475D02*
X115252438Y-74845237D01*
X115252438Y-74845237D02*
X115204819Y-74702380D01*
X115204819Y-74702380D02*
X115204819Y-74607142D01*
X115204819Y-74607142D02*
X115252438Y-74464285D01*
X115252438Y-74464285D02*
X115300057Y-74416666D01*
X116204819Y-73464285D02*
X116204819Y-74035713D01*
X116204819Y-73749999D02*
X115204819Y-73749999D01*
X115204819Y-73749999D02*
X115347676Y-73845237D01*
X115347676Y-73845237D02*
X115442914Y-73940475D01*
X115442914Y-73940475D02*
X115490533Y-74035713D01*
X52404761Y-139622557D02*
X52309523Y-139574938D01*
X52309523Y-139574938D02*
X52214285Y-139479700D01*
X52214285Y-139479700D02*
X52071428Y-139336842D01*
X52071428Y-139336842D02*
X51976190Y-139289223D01*
X51976190Y-139289223D02*
X51880952Y-139289223D01*
X51928571Y-139527319D02*
X51833333Y-139479700D01*
X51833333Y-139479700D02*
X51738095Y-139384461D01*
X51738095Y-139384461D02*
X51690476Y-139193985D01*
X51690476Y-139193985D02*
X51690476Y-138860652D01*
X51690476Y-138860652D02*
X51738095Y-138670176D01*
X51738095Y-138670176D02*
X51833333Y-138574938D01*
X51833333Y-138574938D02*
X51928571Y-138527319D01*
X51928571Y-138527319D02*
X52119047Y-138527319D01*
X52119047Y-138527319D02*
X52214285Y-138574938D01*
X52214285Y-138574938D02*
X52309523Y-138670176D01*
X52309523Y-138670176D02*
X52357142Y-138860652D01*
X52357142Y-138860652D02*
X52357142Y-139193985D01*
X52357142Y-139193985D02*
X52309523Y-139384461D01*
X52309523Y-139384461D02*
X52214285Y-139479700D01*
X52214285Y-139479700D02*
X52119047Y-139527319D01*
X52119047Y-139527319D02*
X51928571Y-139527319D01*
X52738095Y-138622557D02*
X52785714Y-138574938D01*
X52785714Y-138574938D02*
X52880952Y-138527319D01*
X52880952Y-138527319D02*
X53119047Y-138527319D01*
X53119047Y-138527319D02*
X53214285Y-138574938D01*
X53214285Y-138574938D02*
X53261904Y-138622557D01*
X53261904Y-138622557D02*
X53309523Y-138717795D01*
X53309523Y-138717795D02*
X53309523Y-138813033D01*
X53309523Y-138813033D02*
X53261904Y-138955890D01*
X53261904Y-138955890D02*
X52690476Y-139527319D01*
X52690476Y-139527319D02*
X53309523Y-139527319D01*
X19416666Y-99854819D02*
X19416666Y-100569104D01*
X19416666Y-100569104D02*
X19369047Y-100711961D01*
X19369047Y-100711961D02*
X19273809Y-100807200D01*
X19273809Y-100807200D02*
X19130952Y-100854819D01*
X19130952Y-100854819D02*
X19035714Y-100854819D01*
X20416666Y-100854819D02*
X19845238Y-100854819D01*
X20130952Y-100854819D02*
X20130952Y-99854819D01*
X20130952Y-99854819D02*
X20035714Y-99997676D01*
X20035714Y-99997676D02*
X19940476Y-100092914D01*
X19940476Y-100092914D02*
X19845238Y-100140533D01*
X116884819Y-85083333D02*
X117599104Y-85083333D01*
X117599104Y-85083333D02*
X117741961Y-85130952D01*
X117741961Y-85130952D02*
X117837200Y-85226190D01*
X117837200Y-85226190D02*
X117884819Y-85369047D01*
X117884819Y-85369047D02*
X117884819Y-85464285D01*
X117884819Y-84559523D02*
X117884819Y-84369047D01*
X117884819Y-84369047D02*
X117837200Y-84273809D01*
X117837200Y-84273809D02*
X117789580Y-84226190D01*
X117789580Y-84226190D02*
X117646723Y-84130952D01*
X117646723Y-84130952D02*
X117456247Y-84083333D01*
X117456247Y-84083333D02*
X117075295Y-84083333D01*
X117075295Y-84083333D02*
X116980057Y-84130952D01*
X116980057Y-84130952D02*
X116932438Y-84178571D01*
X116932438Y-84178571D02*
X116884819Y-84273809D01*
X116884819Y-84273809D02*
X116884819Y-84464285D01*
X116884819Y-84464285D02*
X116932438Y-84559523D01*
X116932438Y-84559523D02*
X116980057Y-84607142D01*
X116980057Y-84607142D02*
X117075295Y-84654761D01*
X117075295Y-84654761D02*
X117313390Y-84654761D01*
X117313390Y-84654761D02*
X117408628Y-84607142D01*
X117408628Y-84607142D02*
X117456247Y-84559523D01*
X117456247Y-84559523D02*
X117503866Y-84464285D01*
X117503866Y-84464285D02*
X117503866Y-84273809D01*
X117503866Y-84273809D02*
X117456247Y-84178571D01*
X117456247Y-84178571D02*
X117408628Y-84130952D01*
X117408628Y-84130952D02*
X117313390Y-84083333D01*
X71683333Y-52609580D02*
X71635714Y-52657200D01*
X71635714Y-52657200D02*
X71492857Y-52704819D01*
X71492857Y-52704819D02*
X71397619Y-52704819D01*
X71397619Y-52704819D02*
X71254762Y-52657200D01*
X71254762Y-52657200D02*
X71159524Y-52561961D01*
X71159524Y-52561961D02*
X71111905Y-52466723D01*
X71111905Y-52466723D02*
X71064286Y-52276247D01*
X71064286Y-52276247D02*
X71064286Y-52133390D01*
X71064286Y-52133390D02*
X71111905Y-51942914D01*
X71111905Y-51942914D02*
X71159524Y-51847676D01*
X71159524Y-51847676D02*
X71254762Y-51752438D01*
X71254762Y-51752438D02*
X71397619Y-51704819D01*
X71397619Y-51704819D02*
X71492857Y-51704819D01*
X71492857Y-51704819D02*
X71635714Y-51752438D01*
X71635714Y-51752438D02*
X71683333Y-51800057D01*
X72016667Y-51704819D02*
X72635714Y-51704819D01*
X72635714Y-51704819D02*
X72302381Y-52085771D01*
X72302381Y-52085771D02*
X72445238Y-52085771D01*
X72445238Y-52085771D02*
X72540476Y-52133390D01*
X72540476Y-52133390D02*
X72588095Y-52181009D01*
X72588095Y-52181009D02*
X72635714Y-52276247D01*
X72635714Y-52276247D02*
X72635714Y-52514342D01*
X72635714Y-52514342D02*
X72588095Y-52609580D01*
X72588095Y-52609580D02*
X72540476Y-52657200D01*
X72540476Y-52657200D02*
X72445238Y-52704819D01*
X72445238Y-52704819D02*
X72159524Y-52704819D01*
X72159524Y-52704819D02*
X72064286Y-52657200D01*
X72064286Y-52657200D02*
X72016667Y-52609580D01*
X48716666Y-13153509D02*
X48383333Y-13153509D01*
X48383333Y-13677319D02*
X48383333Y-12677319D01*
X48383333Y-12677319D02*
X48859523Y-12677319D01*
X49764285Y-13677319D02*
X49192857Y-13677319D01*
X49478571Y-13677319D02*
X49478571Y-12677319D01*
X49478571Y-12677319D02*
X49383333Y-12820176D01*
X49383333Y-12820176D02*
X49288095Y-12915414D01*
X49288095Y-12915414D02*
X49192857Y-12963033D01*
X83861905Y-114314819D02*
X83861905Y-113314819D01*
X83861905Y-113314819D02*
X84100000Y-113314819D01*
X84100000Y-113314819D02*
X84242857Y-113362438D01*
X84242857Y-113362438D02*
X84338095Y-113457676D01*
X84338095Y-113457676D02*
X84385714Y-113552914D01*
X84385714Y-113552914D02*
X84433333Y-113743390D01*
X84433333Y-113743390D02*
X84433333Y-113886247D01*
X84433333Y-113886247D02*
X84385714Y-114076723D01*
X84385714Y-114076723D02*
X84338095Y-114171961D01*
X84338095Y-114171961D02*
X84242857Y-114267200D01*
X84242857Y-114267200D02*
X84100000Y-114314819D01*
X84100000Y-114314819D02*
X83861905Y-114314819D01*
X85004762Y-113743390D02*
X84909524Y-113695771D01*
X84909524Y-113695771D02*
X84861905Y-113648152D01*
X84861905Y-113648152D02*
X84814286Y-113552914D01*
X84814286Y-113552914D02*
X84814286Y-113505295D01*
X84814286Y-113505295D02*
X84861905Y-113410057D01*
X84861905Y-113410057D02*
X84909524Y-113362438D01*
X84909524Y-113362438D02*
X85004762Y-113314819D01*
X85004762Y-113314819D02*
X85195238Y-113314819D01*
X85195238Y-113314819D02*
X85290476Y-113362438D01*
X85290476Y-113362438D02*
X85338095Y-113410057D01*
X85338095Y-113410057D02*
X85385714Y-113505295D01*
X85385714Y-113505295D02*
X85385714Y-113552914D01*
X85385714Y-113552914D02*
X85338095Y-113648152D01*
X85338095Y-113648152D02*
X85290476Y-113695771D01*
X85290476Y-113695771D02*
X85195238Y-113743390D01*
X85195238Y-113743390D02*
X85004762Y-113743390D01*
X85004762Y-113743390D02*
X84909524Y-113791009D01*
X84909524Y-113791009D02*
X84861905Y-113838628D01*
X84861905Y-113838628D02*
X84814286Y-113933866D01*
X84814286Y-113933866D02*
X84814286Y-114124342D01*
X84814286Y-114124342D02*
X84861905Y-114219580D01*
X84861905Y-114219580D02*
X84909524Y-114267200D01*
X84909524Y-114267200D02*
X85004762Y-114314819D01*
X85004762Y-114314819D02*
X85195238Y-114314819D01*
X85195238Y-114314819D02*
X85290476Y-114267200D01*
X85290476Y-114267200D02*
X85338095Y-114219580D01*
X85338095Y-114219580D02*
X85385714Y-114124342D01*
X85385714Y-114124342D02*
X85385714Y-113933866D01*
X85385714Y-113933866D02*
X85338095Y-113838628D01*
X85338095Y-113838628D02*
X85290476Y-113791009D01*
X85290476Y-113791009D02*
X85195238Y-113743390D01*
X34666666Y-99854819D02*
X34666666Y-100569104D01*
X34666666Y-100569104D02*
X34619047Y-100711961D01*
X34619047Y-100711961D02*
X34523809Y-100807200D01*
X34523809Y-100807200D02*
X34380952Y-100854819D01*
X34380952Y-100854819D02*
X34285714Y-100854819D01*
X35095238Y-99950057D02*
X35142857Y-99902438D01*
X35142857Y-99902438D02*
X35238095Y-99854819D01*
X35238095Y-99854819D02*
X35476190Y-99854819D01*
X35476190Y-99854819D02*
X35571428Y-99902438D01*
X35571428Y-99902438D02*
X35619047Y-99950057D01*
X35619047Y-99950057D02*
X35666666Y-100045295D01*
X35666666Y-100045295D02*
X35666666Y-100140533D01*
X35666666Y-100140533D02*
X35619047Y-100283390D01*
X35619047Y-100283390D02*
X35047619Y-100854819D01*
X35047619Y-100854819D02*
X35666666Y-100854819D01*
X34441905Y-162177319D02*
X34441905Y-161177319D01*
X34441905Y-161177319D02*
X34680000Y-161177319D01*
X34680000Y-161177319D02*
X34822857Y-161224938D01*
X34822857Y-161224938D02*
X34918095Y-161320176D01*
X34918095Y-161320176D02*
X34965714Y-161415414D01*
X34965714Y-161415414D02*
X35013333Y-161605890D01*
X35013333Y-161605890D02*
X35013333Y-161748747D01*
X35013333Y-161748747D02*
X34965714Y-161939223D01*
X34965714Y-161939223D02*
X34918095Y-162034461D01*
X34918095Y-162034461D02*
X34822857Y-162129700D01*
X34822857Y-162129700D02*
X34680000Y-162177319D01*
X34680000Y-162177319D02*
X34441905Y-162177319D01*
X35965714Y-162177319D02*
X35394286Y-162177319D01*
X35680000Y-162177319D02*
X35680000Y-161177319D01*
X35680000Y-161177319D02*
X35584762Y-161320176D01*
X35584762Y-161320176D02*
X35489524Y-161415414D01*
X35489524Y-161415414D02*
X35394286Y-161463033D01*
X83811905Y-80564819D02*
X83811905Y-79564819D01*
X83811905Y-79564819D02*
X84050000Y-79564819D01*
X84050000Y-79564819D02*
X84192857Y-79612438D01*
X84192857Y-79612438D02*
X84288095Y-79707676D01*
X84288095Y-79707676D02*
X84335714Y-79802914D01*
X84335714Y-79802914D02*
X84383333Y-79993390D01*
X84383333Y-79993390D02*
X84383333Y-80136247D01*
X84383333Y-80136247D02*
X84335714Y-80326723D01*
X84335714Y-80326723D02*
X84288095Y-80421961D01*
X84288095Y-80421961D02*
X84192857Y-80517200D01*
X84192857Y-80517200D02*
X84050000Y-80564819D01*
X84050000Y-80564819D02*
X83811905Y-80564819D01*
X85240476Y-79564819D02*
X85050000Y-79564819D01*
X85050000Y-79564819D02*
X84954762Y-79612438D01*
X84954762Y-79612438D02*
X84907143Y-79660057D01*
X84907143Y-79660057D02*
X84811905Y-79802914D01*
X84811905Y-79802914D02*
X84764286Y-79993390D01*
X84764286Y-79993390D02*
X84764286Y-80374342D01*
X84764286Y-80374342D02*
X84811905Y-80469580D01*
X84811905Y-80469580D02*
X84859524Y-80517200D01*
X84859524Y-80517200D02*
X84954762Y-80564819D01*
X84954762Y-80564819D02*
X85145238Y-80564819D01*
X85145238Y-80564819D02*
X85240476Y-80517200D01*
X85240476Y-80517200D02*
X85288095Y-80469580D01*
X85288095Y-80469580D02*
X85335714Y-80374342D01*
X85335714Y-80374342D02*
X85335714Y-80136247D01*
X85335714Y-80136247D02*
X85288095Y-80041009D01*
X85288095Y-80041009D02*
X85240476Y-79993390D01*
X85240476Y-79993390D02*
X85145238Y-79945771D01*
X85145238Y-79945771D02*
X84954762Y-79945771D01*
X84954762Y-79945771D02*
X84859524Y-79993390D01*
X84859524Y-79993390D02*
X84811905Y-80041009D01*
X84811905Y-80041009D02*
X84764286Y-80136247D01*
X108635714Y-154627319D02*
X108635714Y-153627319D01*
X108635714Y-153627319D02*
X108873809Y-153627319D01*
X108873809Y-153627319D02*
X109016666Y-153674938D01*
X109016666Y-153674938D02*
X109111904Y-153770176D01*
X109111904Y-153770176D02*
X109159523Y-153865414D01*
X109159523Y-153865414D02*
X109207142Y-154055890D01*
X109207142Y-154055890D02*
X109207142Y-154198747D01*
X109207142Y-154198747D02*
X109159523Y-154389223D01*
X109159523Y-154389223D02*
X109111904Y-154484461D01*
X109111904Y-154484461D02*
X109016666Y-154579700D01*
X109016666Y-154579700D02*
X108873809Y-154627319D01*
X108873809Y-154627319D02*
X108635714Y-154627319D01*
X110159523Y-154627319D02*
X109588095Y-154627319D01*
X109873809Y-154627319D02*
X109873809Y-153627319D01*
X109873809Y-153627319D02*
X109778571Y-153770176D01*
X109778571Y-153770176D02*
X109683333Y-153865414D01*
X109683333Y-153865414D02*
X109588095Y-153913033D01*
X110492857Y-153627319D02*
X111111904Y-153627319D01*
X111111904Y-153627319D02*
X110778571Y-154008271D01*
X110778571Y-154008271D02*
X110921428Y-154008271D01*
X110921428Y-154008271D02*
X111016666Y-154055890D01*
X111016666Y-154055890D02*
X111064285Y-154103509D01*
X111064285Y-154103509D02*
X111111904Y-154198747D01*
X111111904Y-154198747D02*
X111111904Y-154436842D01*
X111111904Y-154436842D02*
X111064285Y-154532080D01*
X111064285Y-154532080D02*
X111016666Y-154579700D01*
X111016666Y-154579700D02*
X110921428Y-154627319D01*
X110921428Y-154627319D02*
X110635714Y-154627319D01*
X110635714Y-154627319D02*
X110540476Y-154579700D01*
X110540476Y-154579700D02*
X110492857Y-154532080D01*
X105718095Y-154777319D02*
X105718095Y-153777319D01*
X106289523Y-154777319D02*
X105860952Y-154205890D01*
X106289523Y-153777319D02*
X105718095Y-154348747D01*
X71884761Y-139562557D02*
X71789523Y-139514938D01*
X71789523Y-139514938D02*
X71694285Y-139419700D01*
X71694285Y-139419700D02*
X71551428Y-139276842D01*
X71551428Y-139276842D02*
X71456190Y-139229223D01*
X71456190Y-139229223D02*
X71360952Y-139229223D01*
X71408571Y-139467319D02*
X71313333Y-139419700D01*
X71313333Y-139419700D02*
X71218095Y-139324461D01*
X71218095Y-139324461D02*
X71170476Y-139133985D01*
X71170476Y-139133985D02*
X71170476Y-138800652D01*
X71170476Y-138800652D02*
X71218095Y-138610176D01*
X71218095Y-138610176D02*
X71313333Y-138514938D01*
X71313333Y-138514938D02*
X71408571Y-138467319D01*
X71408571Y-138467319D02*
X71599047Y-138467319D01*
X71599047Y-138467319D02*
X71694285Y-138514938D01*
X71694285Y-138514938D02*
X71789523Y-138610176D01*
X71789523Y-138610176D02*
X71837142Y-138800652D01*
X71837142Y-138800652D02*
X71837142Y-139133985D01*
X71837142Y-139133985D02*
X71789523Y-139324461D01*
X71789523Y-139324461D02*
X71694285Y-139419700D01*
X71694285Y-139419700D02*
X71599047Y-139467319D01*
X71599047Y-139467319D02*
X71408571Y-139467319D01*
X72170476Y-138467319D02*
X72789523Y-138467319D01*
X72789523Y-138467319D02*
X72456190Y-138848271D01*
X72456190Y-138848271D02*
X72599047Y-138848271D01*
X72599047Y-138848271D02*
X72694285Y-138895890D01*
X72694285Y-138895890D02*
X72741904Y-138943509D01*
X72741904Y-138943509D02*
X72789523Y-139038747D01*
X72789523Y-139038747D02*
X72789523Y-139276842D01*
X72789523Y-139276842D02*
X72741904Y-139372080D01*
X72741904Y-139372080D02*
X72694285Y-139419700D01*
X72694285Y-139419700D02*
X72599047Y-139467319D01*
X72599047Y-139467319D02*
X72313333Y-139467319D01*
X72313333Y-139467319D02*
X72218095Y-139419700D01*
X72218095Y-139419700D02*
X72170476Y-139372080D01*
X69074819Y-145685357D02*
X68598628Y-146018690D01*
X69074819Y-146256785D02*
X68074819Y-146256785D01*
X68074819Y-146256785D02*
X68074819Y-145875833D01*
X68074819Y-145875833D02*
X68122438Y-145780595D01*
X68122438Y-145780595D02*
X68170057Y-145732976D01*
X68170057Y-145732976D02*
X68265295Y-145685357D01*
X68265295Y-145685357D02*
X68408152Y-145685357D01*
X68408152Y-145685357D02*
X68503390Y-145732976D01*
X68503390Y-145732976D02*
X68551009Y-145780595D01*
X68551009Y-145780595D02*
X68598628Y-145875833D01*
X68598628Y-145875833D02*
X68598628Y-146256785D01*
X69074819Y-144732976D02*
X69074819Y-145304404D01*
X69074819Y-145018690D02*
X68074819Y-145018690D01*
X68074819Y-145018690D02*
X68217676Y-145113928D01*
X68217676Y-145113928D02*
X68312914Y-145209166D01*
X68312914Y-145209166D02*
X68360533Y-145304404D01*
X69074819Y-143780595D02*
X69074819Y-144352023D01*
X69074819Y-144066309D02*
X68074819Y-144066309D01*
X68074819Y-144066309D02*
X68217676Y-144161547D01*
X68217676Y-144161547D02*
X68312914Y-144256785D01*
X68312914Y-144256785D02*
X68360533Y-144352023D01*
X50004761Y-31527319D02*
X49671428Y-31051128D01*
X49433333Y-31527319D02*
X49433333Y-30527319D01*
X49433333Y-30527319D02*
X49814285Y-30527319D01*
X49814285Y-30527319D02*
X49909523Y-30574938D01*
X49909523Y-30574938D02*
X49957142Y-30622557D01*
X49957142Y-30622557D02*
X50004761Y-30717795D01*
X50004761Y-30717795D02*
X50004761Y-30860652D01*
X50004761Y-30860652D02*
X49957142Y-30955890D01*
X49957142Y-30955890D02*
X49909523Y-31003509D01*
X49909523Y-31003509D02*
X49814285Y-31051128D01*
X49814285Y-31051128D02*
X49433333Y-31051128D01*
X50290476Y-30527319D02*
X50623809Y-31527319D01*
X50623809Y-31527319D02*
X50957142Y-30527319D01*
X51814285Y-31527319D02*
X51242857Y-31527319D01*
X51528571Y-31527319D02*
X51528571Y-30527319D01*
X51528571Y-30527319D02*
X51433333Y-30670176D01*
X51433333Y-30670176D02*
X51338095Y-30765414D01*
X51338095Y-30765414D02*
X51242857Y-30813033D01*
X113591905Y-162477319D02*
X113591905Y-161477319D01*
X113591905Y-161477319D02*
X113830000Y-161477319D01*
X113830000Y-161477319D02*
X113972857Y-161524938D01*
X113972857Y-161524938D02*
X114068095Y-161620176D01*
X114068095Y-161620176D02*
X114115714Y-161715414D01*
X114115714Y-161715414D02*
X114163333Y-161905890D01*
X114163333Y-161905890D02*
X114163333Y-162048747D01*
X114163333Y-162048747D02*
X114115714Y-162239223D01*
X114115714Y-162239223D02*
X114068095Y-162334461D01*
X114068095Y-162334461D02*
X113972857Y-162429700D01*
X113972857Y-162429700D02*
X113830000Y-162477319D01*
X113830000Y-162477319D02*
X113591905Y-162477319D01*
X115068095Y-161477319D02*
X114591905Y-161477319D01*
X114591905Y-161477319D02*
X114544286Y-161953509D01*
X114544286Y-161953509D02*
X114591905Y-161905890D01*
X114591905Y-161905890D02*
X114687143Y-161858271D01*
X114687143Y-161858271D02*
X114925238Y-161858271D01*
X114925238Y-161858271D02*
X115020476Y-161905890D01*
X115020476Y-161905890D02*
X115068095Y-161953509D01*
X115068095Y-161953509D02*
X115115714Y-162048747D01*
X115115714Y-162048747D02*
X115115714Y-162286842D01*
X115115714Y-162286842D02*
X115068095Y-162382080D01*
X115068095Y-162382080D02*
X115020476Y-162429700D01*
X115020476Y-162429700D02*
X114925238Y-162477319D01*
X114925238Y-162477319D02*
X114687143Y-162477319D01*
X114687143Y-162477319D02*
X114591905Y-162429700D01*
X114591905Y-162429700D02*
X114544286Y-162382080D01*
X92284761Y-139562557D02*
X92189523Y-139514938D01*
X92189523Y-139514938D02*
X92094285Y-139419700D01*
X92094285Y-139419700D02*
X91951428Y-139276842D01*
X91951428Y-139276842D02*
X91856190Y-139229223D01*
X91856190Y-139229223D02*
X91760952Y-139229223D01*
X91808571Y-139467319D02*
X91713333Y-139419700D01*
X91713333Y-139419700D02*
X91618095Y-139324461D01*
X91618095Y-139324461D02*
X91570476Y-139133985D01*
X91570476Y-139133985D02*
X91570476Y-138800652D01*
X91570476Y-138800652D02*
X91618095Y-138610176D01*
X91618095Y-138610176D02*
X91713333Y-138514938D01*
X91713333Y-138514938D02*
X91808571Y-138467319D01*
X91808571Y-138467319D02*
X91999047Y-138467319D01*
X91999047Y-138467319D02*
X92094285Y-138514938D01*
X92094285Y-138514938D02*
X92189523Y-138610176D01*
X92189523Y-138610176D02*
X92237142Y-138800652D01*
X92237142Y-138800652D02*
X92237142Y-139133985D01*
X92237142Y-139133985D02*
X92189523Y-139324461D01*
X92189523Y-139324461D02*
X92094285Y-139419700D01*
X92094285Y-139419700D02*
X91999047Y-139467319D01*
X91999047Y-139467319D02*
X91808571Y-139467319D01*
X93094285Y-138800652D02*
X93094285Y-139467319D01*
X92856190Y-138419700D02*
X92618095Y-139133985D01*
X92618095Y-139133985D02*
X93237142Y-139133985D01*
X89174819Y-145785357D02*
X88698628Y-146118690D01*
X89174819Y-146356785D02*
X88174819Y-146356785D01*
X88174819Y-146356785D02*
X88174819Y-145975833D01*
X88174819Y-145975833D02*
X88222438Y-145880595D01*
X88222438Y-145880595D02*
X88270057Y-145832976D01*
X88270057Y-145832976D02*
X88365295Y-145785357D01*
X88365295Y-145785357D02*
X88508152Y-145785357D01*
X88508152Y-145785357D02*
X88603390Y-145832976D01*
X88603390Y-145832976D02*
X88651009Y-145880595D01*
X88651009Y-145880595D02*
X88698628Y-145975833D01*
X88698628Y-145975833D02*
X88698628Y-146356785D01*
X89174819Y-144832976D02*
X89174819Y-145404404D01*
X89174819Y-145118690D02*
X88174819Y-145118690D01*
X88174819Y-145118690D02*
X88317676Y-145213928D01*
X88317676Y-145213928D02*
X88412914Y-145309166D01*
X88412914Y-145309166D02*
X88460533Y-145404404D01*
X88270057Y-144452023D02*
X88222438Y-144404404D01*
X88222438Y-144404404D02*
X88174819Y-144309166D01*
X88174819Y-144309166D02*
X88174819Y-144071071D01*
X88174819Y-144071071D02*
X88222438Y-143975833D01*
X88222438Y-143975833D02*
X88270057Y-143928214D01*
X88270057Y-143928214D02*
X88365295Y-143880595D01*
X88365295Y-143880595D02*
X88460533Y-143880595D01*
X88460533Y-143880595D02*
X88603390Y-143928214D01*
X88603390Y-143928214D02*
X89174819Y-144499642D01*
X89174819Y-144499642D02*
X89174819Y-143880595D01*
X50215714Y-154507319D02*
X50215714Y-153507319D01*
X50215714Y-153507319D02*
X50453809Y-153507319D01*
X50453809Y-153507319D02*
X50596666Y-153554938D01*
X50596666Y-153554938D02*
X50691904Y-153650176D01*
X50691904Y-153650176D02*
X50739523Y-153745414D01*
X50739523Y-153745414D02*
X50787142Y-153935890D01*
X50787142Y-153935890D02*
X50787142Y-154078747D01*
X50787142Y-154078747D02*
X50739523Y-154269223D01*
X50739523Y-154269223D02*
X50691904Y-154364461D01*
X50691904Y-154364461D02*
X50596666Y-154459700D01*
X50596666Y-154459700D02*
X50453809Y-154507319D01*
X50453809Y-154507319D02*
X50215714Y-154507319D01*
X51739523Y-154507319D02*
X51168095Y-154507319D01*
X51453809Y-154507319D02*
X51453809Y-153507319D01*
X51453809Y-153507319D02*
X51358571Y-153650176D01*
X51358571Y-153650176D02*
X51263333Y-153745414D01*
X51263333Y-153745414D02*
X51168095Y-153793033D01*
X52358571Y-153507319D02*
X52453809Y-153507319D01*
X52453809Y-153507319D02*
X52549047Y-153554938D01*
X52549047Y-153554938D02*
X52596666Y-153602557D01*
X52596666Y-153602557D02*
X52644285Y-153697795D01*
X52644285Y-153697795D02*
X52691904Y-153888271D01*
X52691904Y-153888271D02*
X52691904Y-154126366D01*
X52691904Y-154126366D02*
X52644285Y-154316842D01*
X52644285Y-154316842D02*
X52596666Y-154412080D01*
X52596666Y-154412080D02*
X52549047Y-154459700D01*
X52549047Y-154459700D02*
X52453809Y-154507319D01*
X52453809Y-154507319D02*
X52358571Y-154507319D01*
X52358571Y-154507319D02*
X52263333Y-154459700D01*
X52263333Y-154459700D02*
X52215714Y-154412080D01*
X52215714Y-154412080D02*
X52168095Y-154316842D01*
X52168095Y-154316842D02*
X52120476Y-154126366D01*
X52120476Y-154126366D02*
X52120476Y-153888271D01*
X52120476Y-153888271D02*
X52168095Y-153697795D01*
X52168095Y-153697795D02*
X52215714Y-153602557D01*
X52215714Y-153602557D02*
X52263333Y-153554938D01*
X52263333Y-153554938D02*
X52358571Y-153507319D01*
X46088095Y-154877319D02*
X46088095Y-153877319D01*
X46659523Y-154877319D02*
X46230952Y-154305890D01*
X46659523Y-153877319D02*
X46088095Y-154448747D01*
X45984819Y-93916666D02*
X45508628Y-94249999D01*
X45984819Y-94488094D02*
X44984819Y-94488094D01*
X44984819Y-94488094D02*
X44984819Y-94107142D01*
X44984819Y-94107142D02*
X45032438Y-94011904D01*
X45032438Y-94011904D02*
X45080057Y-93964285D01*
X45080057Y-93964285D02*
X45175295Y-93916666D01*
X45175295Y-93916666D02*
X45318152Y-93916666D01*
X45318152Y-93916666D02*
X45413390Y-93964285D01*
X45413390Y-93964285D02*
X45461009Y-94011904D01*
X45461009Y-94011904D02*
X45508628Y-94107142D01*
X45508628Y-94107142D02*
X45508628Y-94488094D01*
X44984819Y-93583332D02*
X44984819Y-92916666D01*
X44984819Y-92916666D02*
X45984819Y-93345237D01*
X30813333Y-125957319D02*
X30480000Y-125481128D01*
X30241905Y-125957319D02*
X30241905Y-124957319D01*
X30241905Y-124957319D02*
X30622857Y-124957319D01*
X30622857Y-124957319D02*
X30718095Y-125004938D01*
X30718095Y-125004938D02*
X30765714Y-125052557D01*
X30765714Y-125052557D02*
X30813333Y-125147795D01*
X30813333Y-125147795D02*
X30813333Y-125290652D01*
X30813333Y-125290652D02*
X30765714Y-125385890D01*
X30765714Y-125385890D02*
X30718095Y-125433509D01*
X30718095Y-125433509D02*
X30622857Y-125481128D01*
X30622857Y-125481128D02*
X30241905Y-125481128D01*
X31765714Y-125957319D02*
X31194286Y-125957319D01*
X31480000Y-125957319D02*
X31480000Y-124957319D01*
X31480000Y-124957319D02*
X31384762Y-125100176D01*
X31384762Y-125100176D02*
X31289524Y-125195414D01*
X31289524Y-125195414D02*
X31194286Y-125243033D01*
X121138095Y-14527319D02*
X121138095Y-13527319D01*
X121138095Y-14003509D02*
X121709523Y-14003509D01*
X121709523Y-14527319D02*
X121709523Y-13527319D01*
X122138095Y-13622557D02*
X122185714Y-13574938D01*
X122185714Y-13574938D02*
X122280952Y-13527319D01*
X122280952Y-13527319D02*
X122519047Y-13527319D01*
X122519047Y-13527319D02*
X122614285Y-13574938D01*
X122614285Y-13574938D02*
X122661904Y-13622557D01*
X122661904Y-13622557D02*
X122709523Y-13717795D01*
X122709523Y-13717795D02*
X122709523Y-13813033D01*
X122709523Y-13813033D02*
X122661904Y-13955890D01*
X122661904Y-13955890D02*
X122090476Y-14527319D01*
X122090476Y-14527319D02*
X122709523Y-14527319D01*
X77034819Y-78264285D02*
X76034819Y-78264285D01*
X76034819Y-78264285D02*
X76034819Y-78026190D01*
X76034819Y-78026190D02*
X76082438Y-77883333D01*
X76082438Y-77883333D02*
X76177676Y-77788095D01*
X76177676Y-77788095D02*
X76272914Y-77740476D01*
X76272914Y-77740476D02*
X76463390Y-77692857D01*
X76463390Y-77692857D02*
X76606247Y-77692857D01*
X76606247Y-77692857D02*
X76796723Y-77740476D01*
X76796723Y-77740476D02*
X76891961Y-77788095D01*
X76891961Y-77788095D02*
X76987200Y-77883333D01*
X76987200Y-77883333D02*
X77034819Y-78026190D01*
X77034819Y-78026190D02*
X77034819Y-78264285D01*
X77034819Y-76740476D02*
X77034819Y-77311904D01*
X77034819Y-77026190D02*
X76034819Y-77026190D01*
X76034819Y-77026190D02*
X76177676Y-77121428D01*
X76177676Y-77121428D02*
X76272914Y-77216666D01*
X76272914Y-77216666D02*
X76320533Y-77311904D01*
X76368152Y-75883333D02*
X77034819Y-75883333D01*
X75987200Y-76121428D02*
X76701485Y-76359523D01*
X76701485Y-76359523D02*
X76701485Y-75740476D01*
X77404819Y-82391904D02*
X76404819Y-82391904D01*
X77404819Y-81820476D02*
X76833390Y-82249047D01*
X76404819Y-81820476D02*
X76976247Y-82391904D01*
X114954819Y-118595238D02*
X114478628Y-118928571D01*
X114954819Y-119166666D02*
X113954819Y-119166666D01*
X113954819Y-119166666D02*
X113954819Y-118785714D01*
X113954819Y-118785714D02*
X114002438Y-118690476D01*
X114002438Y-118690476D02*
X114050057Y-118642857D01*
X114050057Y-118642857D02*
X114145295Y-118595238D01*
X114145295Y-118595238D02*
X114288152Y-118595238D01*
X114288152Y-118595238D02*
X114383390Y-118642857D01*
X114383390Y-118642857D02*
X114431009Y-118690476D01*
X114431009Y-118690476D02*
X114478628Y-118785714D01*
X114478628Y-118785714D02*
X114478628Y-119166666D01*
X113954819Y-118309523D02*
X114954819Y-117976190D01*
X114954819Y-117976190D02*
X113954819Y-117642857D01*
X114050057Y-117357142D02*
X114002438Y-117309523D01*
X114002438Y-117309523D02*
X113954819Y-117214285D01*
X113954819Y-117214285D02*
X113954819Y-116976190D01*
X113954819Y-116976190D02*
X114002438Y-116880952D01*
X114002438Y-116880952D02*
X114050057Y-116833333D01*
X114050057Y-116833333D02*
X114145295Y-116785714D01*
X114145295Y-116785714D02*
X114240533Y-116785714D01*
X114240533Y-116785714D02*
X114383390Y-116833333D01*
X114383390Y-116833333D02*
X114954819Y-117404761D01*
X114954819Y-117404761D02*
X114954819Y-116785714D01*
X45734819Y-75046666D02*
X45258628Y-75379999D01*
X45734819Y-75618094D02*
X44734819Y-75618094D01*
X44734819Y-75618094D02*
X44734819Y-75237142D01*
X44734819Y-75237142D02*
X44782438Y-75141904D01*
X44782438Y-75141904D02*
X44830057Y-75094285D01*
X44830057Y-75094285D02*
X44925295Y-75046666D01*
X44925295Y-75046666D02*
X45068152Y-75046666D01*
X45068152Y-75046666D02*
X45163390Y-75094285D01*
X45163390Y-75094285D02*
X45211009Y-75141904D01*
X45211009Y-75141904D02*
X45258628Y-75237142D01*
X45258628Y-75237142D02*
X45258628Y-75618094D01*
X44734819Y-74189523D02*
X44734819Y-74379999D01*
X44734819Y-74379999D02*
X44782438Y-74475237D01*
X44782438Y-74475237D02*
X44830057Y-74522856D01*
X44830057Y-74522856D02*
X44972914Y-74618094D01*
X44972914Y-74618094D02*
X45163390Y-74665713D01*
X45163390Y-74665713D02*
X45544342Y-74665713D01*
X45544342Y-74665713D02*
X45639580Y-74618094D01*
X45639580Y-74618094D02*
X45687200Y-74570475D01*
X45687200Y-74570475D02*
X45734819Y-74475237D01*
X45734819Y-74475237D02*
X45734819Y-74284761D01*
X45734819Y-74284761D02*
X45687200Y-74189523D01*
X45687200Y-74189523D02*
X45639580Y-74141904D01*
X45639580Y-74141904D02*
X45544342Y-74094285D01*
X45544342Y-74094285D02*
X45306247Y-74094285D01*
X45306247Y-74094285D02*
X45211009Y-74141904D01*
X45211009Y-74141904D02*
X45163390Y-74189523D01*
X45163390Y-74189523D02*
X45115771Y-74284761D01*
X45115771Y-74284761D02*
X45115771Y-74475237D01*
X45115771Y-74475237D02*
X45163390Y-74570475D01*
X45163390Y-74570475D02*
X45211009Y-74618094D01*
X45211009Y-74618094D02*
X45306247Y-74665713D01*
X96211905Y-86654819D02*
X96211905Y-85654819D01*
X96783333Y-86654819D02*
X96354762Y-86083390D01*
X96783333Y-85654819D02*
X96211905Y-86226247D01*
X97640476Y-85654819D02*
X97450000Y-85654819D01*
X97450000Y-85654819D02*
X97354762Y-85702438D01*
X97354762Y-85702438D02*
X97307143Y-85750057D01*
X97307143Y-85750057D02*
X97211905Y-85892914D01*
X97211905Y-85892914D02*
X97164286Y-86083390D01*
X97164286Y-86083390D02*
X97164286Y-86464342D01*
X97164286Y-86464342D02*
X97211905Y-86559580D01*
X97211905Y-86559580D02*
X97259524Y-86607200D01*
X97259524Y-86607200D02*
X97354762Y-86654819D01*
X97354762Y-86654819D02*
X97545238Y-86654819D01*
X97545238Y-86654819D02*
X97640476Y-86607200D01*
X97640476Y-86607200D02*
X97688095Y-86559580D01*
X97688095Y-86559580D02*
X97735714Y-86464342D01*
X97735714Y-86464342D02*
X97735714Y-86226247D01*
X97735714Y-86226247D02*
X97688095Y-86131009D01*
X97688095Y-86131009D02*
X97640476Y-86083390D01*
X97640476Y-86083390D02*
X97545238Y-86035771D01*
X97545238Y-86035771D02*
X97354762Y-86035771D01*
X97354762Y-86035771D02*
X97259524Y-86083390D01*
X97259524Y-86083390D02*
X97211905Y-86131009D01*
X97211905Y-86131009D02*
X97164286Y-86226247D01*
X24734819Y-70464285D02*
X23734819Y-70464285D01*
X23734819Y-70464285D02*
X23734819Y-70226190D01*
X23734819Y-70226190D02*
X23782438Y-70083333D01*
X23782438Y-70083333D02*
X23877676Y-69988095D01*
X23877676Y-69988095D02*
X23972914Y-69940476D01*
X23972914Y-69940476D02*
X24163390Y-69892857D01*
X24163390Y-69892857D02*
X24306247Y-69892857D01*
X24306247Y-69892857D02*
X24496723Y-69940476D01*
X24496723Y-69940476D02*
X24591961Y-69988095D01*
X24591961Y-69988095D02*
X24687200Y-70083333D01*
X24687200Y-70083333D02*
X24734819Y-70226190D01*
X24734819Y-70226190D02*
X24734819Y-70464285D01*
X24734819Y-68940476D02*
X24734819Y-69511904D01*
X24734819Y-69226190D02*
X23734819Y-69226190D01*
X23734819Y-69226190D02*
X23877676Y-69321428D01*
X23877676Y-69321428D02*
X23972914Y-69416666D01*
X23972914Y-69416666D02*
X24020533Y-69511904D01*
X24163390Y-68369047D02*
X24115771Y-68464285D01*
X24115771Y-68464285D02*
X24068152Y-68511904D01*
X24068152Y-68511904D02*
X23972914Y-68559523D01*
X23972914Y-68559523D02*
X23925295Y-68559523D01*
X23925295Y-68559523D02*
X23830057Y-68511904D01*
X23830057Y-68511904D02*
X23782438Y-68464285D01*
X23782438Y-68464285D02*
X23734819Y-68369047D01*
X23734819Y-68369047D02*
X23734819Y-68178571D01*
X23734819Y-68178571D02*
X23782438Y-68083333D01*
X23782438Y-68083333D02*
X23830057Y-68035714D01*
X23830057Y-68035714D02*
X23925295Y-67988095D01*
X23925295Y-67988095D02*
X23972914Y-67988095D01*
X23972914Y-67988095D02*
X24068152Y-68035714D01*
X24068152Y-68035714D02*
X24115771Y-68083333D01*
X24115771Y-68083333D02*
X24163390Y-68178571D01*
X24163390Y-68178571D02*
X24163390Y-68369047D01*
X24163390Y-68369047D02*
X24211009Y-68464285D01*
X24211009Y-68464285D02*
X24258628Y-68511904D01*
X24258628Y-68511904D02*
X24353866Y-68559523D01*
X24353866Y-68559523D02*
X24544342Y-68559523D01*
X24544342Y-68559523D02*
X24639580Y-68511904D01*
X24639580Y-68511904D02*
X24687200Y-68464285D01*
X24687200Y-68464285D02*
X24734819Y-68369047D01*
X24734819Y-68369047D02*
X24734819Y-68178571D01*
X24734819Y-68178571D02*
X24687200Y-68083333D01*
X24687200Y-68083333D02*
X24639580Y-68035714D01*
X24639580Y-68035714D02*
X24544342Y-67988095D01*
X24544342Y-67988095D02*
X24353866Y-67988095D01*
X24353866Y-67988095D02*
X24258628Y-68035714D01*
X24258628Y-68035714D02*
X24211009Y-68083333D01*
X24211009Y-68083333D02*
X24163390Y-68178571D01*
X25104819Y-74591904D02*
X24104819Y-74591904D01*
X25104819Y-74020476D02*
X24533390Y-74449047D01*
X24104819Y-74020476D02*
X24676247Y-74591904D01*
X71016666Y-187077319D02*
X71016666Y-187791604D01*
X71016666Y-187791604D02*
X70969047Y-187934461D01*
X70969047Y-187934461D02*
X70873809Y-188029700D01*
X70873809Y-188029700D02*
X70730952Y-188077319D01*
X70730952Y-188077319D02*
X70635714Y-188077319D01*
X71921428Y-187077319D02*
X71730952Y-187077319D01*
X71730952Y-187077319D02*
X71635714Y-187124938D01*
X71635714Y-187124938D02*
X71588095Y-187172557D01*
X71588095Y-187172557D02*
X71492857Y-187315414D01*
X71492857Y-187315414D02*
X71445238Y-187505890D01*
X71445238Y-187505890D02*
X71445238Y-187886842D01*
X71445238Y-187886842D02*
X71492857Y-187982080D01*
X71492857Y-187982080D02*
X71540476Y-188029700D01*
X71540476Y-188029700D02*
X71635714Y-188077319D01*
X71635714Y-188077319D02*
X71826190Y-188077319D01*
X71826190Y-188077319D02*
X71921428Y-188029700D01*
X71921428Y-188029700D02*
X71969047Y-187982080D01*
X71969047Y-187982080D02*
X72016666Y-187886842D01*
X72016666Y-187886842D02*
X72016666Y-187648747D01*
X72016666Y-187648747D02*
X71969047Y-187553509D01*
X71969047Y-187553509D02*
X71921428Y-187505890D01*
X71921428Y-187505890D02*
X71826190Y-187458271D01*
X71826190Y-187458271D02*
X71635714Y-187458271D01*
X71635714Y-187458271D02*
X71540476Y-187505890D01*
X71540476Y-187505890D02*
X71492857Y-187553509D01*
X71492857Y-187553509D02*
X71445238Y-187648747D01*
X62390057Y-92415238D02*
X62342438Y-92510476D01*
X62342438Y-92510476D02*
X62247200Y-92605714D01*
X62247200Y-92605714D02*
X62104342Y-92748571D01*
X62104342Y-92748571D02*
X62056723Y-92843809D01*
X62056723Y-92843809D02*
X62056723Y-92939047D01*
X62294819Y-92891428D02*
X62247200Y-92986666D01*
X62247200Y-92986666D02*
X62151961Y-93081904D01*
X62151961Y-93081904D02*
X61961485Y-93129523D01*
X61961485Y-93129523D02*
X61628152Y-93129523D01*
X61628152Y-93129523D02*
X61437676Y-93081904D01*
X61437676Y-93081904D02*
X61342438Y-92986666D01*
X61342438Y-92986666D02*
X61294819Y-92891428D01*
X61294819Y-92891428D02*
X61294819Y-92700952D01*
X61294819Y-92700952D02*
X61342438Y-92605714D01*
X61342438Y-92605714D02*
X61437676Y-92510476D01*
X61437676Y-92510476D02*
X61628152Y-92462857D01*
X61628152Y-92462857D02*
X61961485Y-92462857D01*
X61961485Y-92462857D02*
X62151961Y-92510476D01*
X62151961Y-92510476D02*
X62247200Y-92605714D01*
X62247200Y-92605714D02*
X62294819Y-92700952D01*
X62294819Y-92700952D02*
X62294819Y-92891428D01*
X61294819Y-92129523D02*
X61294819Y-91462857D01*
X61294819Y-91462857D02*
X62294819Y-91891428D01*
D13*
%TO.C,D2*%
X49820000Y-160436500D02*
X49820000Y-160592500D01*
X49820000Y-162752500D02*
X49820000Y-162908500D01*
X49820000Y-160436984D02*
G75*
G02*
X53051437Y-160592500I1560000J-1235516D01*
G01*
X50339039Y-160592500D02*
G75*
G02*
X52420961Y-160592500I1040961J-1080000D01*
G01*
X52420961Y-162752500D02*
G75*
G02*
X50339039Y-162752500I-1040961J1080000D01*
G01*
X53051437Y-162752500D02*
G75*
G02*
X49820000Y-162908016I-1671437J1080000D01*
G01*
%TO.C,U5*%
X110960000Y-148102500D02*
X110960000Y-153302500D01*
X110960000Y-153302500D02*
X116260000Y-153302500D01*
X112610000Y-148102500D02*
X110960000Y-148102500D01*
X116260000Y-148102500D02*
X114610000Y-148102500D01*
X116260000Y-153302500D02*
X116260000Y-148102500D01*
X114610000Y-148102500D02*
G75*
G02*
X112610000Y-148102500I-1000000J0D01*
G01*
%TO.C,J5*%
X43930000Y-186402500D02*
X59170000Y-186402500D01*
X43930000Y-189422500D02*
X59170000Y-189422500D01*
X43930000Y-194322500D02*
X59170000Y-194322500D01*
X43930000Y-195822500D02*
X59170000Y-195822500D01*
X43930000Y-196442500D02*
X43930000Y-186402500D01*
X46250000Y-196442500D02*
X43930000Y-196442500D01*
X59170000Y-186402500D02*
X59170000Y-196442500D01*
X59170000Y-196442500D02*
X46850000Y-196442500D01*
X46990000Y-197052500D02*
X46110000Y-197052500D01*
X46550000Y-196442500D01*
X46990000Y-197052500D01*
G36*
X46990000Y-197052500D02*
G01*
X46110000Y-197052500D01*
X46550000Y-196442500D01*
X46990000Y-197052500D01*
G37*
%TO.C,D16*%
X77630000Y-95120000D02*
X80570000Y-95120000D01*
X77630000Y-95240000D02*
X80570000Y-95240000D01*
X77630000Y-95360000D02*
X80570000Y-95360000D01*
X79100000Y-89680000D02*
X79100000Y-90700000D01*
X79100000Y-97160000D02*
X79100000Y-96140000D01*
X77630000Y-96140000D02*
X80570000Y-96140000D01*
X80570000Y-90700000D01*
X77630000Y-90700000D01*
X77630000Y-96140000D01*
%TO.C,U3*%
X72055000Y-147867500D02*
X72055000Y-153067500D01*
X72055000Y-153067500D02*
X77355000Y-153067500D01*
X73705000Y-147867500D02*
X72055000Y-147867500D01*
X77355000Y-147867500D02*
X75705000Y-147867500D01*
X77355000Y-153067500D02*
X77355000Y-147867500D01*
X75705000Y-147867500D02*
G75*
G02*
X73705000Y-147867500I-1000000J0D01*
G01*
%TO.C,R15*%
X61050000Y-98550000D02*
X63010000Y-98550000D01*
X74210000Y-98550000D02*
X72250000Y-98550000D01*
X63010000Y-96830000D02*
X72250000Y-96830000D01*
X72250000Y-100270000D01*
X63010000Y-100270000D01*
X63010000Y-96830000D01*
%TO.C,R30*%
X33250000Y-66670000D02*
X33250000Y-68630000D01*
X33250000Y-79830000D02*
X33250000Y-77870000D01*
X31530000Y-77870000D02*
X34970000Y-77870000D01*
X34970000Y-68630000D01*
X31530000Y-68630000D01*
X31530000Y-77870000D01*
%TO.C,J7*%
X83430000Y-186352500D02*
X98670000Y-186352500D01*
X83430000Y-189372500D02*
X98670000Y-189372500D01*
X83430000Y-194272500D02*
X98670000Y-194272500D01*
X83430000Y-195772500D02*
X98670000Y-195772500D01*
X83430000Y-196392500D02*
X83430000Y-186352500D01*
X85750000Y-196392500D02*
X83430000Y-196392500D01*
X98670000Y-186352500D02*
X98670000Y-196392500D01*
X98670000Y-196392500D02*
X86350000Y-196392500D01*
X86490000Y-197002500D02*
X85610000Y-197002500D01*
X86050000Y-196392500D01*
X86490000Y-197002500D01*
G36*
X86490000Y-197002500D02*
G01*
X85610000Y-197002500D01*
X86050000Y-196392500D01*
X86490000Y-197002500D01*
G37*
%TO.C,R18*%
X58250000Y-132372500D02*
X58250000Y-134332500D01*
X58250000Y-145532500D02*
X58250000Y-143572500D01*
X59970000Y-134332500D02*
X56530000Y-134332500D01*
X56530000Y-143572500D01*
X59970000Y-143572500D01*
X59970000Y-134332500D01*
%TO.C,D3*%
X69570000Y-160686500D02*
X69570000Y-160842500D01*
X69570000Y-163002500D02*
X69570000Y-163158500D01*
X69570000Y-160686984D02*
G75*
G02*
X72801437Y-160842500I1560000J-1235516D01*
G01*
X70089039Y-160842500D02*
G75*
G02*
X72170961Y-160842500I1040961J-1080000D01*
G01*
X72170961Y-163002500D02*
G75*
G02*
X70089039Y-163002500I-1040961J1080000D01*
G01*
X72801437Y-163002500D02*
G75*
G02*
X69570000Y-163158016I-1671437J1080000D01*
G01*
%TO.C,R2*%
X44850000Y-128272500D02*
X46810000Y-128272500D01*
X58010000Y-128272500D02*
X56050000Y-128272500D01*
X46810000Y-126552500D02*
X56050000Y-126552500D01*
X56050000Y-129992500D01*
X46810000Y-129992500D01*
X46810000Y-126552500D01*
%TO.C,U2*%
X52605000Y-147917500D02*
X52605000Y-153117500D01*
X52605000Y-153117500D02*
X57905000Y-153117500D01*
X54255000Y-147917500D02*
X52605000Y-147917500D01*
X57905000Y-147917500D02*
X56255000Y-147917500D01*
X57905000Y-153117500D02*
X57905000Y-147917500D01*
X56255000Y-147917500D02*
G75*
G02*
X54255000Y-147917500I-1000000J0D01*
G01*
%TO.C,BZ1*%
X33350000Y-87500000D02*
G75*
G02*
X21150000Y-87500000I-6100000J0D01*
G01*
X21150000Y-87500000D02*
G75*
G02*
X33350000Y-87500000I6100000J0D01*
G01*
%TO.C,R20*%
X116600000Y-132572500D02*
X116600000Y-134532500D01*
X116600000Y-145732500D02*
X116600000Y-143772500D01*
X118320000Y-134532500D02*
X114880000Y-134532500D01*
X114880000Y-143772500D01*
X118320000Y-143772500D01*
X118320000Y-134532500D01*
%TO.C,R24*%
X98050000Y-132222500D02*
X98050000Y-134182500D01*
X98050000Y-145382500D02*
X98050000Y-143422500D01*
X99770000Y-134182500D02*
X96330000Y-134182500D01*
X96330000Y-143422500D01*
X99770000Y-143422500D01*
X99770000Y-134182500D01*
%TO.C,K7*%
X87450000Y-86150000D02*
X87450000Y-92750000D01*
X87450000Y-86150000D02*
X107250000Y-86150000D01*
X87450000Y-95150000D02*
X87450000Y-101750000D01*
X91500000Y-94000000D02*
X90700000Y-94000000D01*
X91500000Y-94000000D02*
X91500000Y-97600000D01*
X92400000Y-100000000D02*
X94900000Y-100000000D01*
X92900000Y-92200000D02*
X96900000Y-92200000D01*
X92900000Y-95800000D02*
X92900000Y-92200000D01*
X94900000Y-88000000D02*
X92400000Y-88000000D01*
X94900000Y-88000000D02*
X94900000Y-92200000D01*
X94900000Y-95800000D02*
X94900000Y-100000000D01*
X96900000Y-92200000D02*
X96900000Y-95800000D01*
X96900000Y-95800000D02*
X92900000Y-92200000D01*
X96900000Y-95800000D02*
X92900000Y-95800000D01*
X98300000Y-94000000D02*
X98300000Y-97600000D01*
X98300000Y-94000000D02*
X99800000Y-94000000D01*
X98300000Y-97600000D02*
X91500000Y-97600000D01*
X99800000Y-94000000D02*
X104400000Y-91500000D01*
X103000000Y-89750000D02*
X103000000Y-92250000D01*
X103000000Y-98150000D02*
X103000000Y-95700000D01*
X107250000Y-86150000D02*
X107250000Y-101750000D01*
X107250000Y-101750000D02*
X87450000Y-101750000D01*
%TO.C,U6*%
X70480000Y-70690000D02*
X70480000Y-72340000D01*
X70480000Y-74340000D02*
X70480000Y-75990000D01*
X70480000Y-75990000D02*
X75680000Y-75990000D01*
X75680000Y-70690000D02*
X70480000Y-70690000D01*
X75680000Y-75990000D02*
X75680000Y-70690000D01*
X70480000Y-72340000D02*
G75*
G02*
X70480000Y-74340000I0J-1000000D01*
G01*
%TO.C,Q6*%
X67100000Y-77800000D02*
X67100000Y-74200000D01*
X62650000Y-76000000D02*
G75*
G02*
X67088478Y-74161522I2600000J0D01*
G01*
X67088478Y-77838478D02*
G75*
G02*
X62649999Y-76000000I-1838478J1838478D01*
G01*
%TO.C,R13*%
X104900000Y-138472500D02*
X104900000Y-140432500D01*
X104900000Y-151632500D02*
X104900000Y-149672500D01*
X106620000Y-140432500D02*
X103180000Y-140432500D01*
X103180000Y-149672500D01*
X106620000Y-149672500D01*
X106620000Y-140432500D01*
%TO.C,U7*%
X70480000Y-87060000D02*
X70480000Y-88710000D01*
X70480000Y-90710000D02*
X70480000Y-92360000D01*
X70480000Y-92360000D02*
X75680000Y-92360000D01*
X75680000Y-87060000D02*
X70480000Y-87060000D01*
X75680000Y-92360000D02*
X75680000Y-87060000D01*
X70480000Y-88710000D02*
G75*
G02*
X70480000Y-90710000I0J-1000000D01*
G01*
%TO.C,C2*%
X94230000Y-52630000D02*
X125970000Y-52630000D01*
X94230000Y-63870000D02*
X94230000Y-52630000D01*
X125970000Y-52630000D02*
X125970000Y-63870000D01*
X125970000Y-63870000D02*
X94230000Y-63870000D01*
%TO.C,D7*%
X86180000Y-92870000D02*
X86180000Y-92714000D01*
X86180000Y-95186000D02*
X86180000Y-95030000D01*
X82948563Y-92870000D02*
G75*
G02*
X86180000Y-92714484I1671437J-1080000D01*
G01*
X83579039Y-92870000D02*
G75*
G02*
X85660961Y-92870000I1040961J-1080000D01*
G01*
X85660961Y-95030000D02*
G75*
G02*
X83579039Y-95030000I-1040961J1080000D01*
G01*
X86180000Y-95185516D02*
G75*
G02*
X82948563Y-95030000I-1560000J1235516D01*
G01*
%TO.C,R25*%
X111750000Y-87670000D02*
X111750000Y-89630000D01*
X111750000Y-100830000D02*
X111750000Y-98870000D01*
X110030000Y-98870000D02*
X113470000Y-98870000D01*
X113470000Y-89630000D01*
X110030000Y-89630000D01*
X110030000Y-98870000D01*
%TO.C,D9*%
X27610000Y-156422500D02*
X28630000Y-156422500D01*
X29410000Y-154952500D02*
X29410000Y-157892500D01*
X29530000Y-154952500D02*
X29530000Y-157892500D01*
X29650000Y-154952500D02*
X29650000Y-157892500D01*
X35090000Y-156422500D02*
X34070000Y-156422500D01*
X28630000Y-154952500D02*
X34070000Y-154952500D01*
X34070000Y-157892500D01*
X28630000Y-157892500D01*
X28630000Y-154952500D01*
%TO.C,C4*%
X42370000Y-53500000D02*
G75*
G02*
X26130000Y-53500000I-8120000J0D01*
G01*
X26130000Y-53500000D02*
G75*
G02*
X42370000Y-53500000I8120000J0D01*
G01*
%TO.C,R28*%
X60550000Y-49350000D02*
X62510000Y-49350000D01*
X73710000Y-49350000D02*
X71750000Y-49350000D01*
X62510000Y-47630000D02*
X71750000Y-47630000D01*
X71750000Y-51070000D01*
X62510000Y-51070000D01*
X62510000Y-47630000D01*
%TO.C,K5*%
X103150000Y-185022500D02*
X103150000Y-165222500D01*
X104900000Y-170172500D02*
X104900000Y-172672500D01*
X106750000Y-180772500D02*
X109200000Y-180772500D01*
X107300000Y-176072500D02*
X107300000Y-169272500D01*
X109100000Y-170672500D02*
X112700000Y-170672500D01*
X109100000Y-172672500D02*
X104900000Y-172672500D01*
X109100000Y-174672500D02*
X109100000Y-170672500D01*
X109100000Y-174672500D02*
X112700000Y-170672500D01*
X109750000Y-165222500D02*
X103150000Y-165222500D01*
X110900000Y-169272500D02*
X107300000Y-169272500D01*
X110900000Y-169272500D02*
X110900000Y-168472500D01*
X110900000Y-176072500D02*
X107300000Y-176072500D01*
X110900000Y-176072500D02*
X110900000Y-177572500D01*
X110900000Y-177572500D02*
X113400000Y-182172500D01*
X112700000Y-170672500D02*
X112700000Y-174672500D01*
X112700000Y-174672500D02*
X109100000Y-174672500D01*
X115150000Y-180772500D02*
X112650000Y-180772500D01*
X116900000Y-172672500D02*
X112700000Y-172672500D01*
X116900000Y-172672500D02*
X116900000Y-170172500D01*
X118750000Y-165222500D02*
X112150000Y-165222500D01*
X118750000Y-165222500D02*
X118750000Y-185022500D01*
X118750000Y-185022500D02*
X103150000Y-185022500D01*
%TO.C,R3*%
X64270000Y-128172500D02*
X66230000Y-128172500D01*
X77430000Y-128172500D02*
X75470000Y-128172500D01*
X66230000Y-126452500D02*
X75470000Y-126452500D01*
X75470000Y-129892500D01*
X66230000Y-129892500D01*
X66230000Y-126452500D01*
%TO.C,D15*%
X77630000Y-112650000D02*
X80570000Y-112650000D01*
X77630000Y-112770000D02*
X80570000Y-112770000D01*
X77630000Y-112890000D02*
X80570000Y-112890000D01*
X79100000Y-107210000D02*
X79100000Y-108230000D01*
X79100000Y-114690000D02*
X79100000Y-113670000D01*
X77630000Y-113670000D02*
X80570000Y-113670000D01*
X80570000Y-108230000D01*
X77630000Y-108230000D01*
X77630000Y-113670000D01*
%TO.C,R21*%
X54770000Y-70350000D02*
X56730000Y-70350000D01*
X67930000Y-70350000D02*
X65970000Y-70350000D01*
X56730000Y-68630000D02*
X65970000Y-68630000D01*
X65970000Y-72070000D01*
X56730000Y-72070000D01*
X56730000Y-68630000D01*
%TO.C,K3*%
X63650000Y-184822500D02*
X63650000Y-165022500D01*
X65400000Y-169972500D02*
X65400000Y-172472500D01*
X67250000Y-180572500D02*
X69700000Y-180572500D01*
X67800000Y-175872500D02*
X67800000Y-169072500D01*
X69600000Y-170472500D02*
X73200000Y-170472500D01*
X69600000Y-172472500D02*
X65400000Y-172472500D01*
X69600000Y-174472500D02*
X69600000Y-170472500D01*
X69600000Y-174472500D02*
X73200000Y-170472500D01*
X70250000Y-165022500D02*
X63650000Y-165022500D01*
X71400000Y-169072500D02*
X67800000Y-169072500D01*
X71400000Y-169072500D02*
X71400000Y-168272500D01*
X71400000Y-175872500D02*
X67800000Y-175872500D01*
X71400000Y-175872500D02*
X71400000Y-177372500D01*
X71400000Y-177372500D02*
X73900000Y-181972500D01*
X73200000Y-170472500D02*
X73200000Y-174472500D01*
X73200000Y-174472500D02*
X69600000Y-174472500D01*
X75650000Y-180572500D02*
X73150000Y-180572500D01*
X77400000Y-172472500D02*
X73200000Y-172472500D01*
X77400000Y-172472500D02*
X77400000Y-169972500D01*
X79250000Y-165022500D02*
X72650000Y-165022500D01*
X79250000Y-165022500D02*
X79250000Y-184822500D01*
X79250000Y-184822500D02*
X63650000Y-184822500D01*
%TO.C,Q1*%
X30300000Y-144282500D02*
X33900000Y-144282500D01*
X30261522Y-144270978D02*
G75*
G02*
X32100000Y-139832499I1838478J1838478D01*
G01*
X32100000Y-139832500D02*
G75*
G02*
X33938478Y-144270978I0J-2600000D01*
G01*
%TO.C,D11*%
X67290000Y-156572500D02*
X68310000Y-156572500D01*
X69090000Y-155102500D02*
X69090000Y-158042500D01*
X69210000Y-155102500D02*
X69210000Y-158042500D01*
X69330000Y-155102500D02*
X69330000Y-158042500D01*
X74770000Y-156572500D02*
X73750000Y-156572500D01*
X68310000Y-155102500D02*
X73750000Y-155102500D01*
X73750000Y-158042500D01*
X68310000Y-158042500D01*
X68310000Y-155102500D01*
%TO.C,R8*%
X48250000Y-105670000D02*
X48250000Y-107630000D01*
X48250000Y-118830000D02*
X48250000Y-116870000D01*
X46530000Y-116870000D02*
X49970000Y-116870000D01*
X49970000Y-107630000D01*
X46530000Y-107630000D01*
X46530000Y-116870000D01*
%TO.C,K8*%
X87450000Y-103100000D02*
X87450000Y-109700000D01*
X87450000Y-103100000D02*
X107250000Y-103100000D01*
X87450000Y-112100000D02*
X87450000Y-118700000D01*
X91500000Y-110950000D02*
X90700000Y-110950000D01*
X91500000Y-110950000D02*
X91500000Y-114550000D01*
X92400000Y-116950000D02*
X94900000Y-116950000D01*
X92900000Y-109150000D02*
X96900000Y-109150000D01*
X92900000Y-112750000D02*
X92900000Y-109150000D01*
X94900000Y-104950000D02*
X92400000Y-104950000D01*
X94900000Y-104950000D02*
X94900000Y-109150000D01*
X94900000Y-112750000D02*
X94900000Y-116950000D01*
X96900000Y-109150000D02*
X96900000Y-112750000D01*
X96900000Y-112750000D02*
X92900000Y-109150000D01*
X96900000Y-112750000D02*
X92900000Y-112750000D01*
X98300000Y-110950000D02*
X98300000Y-114550000D01*
X98300000Y-110950000D02*
X99800000Y-110950000D01*
X98300000Y-114550000D02*
X91500000Y-114550000D01*
X99800000Y-110950000D02*
X104400000Y-108450000D01*
X103000000Y-106700000D02*
X103000000Y-109200000D01*
X103000000Y-115100000D02*
X103000000Y-112650000D01*
X107250000Y-103100000D02*
X107250000Y-118700000D01*
X107250000Y-118700000D02*
X87450000Y-118700000D01*
%TO.C,R4*%
X84740000Y-127822500D02*
X86700000Y-127822500D01*
X97900000Y-127822500D02*
X95940000Y-127822500D01*
X86700000Y-126102500D02*
X95940000Y-126102500D01*
X95940000Y-129542500D01*
X86700000Y-129542500D01*
X86700000Y-126102500D01*
%TO.C,Q8*%
X67150000Y-111500000D02*
X67150000Y-107900000D01*
X62700000Y-109700000D02*
G75*
G02*
X67138478Y-107861522I2600000J0D01*
G01*
X67138478Y-111538478D02*
G75*
G02*
X62699999Y-109700000I-1838478J1838478D01*
G01*
%TO.C,D12*%
X87470000Y-156622500D02*
X88490000Y-156622500D01*
X89270000Y-155152500D02*
X89270000Y-158092500D01*
X89390000Y-155152500D02*
X89390000Y-158092500D01*
X89510000Y-155152500D02*
X89510000Y-158092500D01*
X94950000Y-156622500D02*
X93930000Y-156622500D01*
X88490000Y-155152500D02*
X93930000Y-155152500D01*
X93930000Y-158092500D01*
X88490000Y-158092500D01*
X88490000Y-155152500D01*
%TO.C,PS1*%
X66442500Y-13212500D02*
X116162500Y-13212500D01*
X66442500Y-24376500D02*
X66442500Y-13212500D01*
X66442500Y-43932500D02*
X66442500Y-24968500D01*
X116162500Y-13212500D02*
X116162500Y-43932500D01*
X116162500Y-43932500D02*
X66442500Y-43932500D01*
X66442500Y-24672500D02*
X65832500Y-25112500D01*
X65832500Y-24232500D01*
X66442500Y-24672500D01*
G36*
X66442500Y-24672500D02*
G01*
X65832500Y-25112500D01*
X65832500Y-24232500D01*
X66442500Y-24672500D01*
G37*
%TO.C,K4*%
X83350000Y-184822500D02*
X83350000Y-165022500D01*
X85100000Y-169972500D02*
X85100000Y-172472500D01*
X86950000Y-180572500D02*
X89400000Y-180572500D01*
X87500000Y-175872500D02*
X87500000Y-169072500D01*
X89300000Y-170472500D02*
X92900000Y-170472500D01*
X89300000Y-172472500D02*
X85100000Y-172472500D01*
X89300000Y-174472500D02*
X89300000Y-170472500D01*
X89300000Y-174472500D02*
X92900000Y-170472500D01*
X89950000Y-165022500D02*
X83350000Y-165022500D01*
X91100000Y-169072500D02*
X87500000Y-169072500D01*
X91100000Y-169072500D02*
X91100000Y-168272500D01*
X91100000Y-175872500D02*
X87500000Y-175872500D01*
X91100000Y-175872500D02*
X91100000Y-177372500D01*
X91100000Y-177372500D02*
X93600000Y-181972500D01*
X92900000Y-170472500D02*
X92900000Y-174472500D01*
X92900000Y-174472500D02*
X89300000Y-174472500D01*
X95350000Y-180572500D02*
X92850000Y-180572500D01*
X97100000Y-172472500D02*
X92900000Y-172472500D01*
X97100000Y-172472500D02*
X97100000Y-169972500D01*
X98950000Y-165022500D02*
X92350000Y-165022500D01*
X98950000Y-165022500D02*
X98950000Y-184822500D01*
X98950000Y-184822500D02*
X83350000Y-184822500D01*
%TO.C,R23*%
X54750000Y-104350000D02*
X56710000Y-104350000D01*
X67910000Y-104350000D02*
X65950000Y-104350000D01*
X56710000Y-102630000D02*
X65950000Y-102630000D01*
X65950000Y-106070000D01*
X56710000Y-106070000D01*
X56710000Y-102630000D01*
%TO.C,R26*%
X101150000Y-49300000D02*
X103110000Y-49300000D01*
X114310000Y-49300000D02*
X112350000Y-49300000D01*
X103110000Y-47580000D02*
X112350000Y-47580000D01*
X112350000Y-51020000D01*
X103110000Y-51020000D01*
X103110000Y-47580000D01*
%TO.C,R16*%
X61000000Y-115850000D02*
X62960000Y-115850000D01*
X74160000Y-115850000D02*
X72200000Y-115850000D01*
X62960000Y-114130000D02*
X72200000Y-114130000D01*
X72200000Y-117570000D01*
X62960000Y-117570000D01*
X62960000Y-114130000D01*
%TO.C,F2*%
X117090000Y-95140000D02*
X117090000Y-117860000D01*
X117090000Y-95140000D02*
X120250000Y-95140000D01*
X117090000Y-117860000D02*
X120250000Y-117860000D01*
X123750000Y-95140000D02*
X126910000Y-95140000D01*
X123750000Y-117860000D02*
X126910000Y-117860000D01*
X126910000Y-95140000D02*
X126910000Y-117860000D01*
%TO.C,R22*%
X54800000Y-86700000D02*
X56760000Y-86700000D01*
X67960000Y-86700000D02*
X66000000Y-86700000D01*
X56760000Y-84980000D02*
X66000000Y-84980000D01*
X66000000Y-88420000D01*
X56760000Y-88420000D01*
X56760000Y-84980000D01*
%TO.C,D17*%
X18780000Y-71200000D02*
X21720000Y-71200000D01*
X18780000Y-71320000D02*
X21720000Y-71320000D01*
X18780000Y-71440000D02*
X21720000Y-71440000D01*
X20250000Y-65760000D02*
X20250000Y-66780000D01*
X20250000Y-73240000D02*
X20250000Y-72220000D01*
X18780000Y-72220000D02*
X21720000Y-72220000D01*
X21720000Y-66780000D01*
X18780000Y-66780000D01*
X18780000Y-72220000D01*
%TO.C,R5*%
X103070000Y-128272500D02*
X105030000Y-128272500D01*
X116230000Y-128272500D02*
X114270000Y-128272500D01*
X105030000Y-126552500D02*
X114270000Y-126552500D01*
X114270000Y-129992500D01*
X105030000Y-129992500D01*
X105030000Y-126552500D01*
%TO.C,U8*%
X70430000Y-104640000D02*
X70430000Y-106290000D01*
X70430000Y-108290000D02*
X70430000Y-109940000D01*
X70430000Y-109940000D02*
X75630000Y-109940000D01*
X75630000Y-104640000D02*
X70430000Y-104640000D01*
X75630000Y-109940000D02*
X75630000Y-104640000D01*
X70430000Y-106290000D02*
G75*
G02*
X70430000Y-108290000I0J-1000000D01*
G01*
%TO.C,U1*%
X32155000Y-147817500D02*
X32155000Y-153017500D01*
X32155000Y-153017500D02*
X37455000Y-153017500D01*
X33805000Y-147817500D02*
X32155000Y-147817500D01*
X37455000Y-147817500D02*
X35805000Y-147817500D01*
X37455000Y-153017500D02*
X37455000Y-147817500D01*
X35805000Y-147817500D02*
G75*
G02*
X33805000Y-147817500I-1000000J0D01*
G01*
%TO.C,J8*%
X103030000Y-186352500D02*
X118270000Y-186352500D01*
X103030000Y-189372500D02*
X118270000Y-189372500D01*
X103030000Y-194272500D02*
X118270000Y-194272500D01*
X103030000Y-195772500D02*
X118270000Y-195772500D01*
X103030000Y-196392500D02*
X103030000Y-186352500D01*
X105350000Y-196392500D02*
X103030000Y-196392500D01*
X118270000Y-186352500D02*
X118270000Y-196392500D01*
X118270000Y-196392500D02*
X105950000Y-196392500D01*
X106090000Y-197002500D02*
X105210000Y-197002500D01*
X105650000Y-196392500D01*
X106090000Y-197002500D01*
G36*
X106090000Y-197002500D02*
G01*
X105210000Y-197002500D01*
X105650000Y-196392500D01*
X106090000Y-197002500D01*
G37*
%TO.C,J3*%
X12530000Y-24340000D02*
X22570000Y-24340000D01*
X12530000Y-26700000D02*
X12530000Y-24340000D01*
X12530000Y-34740000D02*
X12530000Y-27300000D01*
X13150000Y-24340000D02*
X13150000Y-34740000D01*
X14650000Y-24340000D02*
X14650000Y-34740000D01*
X19550000Y-24340000D02*
X19550000Y-34740000D01*
X22570000Y-24340000D02*
X22570000Y-34740000D01*
X22570000Y-34740000D02*
X12530000Y-34740000D01*
X12530000Y-27000000D02*
X11920000Y-27440000D01*
X11920000Y-26560000D01*
X12530000Y-27000000D01*
G36*
X12530000Y-27000000D02*
G01*
X11920000Y-27440000D01*
X11920000Y-26560000D01*
X12530000Y-27000000D01*
G37*
%TO.C,Q5*%
X109130000Y-144822500D02*
X112730000Y-144822500D01*
X109091522Y-144810978D02*
G75*
G02*
X110930000Y-140372499I1838478J1838478D01*
G01*
X110930000Y-140372500D02*
G75*
G02*
X112768478Y-144810978I0J-2600000D01*
G01*
%TO.C,R9*%
X26150000Y-138372500D02*
X26150000Y-140332500D01*
X26150000Y-151532500D02*
X26150000Y-149572500D01*
X27870000Y-140332500D02*
X24430000Y-140332500D01*
X24430000Y-149572500D01*
X27870000Y-149572500D01*
X27870000Y-140332500D01*
%TO.C,J4*%
X23880000Y-186352500D02*
X39120000Y-186352500D01*
X23880000Y-189372500D02*
X39120000Y-189372500D01*
X23880000Y-194272500D02*
X39120000Y-194272500D01*
X23880000Y-195772500D02*
X39120000Y-195772500D01*
X23880000Y-196392500D02*
X23880000Y-186352500D01*
X26200000Y-196392500D02*
X23880000Y-196392500D01*
X39120000Y-186352500D02*
X39120000Y-196392500D01*
X39120000Y-196392500D02*
X26800000Y-196392500D01*
X26940000Y-197002500D02*
X26060000Y-197002500D01*
X26500000Y-196392500D01*
X26940000Y-197002500D01*
G36*
X26940000Y-197002500D02*
G01*
X26060000Y-197002500D01*
X26500000Y-196392500D01*
X26940000Y-197002500D01*
G37*
%TO.C,R17*%
X37800000Y-132272500D02*
X37800000Y-134232500D01*
X37800000Y-145432500D02*
X37800000Y-143472500D01*
X39520000Y-134232500D02*
X36080000Y-134232500D01*
X36080000Y-143472500D01*
X39520000Y-143472500D01*
X39520000Y-134232500D01*
%TO.C,R19*%
X77700000Y-132322500D02*
X77700000Y-134282500D01*
X77700000Y-145482500D02*
X77700000Y-143522500D01*
X79420000Y-134282500D02*
X75980000Y-134282500D01*
X75980000Y-143522500D01*
X79420000Y-143522500D01*
X79420000Y-134282500D01*
%TO.C,K2*%
X43800000Y-184722500D02*
X43800000Y-164922500D01*
X45550000Y-169872500D02*
X45550000Y-172372500D01*
X47400000Y-180472500D02*
X49850000Y-180472500D01*
X47950000Y-175772500D02*
X47950000Y-168972500D01*
X49750000Y-170372500D02*
X53350000Y-170372500D01*
X49750000Y-172372500D02*
X45550000Y-172372500D01*
X49750000Y-174372500D02*
X49750000Y-170372500D01*
X49750000Y-174372500D02*
X53350000Y-170372500D01*
X50400000Y-164922500D02*
X43800000Y-164922500D01*
X51550000Y-168972500D02*
X47950000Y-168972500D01*
X51550000Y-168972500D02*
X51550000Y-168172500D01*
X51550000Y-175772500D02*
X47950000Y-175772500D01*
X51550000Y-175772500D02*
X51550000Y-177272500D01*
X51550000Y-177272500D02*
X54050000Y-181872500D01*
X53350000Y-170372500D02*
X53350000Y-174372500D01*
X53350000Y-174372500D02*
X49750000Y-174372500D01*
X55800000Y-180472500D02*
X53300000Y-180472500D01*
X57550000Y-172372500D02*
X53350000Y-172372500D01*
X57550000Y-172372500D02*
X57550000Y-169872500D01*
X59400000Y-164922500D02*
X52800000Y-164922500D01*
X59400000Y-164922500D02*
X59400000Y-184722500D01*
X59400000Y-184722500D02*
X43800000Y-184722500D01*
%TO.C,R14*%
X61000000Y-82100000D02*
X62960000Y-82100000D01*
X74160000Y-82100000D02*
X72200000Y-82100000D01*
X62960000Y-80380000D02*
X72200000Y-80380000D01*
X72200000Y-83820000D01*
X62960000Y-83820000D01*
X62960000Y-80380000D01*
%TO.C,R29*%
X52000000Y-49170000D02*
X52000000Y-51130000D01*
X52000000Y-62330000D02*
X52000000Y-60370000D01*
X53720000Y-51130000D02*
X50280000Y-51130000D01*
X50280000Y-60370000D01*
X53720000Y-60370000D01*
X53720000Y-51130000D01*
%TO.C,U4*%
X92405000Y-147767500D02*
X92405000Y-152967500D01*
X92405000Y-152967500D02*
X97705000Y-152967500D01*
X94055000Y-147767500D02*
X92405000Y-147767500D01*
X97705000Y-147767500D02*
X96055000Y-147767500D01*
X97705000Y-152967500D02*
X97705000Y-147767500D01*
X96055000Y-147767500D02*
G75*
G02*
X94055000Y-147767500I-1000000J0D01*
G01*
%TO.C,R27*%
X91100000Y-49050000D02*
X91100000Y-51010000D01*
X91100000Y-62210000D02*
X91100000Y-60250000D01*
X92820000Y-51010000D02*
X89380000Y-51010000D01*
X89380000Y-60250000D01*
X92820000Y-60250000D01*
X92820000Y-51010000D01*
%TO.C,D4*%
X89610000Y-160436500D02*
X89610000Y-160592500D01*
X89610000Y-162752500D02*
X89610000Y-162908500D01*
X89610000Y-160436984D02*
G75*
G02*
X92841437Y-160592500I1560000J-1235516D01*
G01*
X90129039Y-160592500D02*
G75*
G02*
X92210961Y-160592500I1040961J-1080000D01*
G01*
X92210961Y-162752500D02*
G75*
G02*
X90129039Y-162752500I-1040961J1080000D01*
G01*
X92841437Y-162752500D02*
G75*
G02*
X89610000Y-162908016I-1671437J1080000D01*
G01*
%TO.C,K1*%
X23550000Y-184722500D02*
X23550000Y-164922500D01*
X25300000Y-169872500D02*
X25300000Y-172372500D01*
X27150000Y-180472500D02*
X29600000Y-180472500D01*
X27700000Y-175772500D02*
X27700000Y-168972500D01*
X29500000Y-170372500D02*
X33100000Y-170372500D01*
X29500000Y-172372500D02*
X25300000Y-172372500D01*
X29500000Y-174372500D02*
X29500000Y-170372500D01*
X29500000Y-174372500D02*
X33100000Y-170372500D01*
X30150000Y-164922500D02*
X23550000Y-164922500D01*
X31300000Y-168972500D02*
X27700000Y-168972500D01*
X31300000Y-168972500D02*
X31300000Y-168172500D01*
X31300000Y-175772500D02*
X27700000Y-175772500D01*
X31300000Y-175772500D02*
X31300000Y-177272500D01*
X31300000Y-177272500D02*
X33800000Y-181872500D01*
X33100000Y-170372500D02*
X33100000Y-174372500D01*
X33100000Y-174372500D02*
X29500000Y-174372500D01*
X35550000Y-180472500D02*
X33050000Y-180472500D01*
X37300000Y-172372500D02*
X33100000Y-172372500D01*
X37300000Y-172372500D02*
X37300000Y-169872500D01*
X39150000Y-164922500D02*
X32550000Y-164922500D01*
X39150000Y-164922500D02*
X39150000Y-184722500D01*
X39150000Y-184722500D02*
X23550000Y-184722500D01*
%TO.C,R10*%
X46250000Y-138412500D02*
X46250000Y-140372500D01*
X46250000Y-151572500D02*
X46250000Y-149612500D01*
X47970000Y-140372500D02*
X44530000Y-140372500D01*
X44530000Y-149612500D01*
X47970000Y-149612500D01*
X47970000Y-140372500D01*
%TO.C,C1*%
X109380000Y-65130000D02*
X114620000Y-65130000D01*
X109380000Y-83370000D02*
X109380000Y-65130000D01*
X114620000Y-65130000D02*
X114620000Y-83370000D01*
X114620000Y-83370000D02*
X109380000Y-83370000D01*
%TO.C,Q2*%
X50700000Y-144482500D02*
X54300000Y-144482500D01*
X50661522Y-144470978D02*
G75*
G02*
X52500000Y-140032499I1838478J1838478D01*
G01*
X52500000Y-140032500D02*
G75*
G02*
X54338478Y-144470978I0J-2600000D01*
G01*
%TO.C,J1*%
X18420000Y-104440000D02*
X18420000Y-122280000D01*
X18420000Y-104440000D02*
X21080000Y-104440000D01*
X18420000Y-122280000D02*
X21080000Y-122280000D01*
X19750000Y-101840000D02*
X21080000Y-101840000D01*
X21080000Y-101840000D02*
X21080000Y-103170000D01*
X21080000Y-104440000D02*
X21080000Y-122280000D01*
%TO.C,J9*%
X118430000Y-77130000D02*
X128470000Y-77130000D01*
X118430000Y-92370000D02*
X118430000Y-77130000D01*
X121450000Y-92370000D02*
X121450000Y-77130000D01*
X126350000Y-92370000D02*
X126350000Y-77130000D01*
X127850000Y-92370000D02*
X127850000Y-77130000D01*
X128470000Y-77130000D02*
X128470000Y-89450000D01*
X128470000Y-90050000D02*
X128470000Y-92370000D01*
X128470000Y-92370000D02*
X118430000Y-92370000D01*
X129080000Y-90190000D02*
X128470000Y-89750000D01*
X129080000Y-89310000D01*
X129080000Y-90190000D01*
G36*
X129080000Y-90190000D02*
G01*
X128470000Y-89750000D01*
X129080000Y-89310000D01*
X129080000Y-90190000D01*
G37*
%TO.C,C3*%
X55980000Y-53380000D02*
X87720000Y-53380000D01*
X55980000Y-64620000D02*
X55980000Y-53380000D01*
X87720000Y-53380000D02*
X87720000Y-64620000D01*
X87720000Y-64620000D02*
X55980000Y-64620000D01*
%TO.C,F1*%
X37690000Y-14312500D02*
X60410000Y-14312500D01*
X37690000Y-17472500D02*
X37690000Y-14312500D01*
X37690000Y-24132500D02*
X37690000Y-20972500D01*
X37690000Y-24132500D02*
X60410000Y-24132500D01*
X60410000Y-17472500D02*
X60410000Y-14312500D01*
X60410000Y-24132500D02*
X60410000Y-20972500D01*
%TO.C,D8*%
X86160000Y-109820000D02*
X86160000Y-109664000D01*
X86160000Y-112136000D02*
X86160000Y-111980000D01*
X82928563Y-109820000D02*
G75*
G02*
X86160000Y-109664484I1671437J-1080000D01*
G01*
X83559039Y-109820000D02*
G75*
G02*
X85640961Y-109820000I1040961J-1080000D01*
G01*
X85640961Y-111980000D02*
G75*
G02*
X83559039Y-111980000I-1040961J1080000D01*
G01*
X86160000Y-112135516D02*
G75*
G02*
X82928563Y-111980000I-1560000J1235516D01*
G01*
%TO.C,J2*%
X33670000Y-104440000D02*
X33670000Y-122280000D01*
X33670000Y-104440000D02*
X36330000Y-104440000D01*
X33670000Y-122280000D02*
X36330000Y-122280000D01*
X35000000Y-101840000D02*
X36330000Y-101840000D01*
X36330000Y-101840000D02*
X36330000Y-103170000D01*
X36330000Y-104440000D02*
X36330000Y-122280000D01*
%TO.C,D1*%
X29820000Y-160436500D02*
X29820000Y-160592500D01*
X29820000Y-162752500D02*
X29820000Y-162908500D01*
X29820000Y-160436984D02*
G75*
G02*
X33051437Y-160592500I1560000J-1235516D01*
G01*
X30339039Y-160592500D02*
G75*
G02*
X32420961Y-160592500I1040961J-1080000D01*
G01*
X32420961Y-162752500D02*
G75*
G02*
X30339039Y-162752500I-1040961J1080000D01*
G01*
X33051437Y-162752500D02*
G75*
G02*
X29820000Y-162908016I-1671437J1080000D01*
G01*
%TO.C,D6*%
X86110000Y-76070000D02*
X86110000Y-75914000D01*
X86110000Y-78386000D02*
X86110000Y-78230000D01*
X82878563Y-76070000D02*
G75*
G02*
X86110000Y-75914484I1671437J-1080000D01*
G01*
X83509039Y-76070000D02*
G75*
G02*
X85590961Y-76070000I1040961J-1080000D01*
G01*
X85590961Y-78230000D02*
G75*
G02*
X83509039Y-78230000I-1040961J1080000D01*
G01*
X86110000Y-78385516D02*
G75*
G02*
X82878563Y-78230000I-1560000J1235516D01*
G01*
%TO.C,D13*%
X107320000Y-156422500D02*
X108340000Y-156422500D01*
X109120000Y-154952500D02*
X109120000Y-157892500D01*
X109240000Y-154952500D02*
X109240000Y-157892500D01*
X109360000Y-154952500D02*
X109360000Y-157892500D01*
X114800000Y-156422500D02*
X113780000Y-156422500D01*
X108340000Y-154952500D02*
X113780000Y-154952500D01*
X113780000Y-157892500D01*
X108340000Y-157892500D01*
X108340000Y-154952500D01*
%TO.C,Q3*%
X70180000Y-144422500D02*
X73780000Y-144422500D01*
X70141522Y-144410978D02*
G75*
G02*
X71980000Y-139972499I1838478J1838478D01*
G01*
X71980000Y-139972500D02*
G75*
G02*
X73818478Y-144410978I0J-2600000D01*
G01*
%TO.C,R11*%
X65900000Y-138462500D02*
X65900000Y-140422500D01*
X65900000Y-151622500D02*
X65900000Y-149662500D01*
X67620000Y-140422500D02*
X64180000Y-140422500D01*
X64180000Y-149662500D01*
X67620000Y-149662500D01*
X67620000Y-140422500D01*
D12*
%TO.C,RV1*%
X42300000Y-32172500D02*
X42300000Y-39172500D01*
X42300000Y-32172500D02*
X59100000Y-32172500D01*
X42300000Y-39172500D02*
X59100000Y-39172500D01*
X59100000Y-32172500D02*
X59100000Y-39172500D01*
D13*
%TO.C,D5*%
X109400000Y-160436500D02*
X109400000Y-160592500D01*
X109400000Y-162752500D02*
X109400000Y-162908500D01*
X109400000Y-160436984D02*
G75*
G02*
X112631437Y-160592500I1560000J-1235516D01*
G01*
X109919039Y-160592500D02*
G75*
G02*
X112000961Y-160592500I1040961J-1080000D01*
G01*
X112000961Y-162752500D02*
G75*
G02*
X109919039Y-162752500I-1040961J1080000D01*
G01*
X112631437Y-162752500D02*
G75*
G02*
X109400000Y-162908016I-1671437J1080000D01*
G01*
%TO.C,Q4*%
X90580000Y-144422500D02*
X94180000Y-144422500D01*
X90541522Y-144410978D02*
G75*
G02*
X92380000Y-139972499I1838478J1838478D01*
G01*
X92380000Y-139972500D02*
G75*
G02*
X94218478Y-144410978I0J-2600000D01*
G01*
%TO.C,R12*%
X86000000Y-138562500D02*
X86000000Y-140522500D01*
X86000000Y-151722500D02*
X86000000Y-149762500D01*
X87720000Y-140522500D02*
X84280000Y-140522500D01*
X84280000Y-149762500D01*
X87720000Y-149762500D01*
X87720000Y-140522500D01*
%TO.C,D10*%
X47690000Y-156522500D02*
X48710000Y-156522500D01*
X49490000Y-155052500D02*
X49490000Y-157992500D01*
X49610000Y-155052500D02*
X49610000Y-157992500D01*
X49730000Y-155052500D02*
X49730000Y-157992500D01*
X55170000Y-156522500D02*
X54150000Y-156522500D01*
X48710000Y-155052500D02*
X54150000Y-155052500D01*
X54150000Y-157992500D01*
X48710000Y-157992500D01*
X48710000Y-155052500D01*
%TO.C,R7*%
X48250000Y-87170000D02*
X48250000Y-89130000D01*
X48250000Y-100330000D02*
X48250000Y-98370000D01*
X46530000Y-98370000D02*
X49970000Y-98370000D01*
X49970000Y-89130000D01*
X46530000Y-89130000D01*
X46530000Y-98370000D01*
%TO.C,R1*%
X24400000Y-128222500D02*
X26360000Y-128222500D01*
X37560000Y-128222500D02*
X35600000Y-128222500D01*
X26360000Y-126502500D02*
X35600000Y-126502500D01*
X35600000Y-129942500D01*
X26360000Y-129942500D01*
X26360000Y-126502500D01*
%TO.C,D14*%
X77580000Y-78750000D02*
X80520000Y-78750000D01*
X77580000Y-78870000D02*
X80520000Y-78870000D01*
X77580000Y-78990000D02*
X80520000Y-78990000D01*
X79050000Y-73310000D02*
X79050000Y-74330000D01*
X79050000Y-80790000D02*
X79050000Y-79770000D01*
X77580000Y-79770000D02*
X80520000Y-79770000D01*
X80520000Y-74330000D01*
X77580000Y-74330000D01*
X77580000Y-79770000D01*
D12*
%TO.C,RV2*%
X109350000Y-104350000D02*
X109350000Y-121150000D01*
X116350000Y-104350000D02*
X109350000Y-104350000D01*
X116350000Y-104350000D02*
X116350000Y-121150000D01*
X116350000Y-121150000D02*
X109350000Y-121150000D01*
D13*
%TO.C,R6*%
X48000000Y-68300000D02*
X48000000Y-70260000D01*
X48000000Y-81460000D02*
X48000000Y-79500000D01*
X46280000Y-79500000D02*
X49720000Y-79500000D01*
X49720000Y-70260000D01*
X46280000Y-70260000D01*
X46280000Y-79500000D01*
%TO.C,K6*%
X87450000Y-69200000D02*
X87450000Y-75800000D01*
X87450000Y-69200000D02*
X107250000Y-69200000D01*
X87450000Y-78200000D02*
X87450000Y-84800000D01*
X91500000Y-77050000D02*
X90700000Y-77050000D01*
X91500000Y-77050000D02*
X91500000Y-80650000D01*
X92400000Y-83050000D02*
X94900000Y-83050000D01*
X92900000Y-75250000D02*
X96900000Y-75250000D01*
X92900000Y-78850000D02*
X92900000Y-75250000D01*
X94900000Y-71050000D02*
X92400000Y-71050000D01*
X94900000Y-71050000D02*
X94900000Y-75250000D01*
X94900000Y-78850000D02*
X94900000Y-83050000D01*
X96900000Y-75250000D02*
X96900000Y-78850000D01*
X96900000Y-78850000D02*
X92900000Y-75250000D01*
X96900000Y-78850000D02*
X92900000Y-78850000D01*
X98300000Y-77050000D02*
X98300000Y-80650000D01*
X98300000Y-77050000D02*
X99800000Y-77050000D01*
X98300000Y-80650000D02*
X91500000Y-80650000D01*
X99800000Y-77050000D02*
X104400000Y-74550000D01*
X103000000Y-72800000D02*
X103000000Y-75300000D01*
X103000000Y-81200000D02*
X103000000Y-78750000D01*
X107250000Y-69200000D02*
X107250000Y-84800000D01*
X107250000Y-84800000D02*
X87450000Y-84800000D01*
%TO.C,D18*%
X25280000Y-70950000D02*
X28220000Y-70950000D01*
X25280000Y-71070000D02*
X28220000Y-71070000D01*
X25280000Y-71190000D02*
X28220000Y-71190000D01*
X26750000Y-65510000D02*
X26750000Y-66530000D01*
X26750000Y-72990000D02*
X26750000Y-71970000D01*
X25280000Y-71970000D02*
X28220000Y-71970000D01*
X28220000Y-66530000D01*
X25280000Y-66530000D01*
X25280000Y-71970000D01*
%TO.C,J6*%
X63780000Y-186352500D02*
X79020000Y-186352500D01*
X63780000Y-189372500D02*
X79020000Y-189372500D01*
X63780000Y-194272500D02*
X79020000Y-194272500D01*
X63780000Y-195772500D02*
X79020000Y-195772500D01*
X63780000Y-196392500D02*
X63780000Y-186352500D01*
X66100000Y-196392500D02*
X63780000Y-196392500D01*
X79020000Y-186352500D02*
X79020000Y-196392500D01*
X79020000Y-196392500D02*
X66700000Y-196392500D01*
X66840000Y-197002500D02*
X65960000Y-197002500D01*
X66400000Y-196392500D01*
X66840000Y-197002500D01*
G36*
X66840000Y-197002500D02*
G01*
X65960000Y-197002500D01*
X66400000Y-196392500D01*
X66840000Y-197002500D01*
G37*
%TO.C,Q7*%
X67250000Y-94120000D02*
X67250000Y-90520000D01*
X62800000Y-92320000D02*
G75*
G02*
X67238478Y-90481522I2600000J0D01*
G01*
X67238478Y-94158478D02*
G75*
G02*
X62799999Y-92320000I-1838478J1838478D01*
G01*
%TD*%
M02*
