M48
; DRILL file {KiCad 9.0.7} date 2026-01-07T21:02:33+0530
; FORMAT={-:-/ absolute / metric / decimal}
; #@! TF.CreationDate,2026-01-07T21:02:33+05:30
; #@! TF.GenerationSoftware,Kicad,Pcbnew,9.0.7
; #@! TF.FileFunction,Plated,1,2,PTH
FMAT,2
METRIC
; #@! TA.AperFunction,Plated,PTH,ViaDrill
T1C0.300
; #@! TA.AperFunction,Plated,PTH,ComponentDrill
T2C0.700
; #@! TA.AperFunction,Plated,PTH,ComponentDrill
T3C0.800
; #@! TA.AperFunction,Plated,PTH,ComponentDrill
T4C0.900
; #@! TA.AperFunction,Plated,PTH,ComponentDrill
T5C0.950
; #@! TA.AperFunction,Plated,PTH,ComponentDrill
T6C1.000
; #@! TA.AperFunction,Plated,PTH,ComponentDrill
T7C1.100
; #@! TA.AperFunction,Plated,PTH,ComponentDrill
T8C2.300
; #@! TA.AperFunction,Plated,PTH,ComponentDrill
T9C3.200
%
G90
G05
T1
X38.45Y-72.25
X41.5Y-67.35
X50.5Y-77.75
X54.099Y-104.379
X114.6Y-107.45
T2
X28.23Y-55.0
X35.85Y-55.0
X129.83Y-112.5
X130.14Y-96.0
X130.14Y-101.15
X130.33Y-106.65
X137.45Y-112.5
X137.76Y-96.0
X137.76Y-101.15
X137.95Y-106.65
T3
X32.35Y-44.5
X37.35Y-44.5
X38.964Y-88.679
X38.964Y-95.229
X38.964Y-101.779
X38.964Y-108.329
X41.464Y-88.679
X41.464Y-95.229
X41.464Y-101.779
X41.464Y-108.329
X43.35Y-45.0
X44.35Y-55.0
X45.85Y-45.0
X49.35Y-55.0
X56.85Y-31.92
X56.85Y-34.46
X56.85Y-37.0
X72.995Y-108.55
X74.94Y-86.99
X74.94Y-91.99
X74.94Y-94.99
X74.94Y-99.99
X75.495Y-108.55
X82.44Y-91.49
X82.44Y-96.37
X118.44Y-38.16
X118.44Y-40.7
X118.44Y-43.24
X118.44Y-45.78
X118.44Y-48.32
X118.44Y-50.86
X118.44Y-53.4
X118.44Y-55.94
X118.44Y-58.48
T4
X57.85Y-47.46
X57.85Y-50.0
X108.185Y-111.8
X110.725Y-111.8
T5
X25.587Y-69.0
X25.587Y-71.5
X27.587Y-69.0
X27.587Y-71.5
T6
X15.77Y-43.42
X15.77Y-48.5
X20.85Y-43.42
X20.85Y-48.5
X26.779Y-96.424
X26.779Y-99.194
X26.779Y-101.964
X26.779Y-104.734
X29.619Y-95.039
X29.619Y-97.809
X29.619Y-100.579
X29.619Y-103.349
X29.619Y-106.119
X32.55Y-77.75
X37.55Y-77.75
X43.3Y-77.75
X48.3Y-77.75
X60.05Y-61.35
X60.05Y-63.89
X60.05Y-66.43
X60.1Y-74.975
X60.1Y-77.515
X71.9Y-28.29
X71.9Y-30.83
X71.9Y-33.37
X71.9Y-35.91
X71.9Y-38.45
X71.9Y-59.79
X71.9Y-62.33
X71.9Y-64.87
X71.9Y-67.41
X71.9Y-69.95
X74.44Y-28.29
X74.44Y-30.83
X74.44Y-33.37
X74.44Y-35.91
X74.44Y-38.45
X74.44Y-59.79
X74.44Y-62.33
X74.44Y-64.87
X74.44Y-67.41
X74.44Y-69.95
X92.75Y-37.75
X92.75Y-40.29
X92.75Y-42.83
X92.75Y-45.37
X92.75Y-47.91
X92.75Y-50.45
X92.75Y-52.99
X92.75Y-55.53
X92.75Y-58.07
X92.75Y-60.61
X92.75Y-63.15
X92.75Y-65.69
X92.75Y-68.23
X92.75Y-70.77
X92.75Y-73.31
X92.75Y-75.85
X92.75Y-78.39
X92.75Y-80.93
X92.75Y-83.47
X92.75Y-86.01
X107.99Y-37.75
X107.99Y-40.29
X107.99Y-42.83
X107.99Y-45.37
X107.99Y-47.91
X107.99Y-50.45
X107.99Y-52.99
X107.99Y-55.53
X107.99Y-58.07
X107.99Y-60.61
X107.99Y-63.15
X107.99Y-65.69
X107.99Y-68.23
X107.99Y-70.77
X107.99Y-73.31
X107.99Y-75.85
X107.99Y-78.39
X107.99Y-80.93
X107.99Y-83.47
X107.99Y-86.01
X117.9Y-28.2
X117.9Y-33.2
X132.41Y-41.54
X132.41Y-44.08
X132.41Y-46.62
X132.41Y-49.16
X132.41Y-51.7
X132.91Y-73.04
X132.91Y-75.58
X132.91Y-78.12
X132.91Y-80.66
X132.91Y-83.2
X134.95Y-41.54
X134.95Y-44.08
X134.95Y-46.62
X134.95Y-49.16
X134.95Y-51.7
X135.45Y-73.04
X135.45Y-75.58
X135.45Y-78.12
X135.45Y-80.66
X135.45Y-83.2
X155.4Y-85.37
X155.4Y-87.91
X155.4Y-90.45
X155.4Y-92.99
X155.4Y-95.53
X155.4Y-98.07
X155.4Y-100.61
X155.4Y-103.15
X155.4Y-105.69
X155.4Y-108.23
X155.44Y-35.37
X155.44Y-37.91
X155.44Y-40.45
X155.44Y-42.99
X155.44Y-45.53
X155.44Y-48.07
X155.44Y-50.61
X155.44Y-53.15
X155.44Y-55.69
X155.44Y-58.23
X157.94Y-85.37
X157.94Y-87.91
X157.94Y-90.45
X157.94Y-92.99
X157.94Y-95.53
X157.94Y-98.07
X157.94Y-100.61
X157.94Y-103.15
X157.94Y-105.69
X157.94Y-108.23
X157.98Y-35.37
X157.98Y-37.91
X157.98Y-40.45
X157.98Y-42.99
X157.98Y-45.53
X157.98Y-48.07
X157.98Y-50.61
X157.98Y-53.15
X157.98Y-55.69
X157.98Y-58.23
T7
X38.77Y-34.0
X41.31Y-34.0
X43.85Y-34.0
X81.7Y-106.55
X81.7Y-111.05
X88.2Y-106.55
X88.2Y-111.05
X96.45Y-106.8
X96.45Y-111.3
X102.95Y-106.8
X102.95Y-111.3
X117.95Y-107.1
X117.95Y-111.6
X124.45Y-107.1
X124.45Y-111.6
T8
X22.727Y-64.25
X22.727Y-76.25
T9
X17.45Y-129.25
X18.25Y-18.45
X28.199Y-88.079
X28.199Y-113.079
X168.6Y-19.2
X169.95Y-127.45
T6
G00X20.35Y-31.0
M15
G01X20.35Y-33.0
M16
G05
G00X22.35Y-36.7
M15
G01X24.35Y-36.7
M16
G05
G00X26.35Y-31.0
M15
G01X26.35Y-33.0
M16
G05
M30
