%TF.GenerationSoftware,KiCad,Pcbnew,9.0.7*%
%TF.CreationDate,2026-01-07T21:02:37+05:30*%
%TF.ProjectId,PCB Design,50434220-4465-4736-9967-6e2e6b696361,rev?*%
%TF.SameCoordinates,Original*%
%TF.FileFunction,Copper,L2,Bot*%
%TF.FilePolarity,Positive*%
%FSLAX46Y46*%
G04 Gerber Fmt 4.6, Leading zero omitted, Abs format (unit mm)*
G04 Created by KiCad (PCBNEW 9.0.7) date 2026-01-07 21:02:37*
%MOMM*%
%LPD*%
G01*
G04 APERTURE LIST*
G04 Aperture macros list*
%AMRoundRect*
0 Rectangle with rounded corners*
0 $1 Rounding radius*
0 $2 $3 $4 $5 $6 $7 $8 $9 X,Y pos of 4 corners*
0 Add a 4 corners polygon primitive as box body*
4,1,4,$2,$3,$4,$5,$6,$7,$8,$9,$2,$3,0*
0 Add four circle primitives for the rounded corners*
1,1,$1+$1,$2,$3*
1,1,$1+$1,$4,$5*
1,1,$1+$1,$6,$7*
1,1,$1+$1,$8,$9*
0 Add four rect primitives between the rounded corners*
20,1,$1+$1,$2,$3,$4,$5,0*
20,1,$1+$1,$4,$5,$6,$7,0*
20,1,$1+$1,$6,$7,$8,$9,0*
20,1,$1+$1,$8,$9,$2,$3,0*%
G04 Aperture macros list end*
%TA.AperFunction,ComponentPad*%
%ADD10R,1.905000X2.000000*%
%TD*%
%TA.AperFunction,ComponentPad*%
%ADD11O,1.905000X2.000000*%
%TD*%
%TA.AperFunction,ComponentPad*%
%ADD12RoundRect,0.250000X-0.550000X-0.550000X0.550000X-0.550000X0.550000X0.550000X-0.550000X0.550000X0*%
%TD*%
%TA.AperFunction,ComponentPad*%
%ADD13C,1.600000*%
%TD*%
%TA.AperFunction,ComponentPad*%
%ADD14RoundRect,0.250000X-0.600000X-0.600000X0.600000X-0.600000X0.600000X0.600000X-0.600000X0.600000X0*%
%TD*%
%TA.AperFunction,ComponentPad*%
%ADD15C,1.700000*%
%TD*%
%TA.AperFunction,ComponentPad*%
%ADD16R,1.700000X1.700000*%
%TD*%
%TA.AperFunction,ComponentPad*%
%ADD17C,2.000000*%
%TD*%
%TA.AperFunction,ComponentPad*%
%ADD18O,2.000000X1.440000*%
%TD*%
%TA.AperFunction,ComponentPad*%
%ADD19R,2.000000X1.440000*%
%TD*%
%TA.AperFunction,ComponentPad*%
%ADD20R,1.500000X1.500000*%
%TD*%
%TA.AperFunction,ComponentPad*%
%ADD21R,1.600000X1.600000*%
%TD*%
%TA.AperFunction,ComponentPad*%
%ADD22C,4.000000*%
%TD*%
%TA.AperFunction,ComponentPad*%
%ADD23RoundRect,0.875000X-0.875000X-0.875000X0.875000X-0.875000X0.875000X0.875000X-0.875000X0.875000X0*%
%TD*%
%TA.AperFunction,ComponentPad*%
%ADD24RoundRect,0.750000X-0.750000X-1.000000X0.750000X-1.000000X0.750000X1.000000X-0.750000X1.000000X0*%
%TD*%
%TA.AperFunction,ComponentPad*%
%ADD25R,3.500000X3.500000*%
%TD*%
%TA.AperFunction,ComponentPad*%
%ADD26C,1.400000*%
%TD*%
%TA.AperFunction,ComponentPad*%
%ADD27C,3.600000*%
%TD*%
%TA.AperFunction,ConnectorPad*%
%ADD28C,5.600000*%
%TD*%
%TA.AperFunction,ComponentPad*%
%ADD29R,1.800000X1.800000*%
%TD*%
%TA.AperFunction,ComponentPad*%
%ADD30C,1.800000*%
%TD*%
%TA.AperFunction,ComponentPad*%
%ADD31R,2.000000X2.000000*%
%TD*%
%TA.AperFunction,ComponentPad*%
%ADD32O,2.000000X2.000000*%
%TD*%
%TA.AperFunction,ComponentPad*%
%ADD33C,1.500000*%
%TD*%
%TA.AperFunction,ViaPad*%
%ADD34C,0.600000*%
%TD*%
%TA.AperFunction,Conductor*%
%ADD35C,0.200000*%
%TD*%
G04 APERTURE END LIST*
D10*
%TO.P,U2,1,IN*%
%TO.N,Net-(D2-+)*%
X38770000Y-34000000D03*
D11*
%TO.P,U2,2,GND*%
%TO.N,GND*%
X41310000Y-34000000D03*
%TO.P,U2,3,OUT*%
%TO.N,Net-(SW2-A)*%
X43850000Y-34000000D03*
%TD*%
D12*
%TO.P,C4,1*%
%TO.N,Net-(D2-+)*%
X32350000Y-44500000D03*
D13*
%TO.P,C4,2*%
%TO.N,GND*%
X37350000Y-44500000D03*
%TD*%
D14*
%TO.P,J8,1,Pin_1*%
%TO.N,/P0_0*%
X155400000Y-85370000D03*
D15*
%TO.P,J8,2,Pin_2*%
%TO.N,/P0_1*%
X157940000Y-85370000D03*
%TO.P,J8,3,Pin_3*%
%TO.N,/P0_2*%
X155400000Y-87910000D03*
%TO.P,J8,4,Pin_4*%
%TO.N,/P0_3*%
X157940000Y-87910000D03*
%TO.P,J8,5,Pin_5*%
%TO.N,/P0_4*%
X155400000Y-90450000D03*
%TO.P,J8,6,Pin_6*%
%TO.N,/P0_5*%
X157940000Y-90450000D03*
%TO.P,J8,7,Pin_7*%
%TO.N,/P0_6*%
X155400000Y-92990000D03*
%TO.P,J8,8,Pin_8*%
%TO.N,/P0_7*%
X157940000Y-92990000D03*
%TO.P,J8,9,Pin_9*%
%TO.N,/P2_0*%
X155400000Y-95530000D03*
%TO.P,J8,10,Pin_10*%
%TO.N,/P2_1*%
X157940000Y-95530000D03*
%TO.P,J8,11,Pin_11*%
%TO.N,/P2_2*%
X155400000Y-98070000D03*
%TO.P,J8,12,Pin_12*%
%TO.N,/P2_3*%
X157940000Y-98070000D03*
%TO.P,J8,13,Pin_13*%
%TO.N,/P2_4*%
X155400000Y-100610000D03*
%TO.P,J8,14,Pin_14*%
%TO.N,/P2_5*%
X157940000Y-100610000D03*
%TO.P,J8,15,Pin_15*%
%TO.N,/P2_6*%
X155400000Y-103150000D03*
%TO.P,J8,16,Pin_16*%
%TO.N,/P2_7*%
X157940000Y-103150000D03*
%TO.P,J8,17,Pin_17*%
%TO.N,VCC*%
X155400000Y-105690000D03*
%TO.P,J8,18,Pin_18*%
%TO.N,GND*%
X157940000Y-105690000D03*
%TO.P,J8,19,Pin_19*%
%TO.N,VCC*%
X155400000Y-108230000D03*
%TO.P,J8,20,Pin_20*%
%TO.N,GND*%
X157940000Y-108230000D03*
%TD*%
D14*
%TO.P,J6,1,Pin_1*%
%TO.N,/P1_0*%
X155440000Y-35370000D03*
D15*
%TO.P,J6,2,Pin_2*%
%TO.N,/P1_1*%
X157980000Y-35370000D03*
%TO.P,J6,3,Pin_3*%
%TO.N,/P1_2*%
X155440000Y-37910000D03*
%TO.P,J6,4,Pin_4*%
%TO.N,/P1_3*%
X157980000Y-37910000D03*
%TO.P,J6,5,Pin_5*%
%TO.N,/P1_4*%
X155440000Y-40450000D03*
%TO.P,J6,6,Pin_6*%
%TO.N,/P1_5*%
X157980000Y-40450000D03*
%TO.P,J6,7,Pin_7*%
%TO.N,/P1_6*%
X155440000Y-42990000D03*
%TO.P,J6,8,Pin_8*%
%TO.N,/P1_7*%
X157980000Y-42990000D03*
%TO.P,J6,9,Pin_9*%
%TO.N,/P3_0*%
X155440000Y-45530000D03*
%TO.P,J6,10,Pin_10*%
%TO.N,/P3_1*%
X157980000Y-45530000D03*
%TO.P,J6,11,Pin_11*%
%TO.N,/P3_2*%
X155440000Y-48070000D03*
%TO.P,J6,12,Pin_12*%
%TO.N,/P3_3*%
X157980000Y-48070000D03*
%TO.P,J6,13,Pin_13*%
%TO.N,/P3_4*%
X155440000Y-50610000D03*
%TO.P,J6,14,Pin_14*%
%TO.N,/P3_5*%
X157980000Y-50610000D03*
%TO.P,J6,15,Pin_15*%
%TO.N,/P3_6*%
X155440000Y-53150000D03*
%TO.P,J6,16,Pin_16*%
%TO.N,/P3_7*%
X157980000Y-53150000D03*
%TO.P,J6,17,Pin_17*%
%TO.N,VCC*%
X155440000Y-55690000D03*
%TO.P,J6,18,Pin_18*%
%TO.N,GND*%
X157980000Y-55690000D03*
%TO.P,J6,19,Pin_19*%
%TO.N,VCC*%
X155440000Y-58230000D03*
%TO.P,J6,20,Pin_20*%
%TO.N,GND*%
X157980000Y-58230000D03*
%TD*%
%TO.P,J5,10,Pin_10*%
%TO.N,GND*%
X74440000Y-69950000D03*
%TO.P,J5,9,Pin_9*%
%TO.N,VCC*%
X71900000Y-69950000D03*
%TO.P,J5,8,Pin_8*%
%TO.N,/P3_7*%
X74440000Y-67410000D03*
%TO.P,J5,7,Pin_7*%
%TO.N,/P3_6*%
X71900000Y-67410000D03*
%TO.P,J5,6,Pin_6*%
%TO.N,/P3_5*%
X74440000Y-64870000D03*
%TO.P,J5,5,Pin_5*%
%TO.N,/P3_4*%
X71900000Y-64870000D03*
%TO.P,J5,4,Pin_4*%
%TO.N,/P3_3*%
X74440000Y-62330000D03*
%TO.P,J5,3,Pin_3*%
%TO.N,/P3_2*%
X71900000Y-62330000D03*
%TO.P,J5,2,Pin_2*%
%TO.N,/P3_1*%
X74440000Y-59790000D03*
D14*
%TO.P,J5,1,Pin_1*%
%TO.N,/P3_0*%
X71900000Y-59790000D03*
%TD*%
D15*
%TO.P,J10,3,Pin_3*%
%TO.N,Net-(J10-Pin_3)*%
X60050000Y-61350000D03*
%TO.P,J10,2,Pin_2*%
%TO.N,Net-(J10-Pin_2)*%
X60050000Y-63890000D03*
D16*
%TO.P,J10,1,Pin_1*%
%TO.N,Net-(J10-Pin_1)*%
X60050000Y-66430000D03*
%TD*%
D15*
%TO.P,J11,2,Pin_2*%
%TO.N,Net-(J11-Pin_2)*%
X60100000Y-77515000D03*
D16*
%TO.P,J11,1,Pin_1*%
%TO.N,VCC*%
X60100000Y-74975000D03*
%TD*%
D17*
%TO.P,C12,2*%
%TO.N,GND*%
X37550000Y-77750000D03*
%TO.P,C12,1*%
%TO.N,Net-(J9-VBUS)*%
X32550000Y-77750000D03*
%TD*%
D18*
%TO.P,U1,40,VCC*%
%TO.N,VCC*%
X107990000Y-37750000D03*
%TO.P,U1,39,P0.0/AD0*%
%TO.N,/P0_0*%
X107990000Y-40290000D03*
%TO.P,U1,38,P0.1/AD1*%
%TO.N,/P0_1*%
X107990000Y-42830000D03*
%TO.P,U1,37,P0.2/AD2*%
%TO.N,/P0_2*%
X107990000Y-45370000D03*
%TO.P,U1,36,P0.3/AD3*%
%TO.N,/P0_3*%
X107990000Y-47910000D03*
%TO.P,U1,35,P0.4/AD4*%
%TO.N,/P0_4*%
X107990000Y-50450000D03*
%TO.P,U1,34,P0.5/AD5*%
%TO.N,/P0_5*%
X107990000Y-52990000D03*
%TO.P,U1,33,P0.6/AD6*%
%TO.N,/P0_6*%
X107990000Y-55530000D03*
%TO.P,U1,32,P0.7/AD7*%
%TO.N,/P0_7*%
X107990000Y-58070000D03*
%TO.P,U1,31,~{EA}*%
%TO.N,/EA*%
X107990000Y-60610000D03*
%TO.P,U1,30,ALE*%
%TO.N,unconnected-(U1-ALE-Pad30)*%
X107990000Y-63150000D03*
%TO.P,U1,29,~{PSEN}*%
%TO.N,/PSEN*%
X107990000Y-65690000D03*
%TO.P,U1,28,P2.7/A15*%
%TO.N,/P2_7*%
X107990000Y-68230000D03*
%TO.P,U1,27,P2.6/A14*%
%TO.N,/P2_6*%
X107990000Y-70770000D03*
%TO.P,U1,26,P2.5/A13*%
%TO.N,/P2_5*%
X107990000Y-73310000D03*
%TO.P,U1,25,P2.4/A12*%
%TO.N,/P2_4*%
X107990000Y-75850000D03*
%TO.P,U1,24,P2.3/A11*%
%TO.N,/P2_3*%
X107990000Y-78390000D03*
%TO.P,U1,23,P2.2/A10*%
%TO.N,/P2_2*%
X107990000Y-80930000D03*
%TO.P,U1,22,P2.1/A9*%
%TO.N,/P2_1*%
X107990000Y-83470000D03*
%TO.P,U1,21,P2.0/A8*%
%TO.N,/P2_0*%
X107990000Y-86010000D03*
%TO.P,U1,20,VSS*%
%TO.N,GND*%
X92750000Y-86010000D03*
%TO.P,U1,19,XTAL1*%
%TO.N,Net-(U1-XTAL1)*%
X92750000Y-83470000D03*
%TO.P,U1,18,XTAL2*%
%TO.N,Net-(U1-XTAL2)*%
X92750000Y-80930000D03*
%TO.P,U1,17,P3.7/~{RD}*%
%TO.N,/P3_7*%
X92750000Y-78390000D03*
%TO.P,U1,16,P3.6/~{WR}*%
%TO.N,/P3_6*%
X92750000Y-75850000D03*
%TO.P,U1,15,P3.5/T1*%
%TO.N,/P3_5*%
X92750000Y-73310000D03*
%TO.P,U1,14,P3.4/T0*%
%TO.N,/P3_4*%
X92750000Y-70770000D03*
%TO.P,U1,13,P3.3/~{INT1}*%
%TO.N,/P3_3*%
X92750000Y-68230000D03*
%TO.P,U1,12,P3.2/~{INT0}*%
%TO.N,/P3_2*%
X92750000Y-65690000D03*
%TO.P,U1,11,P3.1/TXD*%
%TO.N,/P3_1*%
X92750000Y-63150000D03*
%TO.P,U1,10,P3.0/RXD*%
%TO.N,/P3_0*%
X92750000Y-60610000D03*
%TO.P,U1,9,RST*%
%TO.N,/RST*%
X92750000Y-58070000D03*
%TO.P,U1,8,P1.7*%
%TO.N,/P1_7*%
X92750000Y-55530000D03*
%TO.P,U1,7,P1.6*%
%TO.N,/P1_6*%
X92750000Y-52990000D03*
%TO.P,U1,6,P1.5*%
%TO.N,/P1_5*%
X92750000Y-50450000D03*
%TO.P,U1,5,P1.4*%
%TO.N,/P1_4*%
X92750000Y-47910000D03*
%TO.P,U1,4,P1.3*%
%TO.N,/P1_3*%
X92750000Y-45370000D03*
%TO.P,U1,3,P1.2*%
%TO.N,/P1_2*%
X92750000Y-42830000D03*
%TO.P,U1,2,P1.1*%
%TO.N,/P1_1*%
X92750000Y-40290000D03*
D19*
%TO.P,U1,1,P1.0*%
%TO.N,/P1_0*%
X92750000Y-37750000D03*
%TD*%
D20*
%TO.P,SW2,1,A*%
%TO.N,Net-(SW2-A)*%
X56850000Y-34460000D03*
D13*
%TO.P,SW2,2,B*%
%TO.N,Net-(SW2-B)*%
X56850000Y-31920000D03*
%TO.P,SW2,3,C*%
%TO.N,/USB*%
X56850000Y-37000000D03*
%TD*%
D21*
%TO.P,J9,1,VBUS*%
%TO.N,Net-(J9-VBUS)*%
X27587500Y-71500000D03*
D13*
%TO.P,J9,2,D-*%
%TO.N,Net-(J9-D-)*%
X27587500Y-69000000D03*
%TO.P,J9,3,D+*%
%TO.N,Net-(J9-D+)*%
X25587500Y-69000000D03*
%TO.P,J9,4,GND*%
%TO.N,GND*%
X25587500Y-71500000D03*
D22*
%TO.P,J9,5,Shield*%
%TO.N,unconnected-(J9-Shield-Pad5)*%
X22727500Y-76250000D03*
X22727500Y-64250000D03*
%TD*%
D23*
%TO.P,J1,3*%
%TO.N,N/C*%
X23350000Y-36700000D03*
D24*
%TO.P,J1,2*%
%TO.N,Net-(D2-Pad2)*%
X20350000Y-32000000D03*
D25*
%TO.P,J1,1*%
%TO.N,Net-(D2-Pad4)*%
X26350000Y-32000000D03*
%TD*%
D13*
%TO.P,J7,9,9*%
%TO.N,unconnected-(J7-Pad9)*%
X26779000Y-104734000D03*
%TO.P,J7,8,8*%
%TO.N,unconnected-(J7-Pad8)*%
X26779000Y-101964000D03*
%TO.P,J7,7,7*%
%TO.N,unconnected-(J7-Pad7)*%
X26779000Y-99194000D03*
%TO.P,J7,6,6*%
%TO.N,unconnected-(J7-Pad6)*%
X26779000Y-96424000D03*
%TO.P,J7,5,5*%
%TO.N,GND*%
X29619000Y-106119000D03*
%TO.P,J7,4,4*%
%TO.N,unconnected-(J7-Pad4)*%
X29619000Y-103349000D03*
%TO.P,J7,3,3*%
%TO.N,Net-(U3-T2OUT)*%
X29619000Y-100579000D03*
%TO.P,J7,2,2*%
%TO.N,Net-(U3-R2IN)*%
X29619000Y-97809000D03*
D21*
%TO.P,J7,1,1*%
%TO.N,unconnected-(J7-Pad1)*%
X29619000Y-95039000D03*
D22*
%TO.P,J7,0*%
%TO.N,N/C*%
X28199000Y-113079000D03*
X28199000Y-88079000D03*
%TD*%
D26*
%TO.P,R2,2*%
%TO.N,GND*%
X137450000Y-112500000D03*
%TO.P,R2,1*%
%TO.N,Net-(C1-Pad2)*%
X129830000Y-112500000D03*
%TD*%
%TO.P,R3,2*%
%TO.N,Net-(D3-A)*%
X35850000Y-55000000D03*
%TO.P,R3,1*%
%TO.N,Net-(SW2-B)*%
X28230000Y-55000000D03*
%TD*%
%TO.P,R4,2*%
%TO.N,/EA*%
X137760000Y-96000000D03*
%TO.P,R4,1*%
%TO.N,VCC*%
X130140000Y-96000000D03*
%TD*%
%TO.P,R5,2*%
%TO.N,/PSEN*%
X137760000Y-101150000D03*
%TO.P,R5,1*%
%TO.N,VCC*%
X130140000Y-101150000D03*
%TD*%
D12*
%TO.P,C8,1*%
%TO.N,Net-(U3-C1+)*%
X38964000Y-88679000D03*
D13*
%TO.P,C8,2*%
%TO.N,Net-(U3-C1-)*%
X41464000Y-88679000D03*
%TD*%
D21*
%TO.P,RN1,1,common*%
%TO.N,VCC*%
X118440000Y-38160000D03*
D13*
%TO.P,RN1,2,R1*%
%TO.N,/P0_0*%
X118440000Y-40700000D03*
%TO.P,RN1,3,R2*%
%TO.N,/P0_1*%
X118440000Y-43240000D03*
%TO.P,RN1,4,R3*%
%TO.N,/P0_2*%
X118440000Y-45780000D03*
%TO.P,RN1,5,R4*%
%TO.N,/P0_3*%
X118440000Y-48320000D03*
%TO.P,RN1,6,R5*%
%TO.N,/P0_4*%
X118440000Y-50860000D03*
%TO.P,RN1,7,R6*%
%TO.N,/P0_5*%
X118440000Y-53400000D03*
%TO.P,RN1,8,R7*%
%TO.N,/P0_6*%
X118440000Y-55940000D03*
%TO.P,RN1,9,R8*%
%TO.N,/P0_7*%
X118440000Y-58480000D03*
%TD*%
D12*
%TO.P,C9,1*%
%TO.N,Net-(U3-VS+)*%
X38964000Y-95229000D03*
D13*
%TO.P,C9,2*%
%TO.N,VCC*%
X41464000Y-95229000D03*
%TD*%
D27*
%TO.P,REF\u002A\u002A,1*%
%TO.N,N/C*%
X17450000Y-129250000D03*
D28*
X17450000Y-129250000D03*
%TD*%
D12*
%TO.P,C11,1*%
%TO.N,GND*%
X38964000Y-108329000D03*
D13*
%TO.P,C11,2*%
%TO.N,Net-(U3-VS-)*%
X41464000Y-108329000D03*
%TD*%
D27*
%TO.P,REF\u002A\u002A,1*%
%TO.N,N/C*%
X18250000Y-18450000D03*
D28*
X18250000Y-18450000D03*
%TD*%
D13*
%TO.P,C3,1*%
%TO.N,Net-(U1-XTAL2)*%
X74940000Y-99990000D03*
%TO.P,C3,2*%
%TO.N,GND*%
X74940000Y-94990000D03*
%TD*%
D27*
%TO.P,REF\u002A\u002A,1*%
%TO.N,N/C*%
X168600000Y-19200000D03*
D28*
X168600000Y-19200000D03*
%TD*%
D17*
%TO.P,SW4,1,1*%
%TO.N,Net-(SW3-Pad1)*%
X117950000Y-107100000D03*
X124450000Y-107100000D03*
%TO.P,SW4,2,2*%
%TO.N,/P3_3*%
X117950000Y-111600000D03*
X124450000Y-111600000D03*
%TD*%
D12*
%TO.P,C10,1*%
%TO.N,Net-(U3-C2+)*%
X38964000Y-101779000D03*
D13*
%TO.P,C10,2*%
%TO.N,Net-(U3-C2-)*%
X41464000Y-101779000D03*
%TD*%
D12*
%TO.P,C6,1*%
%TO.N,Net-(SW2-A)*%
X43350000Y-45000000D03*
D13*
%TO.P,C6,2*%
%TO.N,GND*%
X45850000Y-45000000D03*
%TD*%
D12*
%TO.P,C1,1*%
%TO.N,VCC*%
X72994888Y-108550000D03*
D13*
%TO.P,C1,2*%
%TO.N,Net-(C1-Pad2)*%
X75494888Y-108550000D03*
%TD*%
%TO.P,C7,1*%
%TO.N,Net-(SW2-A)*%
X44350000Y-55000000D03*
%TO.P,C7,2*%
%TO.N,GND*%
X49350000Y-55000000D03*
%TD*%
D17*
%TO.P,C5,1*%
%TO.N,VCC*%
X117900000Y-28200000D03*
%TO.P,C5,2*%
%TO.N,GND*%
X117900000Y-33200000D03*
%TD*%
%TO.P,C13,1*%
%TO.N,Net-(J11-Pin_2)*%
X43300000Y-77750000D03*
%TO.P,C13,2*%
%TO.N,GND*%
X48300000Y-77750000D03*
%TD*%
D13*
%TO.P,C2,1*%
%TO.N,Net-(U1-XTAL1)*%
X74940000Y-91990000D03*
%TO.P,C2,2*%
%TO.N,GND*%
X74940000Y-86990000D03*
%TD*%
D17*
%TO.P,SW3,1,1*%
%TO.N,Net-(SW3-Pad1)*%
X96450000Y-106800000D03*
X102950000Y-106800000D03*
%TO.P,SW3,2,2*%
%TO.N,/P3_2*%
X96450000Y-111300000D03*
X102950000Y-111300000D03*
%TD*%
%TO.P,SW1,1,1*%
%TO.N,/RST*%
X81700000Y-106550000D03*
X88200000Y-106550000D03*
%TO.P,SW1,2,2*%
%TO.N,VCC*%
X81700000Y-111050000D03*
X88200000Y-111050000D03*
%TD*%
D27*
%TO.P,REF\u002A\u002A,1*%
%TO.N,N/C*%
X169950000Y-127450000D03*
D28*
X169950000Y-127450000D03*
%TD*%
D26*
%TO.P,R6,1*%
%TO.N,VCC*%
X130330000Y-106650000D03*
%TO.P,R6,2*%
%TO.N,/P3_2*%
X137950000Y-106650000D03*
%TD*%
D29*
%TO.P,D3,1,K*%
%TO.N,GND*%
X57850000Y-50000000D03*
D30*
%TO.P,D3,2,A*%
%TO.N,Net-(D3-A)*%
X57850000Y-47460000D03*
%TD*%
D29*
%TO.P,D1,1,K*%
%TO.N,GND*%
X108185000Y-111800000D03*
D30*
%TO.P,D1,2,A*%
%TO.N,Net-(D1-A)*%
X110725000Y-111800000D03*
%TD*%
D31*
%TO.P,D2,1,+*%
%TO.N,Net-(D2-+)*%
X15770000Y-43420000D03*
D32*
%TO.P,D2,2*%
%TO.N,Net-(D2-Pad2)*%
X15770000Y-48500000D03*
%TO.P,D2,3,-*%
%TO.N,GND*%
X20850000Y-48500000D03*
%TO.P,D2,4*%
%TO.N,Net-(D2-Pad4)*%
X20850000Y-43420000D03*
%TD*%
D14*
%TO.P,J2,1,Pin_1*%
%TO.N,/P0_0*%
X132410000Y-41540000D03*
D15*
%TO.P,J2,2,Pin_2*%
%TO.N,/P0_1*%
X134950000Y-41540000D03*
%TO.P,J2,3,Pin_3*%
%TO.N,/P0_2*%
X132410000Y-44080000D03*
%TO.P,J2,4,Pin_4*%
%TO.N,/P0_3*%
X134950000Y-44080000D03*
%TO.P,J2,5,Pin_5*%
%TO.N,/P0_4*%
X132410000Y-46620000D03*
%TO.P,J2,6,Pin_6*%
%TO.N,/P0_5*%
X134950000Y-46620000D03*
%TO.P,J2,7,Pin_7*%
%TO.N,/P0_6*%
X132410000Y-49160000D03*
%TO.P,J2,8,Pin_8*%
%TO.N,/P0_7*%
X134950000Y-49160000D03*
%TO.P,J2,9,Pin_9*%
%TO.N,VCC*%
X132410000Y-51700000D03*
%TO.P,J2,10,Pin_10*%
%TO.N,GND*%
X134950000Y-51700000D03*
%TD*%
D14*
%TO.P,J4,1,Pin_1*%
%TO.N,/P2_0*%
X132910000Y-73040000D03*
D15*
%TO.P,J4,2,Pin_2*%
%TO.N,/P2_1*%
X135450000Y-73040000D03*
%TO.P,J4,3,Pin_3*%
%TO.N,/P2_2*%
X132910000Y-75580000D03*
%TO.P,J4,4,Pin_4*%
%TO.N,/P2_3*%
X135450000Y-75580000D03*
%TO.P,J4,5,Pin_5*%
%TO.N,/P2_4*%
X132910000Y-78120000D03*
%TO.P,J4,6,Pin_6*%
%TO.N,/P2_5*%
X135450000Y-78120000D03*
%TO.P,J4,7,Pin_7*%
%TO.N,/P2_6*%
X132910000Y-80660000D03*
%TO.P,J4,8,Pin_8*%
%TO.N,/P2_7*%
X135450000Y-80660000D03*
%TO.P,J4,9,Pin_9*%
%TO.N,VCC*%
X132910000Y-83200000D03*
%TO.P,J4,10,Pin_10*%
%TO.N,GND*%
X135450000Y-83200000D03*
%TD*%
D14*
%TO.P,J3,1,Pin_1*%
%TO.N,/P1_0*%
X71900000Y-28290000D03*
D15*
%TO.P,J3,2,Pin_2*%
%TO.N,/P1_1*%
X74440000Y-28290000D03*
%TO.P,J3,3,Pin_3*%
%TO.N,/P1_2*%
X71900000Y-30830000D03*
%TO.P,J3,4,Pin_4*%
%TO.N,/P1_3*%
X74440000Y-30830000D03*
%TO.P,J3,5,Pin_5*%
%TO.N,/P1_4*%
X71900000Y-33370000D03*
%TO.P,J3,6,Pin_6*%
%TO.N,/P1_5*%
X74440000Y-33370000D03*
%TO.P,J3,7,Pin_7*%
%TO.N,/P1_6*%
X71900000Y-35910000D03*
%TO.P,J3,8,Pin_8*%
%TO.N,/P1_7*%
X74440000Y-35910000D03*
%TO.P,J3,9,Pin_9*%
%TO.N,VCC*%
X71900000Y-38450000D03*
%TO.P,J3,10,Pin_10*%
%TO.N,GND*%
X74440000Y-38450000D03*
%TD*%
D33*
%TO.P,Y1,1,1*%
%TO.N,Net-(U1-XTAL1)*%
X82440000Y-96370000D03*
%TO.P,Y1,2,2*%
%TO.N,Net-(U1-XTAL2)*%
X82440000Y-91490000D03*
%TD*%
D34*
%TO.N,Net-(D1-A)*%
X114600000Y-107450000D03*
%TO.N,Net-(J9-VBUS)*%
X50500000Y-77750000D03*
%TO.N,/P3_1*%
X54099000Y-104379000D03*
%TO.N,/P3_0*%
X38450000Y-72250000D03*
%TO.N,Net-(J10-Pin_2)*%
X41500000Y-67350000D03*
%TD*%
D35*
%TO.N,unconnected-(J9-Shield-Pad5)*%
X22727500Y-76250000D02*
X22727500Y-64250000D01*
%TO.N,Net-(D1-A)*%
X114600000Y-107925000D02*
X114600000Y-107450000D01*
X110725000Y-111800000D02*
X114600000Y-107925000D01*
%TO.N,GND*%
X25600000Y-71512500D02*
X25600000Y-106053000D01*
X25587500Y-71500000D02*
X25600000Y-71512500D01*
X25600000Y-106053000D02*
X25666000Y-106119000D01*
X25666000Y-106119000D02*
X29619000Y-106119000D01*
X34850000Y-40460000D02*
X41310000Y-34000000D01*
X37350000Y-44500000D02*
X34850000Y-42000000D01*
X34850000Y-42000000D02*
X34850000Y-40460000D01*
X37000000Y-44500000D02*
X37350000Y-44500000D01*
X34200000Y-47300000D02*
X37000000Y-44500000D01*
X34200000Y-47500000D02*
X34200000Y-47300000D01*
X21850000Y-47500000D02*
X34200000Y-47500000D01*
X20850000Y-48500000D02*
X21850000Y-47500000D01*
%TO.N,/P3_1*%
X74440000Y-59790000D02*
X73051000Y-61179000D01*
X73051000Y-61179000D02*
X71423240Y-61179000D01*
%TO.N,VCC*%
X73289000Y-68561000D02*
X75757000Y-68561000D01*
X71900000Y-69950000D02*
X73289000Y-68561000D01*
%TO.N,/P3_1*%
X38178840Y-89780000D02*
X39500000Y-89780000D01*
X39500000Y-89780000D02*
X54099000Y-104379000D01*
X37350000Y-88951160D02*
X38178840Y-89780000D01*
X37350000Y-88200000D02*
X37350000Y-88951160D01*
X37350000Y-86350000D02*
X37350000Y-88200000D01*
X30150000Y-79150000D02*
X37350000Y-86350000D01*
X30150000Y-76800000D02*
X30150000Y-79150000D01*
X32711108Y-74238892D02*
X30150000Y-76800000D01*
X48011108Y-74238892D02*
X32711108Y-74238892D01*
X71423240Y-61179000D02*
X59202240Y-73400000D01*
X59202240Y-73400000D02*
X48850000Y-73400000D01*
X48850000Y-73400000D02*
X48011108Y-74238892D01*
%TO.N,Net-(J10-Pin_2)*%
X57950000Y-67200000D02*
X57800000Y-67350000D01*
X57950000Y-65990000D02*
X57950000Y-67200000D01*
X60050000Y-63890000D02*
X57950000Y-65990000D01*
X57800000Y-67350000D02*
X41500000Y-67350000D01*
%TO.N,Net-(J9-VBUS)*%
X36000000Y-81200000D02*
X32550000Y-77750000D01*
X50500000Y-79150000D02*
X48450000Y-81200000D01*
X50500000Y-77750000D02*
X50500000Y-79150000D01*
X48450000Y-81200000D02*
X36000000Y-81200000D01*
%TO.N,GND*%
X56700000Y-76750000D02*
X74940000Y-94990000D01*
X49550000Y-76750000D02*
X56700000Y-76750000D01*
X48550000Y-77750000D02*
X49550000Y-76750000D01*
X48300000Y-77750000D02*
X48550000Y-77750000D01*
%TO.N,/P3_2*%
X91110108Y-111300000D02*
X96450000Y-111300000D01*
X84999000Y-105188892D02*
X91110108Y-111300000D01*
X84999000Y-89501000D02*
X84999000Y-105188892D01*
X75326850Y-89501000D02*
X84999000Y-89501000D01*
X73438000Y-87612150D02*
X75326850Y-89501000D01*
X73438000Y-75658088D02*
X73438000Y-87612150D01*
X92047088Y-57049000D02*
X73438000Y-75658088D01*
X93452912Y-57049000D02*
X92047088Y-57049000D01*
X94051000Y-57647088D02*
X93452912Y-57049000D01*
X94051000Y-64389000D02*
X94051000Y-57647088D01*
X92750000Y-65690000D02*
X94051000Y-64389000D01*
%TO.N,/P3_0*%
X59440000Y-72250000D02*
X38450000Y-72250000D01*
X71900000Y-59790000D02*
X59440000Y-72250000D01*
%TO.N,/RST*%
X73839000Y-76981000D02*
X92750000Y-58070000D01*
X73839000Y-87446050D02*
X73839000Y-76981000D01*
X89200000Y-89100000D02*
X75492950Y-89100000D01*
X89200000Y-105550000D02*
X89200000Y-89100000D01*
X75492950Y-89100000D02*
X73839000Y-87446050D01*
X88200000Y-106550000D02*
X89200000Y-105550000D01*
%TO.N,/P3_3*%
X125550000Y-111600000D02*
X124450000Y-111600000D01*
X125850000Y-111300000D02*
X125550000Y-111600000D01*
X125850000Y-105700000D02*
X125850000Y-111300000D01*
X94051000Y-73901000D02*
X125850000Y-105700000D01*
X94051000Y-69531000D02*
X94051000Y-73901000D01*
X92750000Y-68230000D02*
X94051000Y-69531000D01*
%TO.N,VCC*%
X75757000Y-68561000D02*
X89809000Y-54509000D01*
%TO.N,GND*%
X139579000Y-57079000D02*
X156829000Y-57079000D01*
X134950000Y-52450000D02*
X139579000Y-57079000D01*
X134950000Y-51700000D02*
X134950000Y-52450000D01*
X156829000Y-57079000D02*
X157980000Y-58230000D01*
%TO.N,VCC*%
X154920000Y-58750000D02*
X155440000Y-58230000D01*
X139460000Y-58750000D02*
X154920000Y-58750000D01*
X132410000Y-51700000D02*
X139460000Y-58750000D01*
%TO.N,GND*%
X72100000Y-40790000D02*
X74440000Y-38450000D01*
X58011529Y-45600000D02*
X72100000Y-45600000D01*
X56649000Y-46962529D02*
X58011529Y-45600000D01*
X72100000Y-45600000D02*
X72100000Y-40790000D01*
X56649000Y-48799000D02*
X56649000Y-46962529D01*
X57850000Y-50000000D02*
X56649000Y-48799000D01*
%TO.N,Net-(D3-A)*%
X59051000Y-48661000D02*
X57850000Y-47460000D01*
X54151000Y-56101000D02*
X59051000Y-51201000D01*
X59051000Y-51201000D02*
X59051000Y-48661000D01*
X36951000Y-56101000D02*
X54151000Y-56101000D01*
X35850000Y-55000000D02*
X36951000Y-56101000D01*
%TO.N,GND*%
X75920000Y-86010000D02*
X74940000Y-86990000D01*
X92750000Y-86010000D02*
X75920000Y-86010000D01*
%TO.N,Net-(U1-XTAL1)*%
X78060000Y-91990000D02*
X82440000Y-96370000D01*
X74940000Y-91990000D02*
X78060000Y-91990000D01*
%TO.N,VCC*%
X92954912Y-54509000D02*
X106689000Y-40774912D01*
X89800000Y-54500000D02*
X89809000Y-54509000D01*
X89800000Y-46600000D02*
X89800000Y-54500000D01*
X106689000Y-39051000D02*
X107990000Y-37750000D01*
X80450000Y-37250000D02*
X89800000Y-46600000D01*
X106689000Y-40774912D02*
X106689000Y-39051000D01*
X71900000Y-38450000D02*
X73100000Y-37250000D01*
X73100000Y-37250000D02*
X80450000Y-37250000D01*
X89809000Y-54509000D02*
X92954912Y-54509000D01*
%TO.N,/P2_3*%
X140000000Y-75800000D02*
X139780000Y-75580000D01*
X139780000Y-75580000D02*
X135450000Y-75580000D01*
X140000000Y-83200000D02*
X140000000Y-75800000D01*
X154923240Y-99221000D02*
X154249000Y-98546760D01*
X154249000Y-98546760D02*
X154249000Y-97449000D01*
X156789000Y-99221000D02*
X154923240Y-99221000D01*
X157940000Y-98070000D02*
X156789000Y-99221000D01*
X154249000Y-97449000D02*
X140000000Y-83200000D01*
%TO.N,/P2_2*%
X140821000Y-74429000D02*
X134061000Y-74429000D01*
X141342000Y-74950000D02*
X140821000Y-74429000D01*
X141450000Y-83800000D02*
X141450000Y-75050000D01*
X141450000Y-75050000D02*
X141350000Y-74950000D01*
X134061000Y-74429000D02*
X132910000Y-75580000D01*
X155400000Y-97750000D02*
X141450000Y-83800000D01*
X141350000Y-74950000D02*
X141342000Y-74950000D01*
X155400000Y-98070000D02*
X155400000Y-97750000D01*
%TO.N,/P2_1*%
X142300000Y-83750000D02*
X142300000Y-72100000D01*
X154249000Y-95699000D02*
X142300000Y-83750000D01*
X136390000Y-72100000D02*
X135450000Y-73040000D01*
X154923240Y-96681000D02*
X154249000Y-96006760D01*
X142300000Y-72100000D02*
X136390000Y-72100000D01*
X156789000Y-96681000D02*
X154923240Y-96681000D01*
X157940000Y-95530000D02*
X156789000Y-96681000D01*
X154249000Y-96006760D02*
X154249000Y-95699000D01*
%TO.N,VCC*%
X131759000Y-52351000D02*
X132410000Y-51700000D01*
X131759000Y-82049000D02*
X131759000Y-52351000D01*
X132910000Y-83200000D02*
X131759000Y-82049000D01*
%TO.N,GND*%
X136449000Y-113501000D02*
X137450000Y-112500000D01*
X109886000Y-113501000D02*
X136449000Y-113501000D01*
X108185000Y-111800000D02*
X109886000Y-113501000D01*
X108185000Y-101445000D02*
X108185000Y-111800000D01*
X92750000Y-86010000D02*
X108185000Y-101445000D01*
X138900000Y-47750000D02*
X134950000Y-51700000D01*
X138900000Y-39950000D02*
X138900000Y-47750000D01*
X138350000Y-39400000D02*
X138900000Y-39950000D01*
X124100000Y-39400000D02*
X138350000Y-39400000D01*
X117900000Y-33200000D02*
X124100000Y-39400000D01*
%TO.N,/PSEN*%
X131141000Y-94531000D02*
X137760000Y-101150000D01*
X107990000Y-65690000D02*
X131141000Y-88841000D01*
X131141000Y-88841000D02*
X131141000Y-94531000D01*
%TO.N,/EA*%
X137760000Y-90380000D02*
X137760000Y-96000000D01*
X107990000Y-60610000D02*
X137760000Y-90380000D01*
%TO.N,/P1_0*%
X93900000Y-37750000D02*
X92750000Y-37750000D01*
X114200000Y-17450000D02*
X93900000Y-37750000D01*
X155440000Y-25690000D02*
X147200000Y-17450000D01*
X147200000Y-17450000D02*
X114200000Y-17450000D01*
X155440000Y-35370000D02*
X155440000Y-25690000D01*
%TO.N,/P1_1*%
X92750000Y-40072000D02*
X92750000Y-40290000D01*
X94051000Y-38771000D02*
X92750000Y-40072000D01*
X94051000Y-38399000D02*
X94051000Y-38771000D01*
X114350000Y-18100000D02*
X94051000Y-38399000D01*
X147282900Y-18100000D02*
X114350000Y-18100000D01*
X154800000Y-31600000D02*
X154800000Y-25617100D01*
X154850000Y-31650000D02*
X154800000Y-31600000D01*
X154289000Y-36205160D02*
X154289000Y-32211000D01*
X156829000Y-36521000D02*
X154604840Y-36521000D01*
X154289000Y-32211000D02*
X154850000Y-31650000D01*
X154800000Y-25617100D02*
X147282900Y-18100000D01*
X157980000Y-35370000D02*
X156829000Y-36521000D01*
X154604840Y-36521000D02*
X154289000Y-36205160D01*
%TO.N,/P1_2*%
X92750000Y-42013912D02*
X92750000Y-42830000D01*
X94051000Y-40712912D02*
X92750000Y-42013912D01*
X94051000Y-39338100D02*
X94051000Y-40712912D01*
X94452000Y-38937100D02*
X94051000Y-39338100D01*
X94452000Y-38848000D02*
X94452000Y-38937100D01*
X114600000Y-18700000D02*
X94452000Y-38848000D01*
X154350000Y-31582900D02*
X154350000Y-25734200D01*
X153888000Y-32044900D02*
X154350000Y-31582900D01*
X147315800Y-18700000D02*
X114600000Y-18700000D01*
X153888000Y-36371260D02*
X153888000Y-32044900D01*
X155426740Y-37910000D02*
X153888000Y-36371260D01*
X154350000Y-25734200D02*
X147315800Y-18700000D01*
X155440000Y-37910000D02*
X155426740Y-37910000D01*
%TO.N,/P1_3*%
X92750000Y-44553912D02*
X92750000Y-45370000D01*
X94452000Y-42851912D02*
X92750000Y-44553912D01*
X94452000Y-39898000D02*
X94452000Y-42851912D01*
X115100000Y-19250000D02*
X94452000Y-39898000D01*
X153900000Y-31465800D02*
X153900000Y-25950000D01*
X153900000Y-25950000D02*
X147200000Y-19250000D01*
X154963240Y-39061000D02*
X153487000Y-37584760D01*
X147200000Y-19250000D02*
X115100000Y-19250000D01*
X156829000Y-39061000D02*
X154963240Y-39061000D01*
X153487000Y-37584760D02*
X153487000Y-31878800D01*
X153487000Y-31878800D02*
X153900000Y-31465800D01*
X157980000Y-37910000D02*
X156829000Y-39061000D01*
%TO.N,/P1_4*%
X92750000Y-47093912D02*
X92750000Y-47910000D01*
X94051000Y-45792912D02*
X92750000Y-47093912D01*
X94051000Y-43820012D02*
X94051000Y-45792912D01*
X94853000Y-43018012D02*
X94051000Y-43820012D01*
X147200000Y-19850000D02*
X115450000Y-19850000D01*
X94853000Y-40447000D02*
X94853000Y-43018012D01*
X153400000Y-31398700D02*
X153400000Y-26050000D01*
X153086000Y-31712700D02*
X153400000Y-31398700D01*
X153400000Y-26050000D02*
X147200000Y-19850000D01*
X153086000Y-38096000D02*
X153086000Y-31712700D01*
X155440000Y-40450000D02*
X153086000Y-38096000D01*
X115450000Y-19850000D02*
X94853000Y-40447000D01*
%TO.N,/P1_5*%
X92750000Y-49633912D02*
X92750000Y-50450000D01*
X94452000Y-47931912D02*
X92750000Y-49633912D01*
X94452000Y-43986112D02*
X94452000Y-47931912D01*
X95254000Y-43184112D02*
X94452000Y-43986112D01*
X152999000Y-26216100D02*
X147282900Y-20500000D01*
X95254000Y-40846000D02*
X95254000Y-43184112D01*
X152999000Y-31232600D02*
X152999000Y-26216100D01*
X152685000Y-39322760D02*
X152685000Y-31546600D01*
X115600000Y-20500000D02*
X95254000Y-40846000D01*
X154963240Y-41601000D02*
X152685000Y-39322760D01*
X152685000Y-31546600D02*
X152999000Y-31232600D01*
X147282900Y-20500000D02*
X115600000Y-20500000D01*
X156829000Y-41601000D02*
X154963240Y-41601000D01*
X157980000Y-40450000D02*
X156829000Y-41601000D01*
%TO.N,/P2_7*%
X137100000Y-84700000D02*
X137100000Y-82310000D01*
X153447000Y-102824760D02*
X153447000Y-101047000D01*
X154923240Y-104301000D02*
X153447000Y-102824760D01*
X156789000Y-104301000D02*
X154923240Y-104301000D01*
X137100000Y-82310000D02*
X135450000Y-80660000D01*
X157940000Y-103150000D02*
X156789000Y-104301000D01*
X153447000Y-101047000D02*
X137100000Y-84700000D01*
%TO.N,/P2_6*%
X137750000Y-79300000D02*
X134270000Y-79300000D01*
X153848000Y-100348000D02*
X137750000Y-84250000D01*
X134270000Y-79300000D02*
X132910000Y-80660000D01*
X153848000Y-101252860D02*
X153848000Y-100348000D01*
X155400000Y-102804860D02*
X153848000Y-101252860D01*
X155400000Y-103150000D02*
X155400000Y-102804860D01*
X137750000Y-84250000D02*
X137750000Y-79300000D01*
%TO.N,/P2_5*%
X138120000Y-78120000D02*
X135450000Y-78120000D01*
X138350000Y-83850000D02*
X138350000Y-78350000D01*
X154249000Y-99749000D02*
X138350000Y-83850000D01*
X154249000Y-101086760D02*
X154249000Y-99749000D01*
X138350000Y-78350000D02*
X138120000Y-78120000D01*
X154923240Y-101761000D02*
X154249000Y-101086760D01*
X157940000Y-100610000D02*
X156789000Y-101761000D01*
X156789000Y-101761000D02*
X154923240Y-101761000D01*
%TO.N,/P2_4*%
X134080000Y-76950000D02*
X132910000Y-78120000D01*
X153848000Y-98098000D02*
X138950000Y-83200000D01*
X153848000Y-98712860D02*
X153848000Y-98098000D01*
X155400000Y-100264860D02*
X153848000Y-98712860D01*
X155400000Y-100610000D02*
X155400000Y-100264860D01*
X138950000Y-83200000D02*
X138950000Y-76950000D01*
X138950000Y-76950000D02*
X134080000Y-76950000D01*
%TO.N,/P2_0*%
X134900000Y-71050000D02*
X132910000Y-73040000D01*
X142900000Y-71050000D02*
X134900000Y-71050000D01*
X142900000Y-83030000D02*
X142900000Y-71050000D01*
X155400000Y-95530000D02*
X142900000Y-83030000D01*
%TO.N,GND*%
X41310000Y-34000000D02*
X41310000Y-40460000D01*
X41310000Y-40460000D02*
X45850000Y-45000000D01*
X45850000Y-45000000D02*
X45850000Y-51500000D01*
X45850000Y-51500000D02*
X49350000Y-55000000D01*
X49350000Y-55000000D02*
X52850000Y-55000000D01*
X52850000Y-55000000D02*
X57850000Y-50000000D01*
%TO.N,VCC*%
X118870000Y-38160000D02*
X132410000Y-51700000D01*
X118440000Y-38160000D02*
X118870000Y-38160000D01*
%TD*%
M02*
