%TF.GenerationSoftware,KiCad,Pcbnew,9.0.7*%
%TF.CreationDate,2026-01-07T21:02:37+05:30*%
%TF.ProjectId,PCB Design,50434220-4465-4736-9967-6e2e6b696361,rev?*%
%TF.SameCoordinates,Original*%
%TF.FileFunction,Paste,Top*%
%TF.FilePolarity,Positive*%
%FSLAX46Y46*%
G04 Gerber Fmt 4.6, Leading zero omitted, Abs format (unit mm)*
G04 Created by KiCad (PCBNEW 9.0.7) date 2026-01-07 21:02:37*
%MOMM*%
%LPD*%
G01*
G04 APERTURE LIST*
G04 Aperture macros list*
%AMRoundRect*
0 Rectangle with rounded corners*
0 $1 Rounding radius*
0 $2 $3 $4 $5 $6 $7 $8 $9 X,Y pos of 4 corners*
0 Add a 4 corners polygon primitive as box body*
4,1,4,$2,$3,$4,$5,$6,$7,$8,$9,$2,$3,0*
0 Add four circle primitives for the rounded corners*
1,1,$1+$1,$2,$3*
1,1,$1+$1,$4,$5*
1,1,$1+$1,$6,$7*
1,1,$1+$1,$8,$9*
0 Add four rect primitives between the rounded corners*
20,1,$1+$1,$2,$3,$4,$5,0*
20,1,$1+$1,$4,$5,$6,$7,0*
20,1,$1+$1,$6,$7,$8,$9,0*
20,1,$1+$1,$8,$9,$2,$3,0*%
G04 Aperture macros list end*
%ADD10RoundRect,0.218750X-0.218750X-0.381250X0.218750X-0.381250X0.218750X0.381250X-0.218750X0.381250X0*%
%ADD11RoundRect,0.250000X0.450000X-0.262500X0.450000X0.262500X-0.450000X0.262500X-0.450000X-0.262500X0*%
%ADD12RoundRect,0.249999X-0.750001X-0.640001X0.750001X-0.640001X0.750001X0.640001X-0.750001X0.640001X0*%
%ADD13RoundRect,0.250000X-0.350000X-0.450000X0.350000X-0.450000X0.350000X0.450000X-0.350000X0.450000X0*%
%ADD14RoundRect,0.100000X0.100000X-0.850000X0.100000X0.850000X-0.100000X0.850000X-0.100000X-0.850000X0*%
G04 APERTURE END LIST*
D10*
%TO.C,L1*%
X52275000Y-77750000D03*
X54400000Y-77750000D03*
%TD*%
D11*
%TO.C,R7*%
X67112500Y-110462500D03*
X67112500Y-108637500D03*
%TD*%
D12*
%TO.C,U3*%
X49239000Y-90489000D03*
X49239000Y-93029000D03*
X49239000Y-95569000D03*
X49239000Y-98109000D03*
X49239000Y-100649000D03*
X49239000Y-103189000D03*
X49239000Y-105729000D03*
X49239000Y-108269000D03*
X56859000Y-108269000D03*
X56859000Y-105729000D03*
X56859000Y-103189000D03*
X56859000Y-100649000D03*
X56859000Y-98109000D03*
X56859000Y-95569000D03*
X56859000Y-93029000D03*
X56859000Y-90489000D03*
%TD*%
D13*
%TO.C,R1*%
X109950000Y-106800000D03*
X111950000Y-106800000D03*
%TD*%
D14*
%TO.C,U4*%
X34200000Y-63250000D03*
X34850000Y-63250000D03*
X35500000Y-63250000D03*
X36150000Y-63250000D03*
X36800000Y-63250000D03*
X37450000Y-63250000D03*
X38100000Y-63250000D03*
X38750000Y-63250000D03*
X39400000Y-63250000D03*
X40050000Y-63250000D03*
X40700000Y-63250000D03*
X41350000Y-63250000D03*
X42000000Y-63250000D03*
X42650000Y-63250000D03*
X42650000Y-70250000D03*
X42000000Y-70250000D03*
X41350000Y-70250000D03*
X40700000Y-70250000D03*
X40050000Y-70250000D03*
X39400000Y-70250000D03*
X38750000Y-70250000D03*
X38100000Y-70250000D03*
X37450000Y-70250000D03*
X36800000Y-70250000D03*
X36150000Y-70250000D03*
X35500000Y-70250000D03*
X34850000Y-70250000D03*
X34200000Y-70250000D03*
%TD*%
M02*
