%TF.GenerationSoftware,KiCad,Pcbnew,9.0.7*%
%TF.CreationDate,2026-01-07T21:02:37+05:30*%
%TF.ProjectId,PCB Design,50434220-4465-4736-9967-6e2e6b696361,rev?*%
%TF.SameCoordinates,Original*%
%TF.FileFunction,Soldermask,Bot*%
%TF.FilePolarity,Negative*%
%FSLAX46Y46*%
G04 Gerber Fmt 4.6, Leading zero omitted, Abs format (unit mm)*
G04 Created by KiCad (PCBNEW 9.0.7) date 2026-01-07 21:02:37*
%MOMM*%
%LPD*%
G01*
G04 APERTURE LIST*
G04 Aperture macros list*
%AMRoundRect*
0 Rectangle with rounded corners*
0 $1 Rounding radius*
0 $2 $3 $4 $5 $6 $7 $8 $9 X,Y pos of 4 corners*
0 Add a 4 corners polygon primitive as box body*
4,1,4,$2,$3,$4,$5,$6,$7,$8,$9,$2,$3,0*
0 Add four circle primitives for the rounded corners*
1,1,$1+$1,$2,$3*
1,1,$1+$1,$4,$5*
1,1,$1+$1,$6,$7*
1,1,$1+$1,$8,$9*
0 Add four rect primitives between the rounded corners*
20,1,$1+$1,$2,$3,$4,$5,0*
20,1,$1+$1,$4,$5,$6,$7,0*
20,1,$1+$1,$6,$7,$8,$9,0*
20,1,$1+$1,$8,$9,$2,$3,0*%
G04 Aperture macros list end*
%ADD10R,1.905000X2.000000*%
%ADD11O,1.905000X2.000000*%
%ADD12RoundRect,0.250000X-0.550000X-0.550000X0.550000X-0.550000X0.550000X0.550000X-0.550000X0.550000X0*%
%ADD13C,1.600000*%
%ADD14RoundRect,0.250000X-0.600000X-0.600000X0.600000X-0.600000X0.600000X0.600000X-0.600000X0.600000X0*%
%ADD15C,1.700000*%
%ADD16R,1.700000X1.700000*%
%ADD17C,2.000000*%
%ADD18O,2.000000X1.440000*%
%ADD19R,2.000000X1.440000*%
%ADD20R,1.500000X1.500000*%
%ADD21R,1.600000X1.600000*%
%ADD22C,4.000000*%
%ADD23RoundRect,0.875000X-0.875000X-0.875000X0.875000X-0.875000X0.875000X0.875000X-0.875000X0.875000X0*%
%ADD24RoundRect,0.750000X-0.750000X-1.000000X0.750000X-1.000000X0.750000X1.000000X-0.750000X1.000000X0*%
%ADD25R,3.500000X3.500000*%
%ADD26C,1.400000*%
%ADD27C,3.600000*%
%ADD28C,5.600000*%
%ADD29R,1.800000X1.800000*%
%ADD30C,1.800000*%
%ADD31R,2.000000X2.000000*%
%ADD32O,2.000000X2.000000*%
%ADD33C,1.500000*%
G04 APERTURE END LIST*
D10*
%TO.C,U2*%
X38770000Y-34000000D03*
D11*
X41310000Y-34000000D03*
X43850000Y-34000000D03*
%TD*%
D12*
%TO.C,C4*%
X32350000Y-44500000D03*
D13*
X37350000Y-44500000D03*
%TD*%
D14*
%TO.C,J8*%
X155400000Y-85370000D03*
D15*
X157940000Y-85370000D03*
X155400000Y-87910000D03*
X157940000Y-87910000D03*
X155400000Y-90450000D03*
X157940000Y-90450000D03*
X155400000Y-92990000D03*
X157940000Y-92990000D03*
X155400000Y-95530000D03*
X157940000Y-95530000D03*
X155400000Y-98070000D03*
X157940000Y-98070000D03*
X155400000Y-100610000D03*
X157940000Y-100610000D03*
X155400000Y-103150000D03*
X157940000Y-103150000D03*
X155400000Y-105690000D03*
X157940000Y-105690000D03*
X155400000Y-108230000D03*
X157940000Y-108230000D03*
%TD*%
D14*
%TO.C,J6*%
X155440000Y-35370000D03*
D15*
X157980000Y-35370000D03*
X155440000Y-37910000D03*
X157980000Y-37910000D03*
X155440000Y-40450000D03*
X157980000Y-40450000D03*
X155440000Y-42990000D03*
X157980000Y-42990000D03*
X155440000Y-45530000D03*
X157980000Y-45530000D03*
X155440000Y-48070000D03*
X157980000Y-48070000D03*
X155440000Y-50610000D03*
X157980000Y-50610000D03*
X155440000Y-53150000D03*
X157980000Y-53150000D03*
X155440000Y-55690000D03*
X157980000Y-55690000D03*
X155440000Y-58230000D03*
X157980000Y-58230000D03*
%TD*%
%TO.C,J5*%
X74440000Y-69950000D03*
X71900000Y-69950000D03*
X74440000Y-67410000D03*
X71900000Y-67410000D03*
X74440000Y-64870000D03*
X71900000Y-64870000D03*
X74440000Y-62330000D03*
X71900000Y-62330000D03*
X74440000Y-59790000D03*
D14*
X71900000Y-59790000D03*
%TD*%
D15*
%TO.C,J10*%
X60050000Y-61350000D03*
X60050000Y-63890000D03*
D16*
X60050000Y-66430000D03*
%TD*%
D15*
%TO.C,J11*%
X60100000Y-77515000D03*
D16*
X60100000Y-74975000D03*
%TD*%
D17*
%TO.C,C12*%
X37550000Y-77750000D03*
X32550000Y-77750000D03*
%TD*%
D18*
%TO.C,U1*%
X107990000Y-37750000D03*
X107990000Y-40290000D03*
X107990000Y-42830000D03*
X107990000Y-45370000D03*
X107990000Y-47910000D03*
X107990000Y-50450000D03*
X107990000Y-52990000D03*
X107990000Y-55530000D03*
X107990000Y-58070000D03*
X107990000Y-60610000D03*
X107990000Y-63150000D03*
X107990000Y-65690000D03*
X107990000Y-68230000D03*
X107990000Y-70770000D03*
X107990000Y-73310000D03*
X107990000Y-75850000D03*
X107990000Y-78390000D03*
X107990000Y-80930000D03*
X107990000Y-83470000D03*
X107990000Y-86010000D03*
X92750000Y-86010000D03*
X92750000Y-83470000D03*
X92750000Y-80930000D03*
X92750000Y-78390000D03*
X92750000Y-75850000D03*
X92750000Y-73310000D03*
X92750000Y-70770000D03*
X92750000Y-68230000D03*
X92750000Y-65690000D03*
X92750000Y-63150000D03*
X92750000Y-60610000D03*
X92750000Y-58070000D03*
X92750000Y-55530000D03*
X92750000Y-52990000D03*
X92750000Y-50450000D03*
X92750000Y-47910000D03*
X92750000Y-45370000D03*
X92750000Y-42830000D03*
X92750000Y-40290000D03*
D19*
X92750000Y-37750000D03*
%TD*%
D20*
%TO.C,SW2*%
X56850000Y-34460000D03*
D13*
X56850000Y-31920000D03*
X56850000Y-37000000D03*
%TD*%
D21*
%TO.C,J9*%
X27587500Y-71500000D03*
D13*
X27587500Y-69000000D03*
X25587500Y-69000000D03*
X25587500Y-71500000D03*
D22*
X22727500Y-76250000D03*
X22727500Y-64250000D03*
%TD*%
D23*
%TO.C,J1*%
X23350000Y-36700000D03*
D24*
X20350000Y-32000000D03*
D25*
X26350000Y-32000000D03*
%TD*%
D13*
%TO.C,J7*%
X26779000Y-104734000D03*
X26779000Y-101964000D03*
X26779000Y-99194000D03*
X26779000Y-96424000D03*
X29619000Y-106119000D03*
X29619000Y-103349000D03*
X29619000Y-100579000D03*
X29619000Y-97809000D03*
D21*
X29619000Y-95039000D03*
D22*
X28199000Y-113079000D03*
X28199000Y-88079000D03*
%TD*%
D26*
%TO.C,R2*%
X137450000Y-112500000D03*
X129830000Y-112500000D03*
%TD*%
%TO.C,R3*%
X35850000Y-55000000D03*
X28230000Y-55000000D03*
%TD*%
%TO.C,R4*%
X137760000Y-96000000D03*
X130140000Y-96000000D03*
%TD*%
%TO.C,R5*%
X137760000Y-101150000D03*
X130140000Y-101150000D03*
%TD*%
D12*
%TO.C,C8*%
X38964000Y-88679000D03*
D13*
X41464000Y-88679000D03*
%TD*%
D21*
%TO.C,RN1*%
X118440000Y-38160000D03*
D13*
X118440000Y-40700000D03*
X118440000Y-43240000D03*
X118440000Y-45780000D03*
X118440000Y-48320000D03*
X118440000Y-50860000D03*
X118440000Y-53400000D03*
X118440000Y-55940000D03*
X118440000Y-58480000D03*
%TD*%
D12*
%TO.C,C9*%
X38964000Y-95229000D03*
D13*
X41464000Y-95229000D03*
%TD*%
D27*
%TO.C,REF\u002A\u002A*%
X17450000Y-129250000D03*
D28*
X17450000Y-129250000D03*
%TD*%
D12*
%TO.C,C11*%
X38964000Y-108329000D03*
D13*
X41464000Y-108329000D03*
%TD*%
D27*
%TO.C,REF\u002A\u002A*%
X18250000Y-18450000D03*
D28*
X18250000Y-18450000D03*
%TD*%
D13*
%TO.C,C3*%
X74940000Y-99990000D03*
X74940000Y-94990000D03*
%TD*%
D27*
%TO.C,REF\u002A\u002A*%
X168600000Y-19200000D03*
D28*
X168600000Y-19200000D03*
%TD*%
D17*
%TO.C,SW4*%
X117950000Y-107100000D03*
X124450000Y-107100000D03*
X117950000Y-111600000D03*
X124450000Y-111600000D03*
%TD*%
D12*
%TO.C,C10*%
X38964000Y-101779000D03*
D13*
X41464000Y-101779000D03*
%TD*%
D12*
%TO.C,C6*%
X43350000Y-45000000D03*
D13*
X45850000Y-45000000D03*
%TD*%
D12*
%TO.C,C1*%
X72994888Y-108550000D03*
D13*
X75494888Y-108550000D03*
%TD*%
%TO.C,C7*%
X44350000Y-55000000D03*
X49350000Y-55000000D03*
%TD*%
D17*
%TO.C,C5*%
X117900000Y-28200000D03*
X117900000Y-33200000D03*
%TD*%
%TO.C,C13*%
X43300000Y-77750000D03*
X48300000Y-77750000D03*
%TD*%
D13*
%TO.C,C2*%
X74940000Y-91990000D03*
X74940000Y-86990000D03*
%TD*%
D17*
%TO.C,SW3*%
X96450000Y-106800000D03*
X102950000Y-106800000D03*
X96450000Y-111300000D03*
X102950000Y-111300000D03*
%TD*%
%TO.C,SW1*%
X81700000Y-106550000D03*
X88200000Y-106550000D03*
X81700000Y-111050000D03*
X88200000Y-111050000D03*
%TD*%
D27*
%TO.C,REF\u002A\u002A*%
X169950000Y-127450000D03*
D28*
X169950000Y-127450000D03*
%TD*%
D26*
%TO.C,R6*%
X130330000Y-106650000D03*
X137950000Y-106650000D03*
%TD*%
D29*
%TO.C,D3*%
X57850000Y-50000000D03*
D30*
X57850000Y-47460000D03*
%TD*%
D29*
%TO.C,D1*%
X108185000Y-111800000D03*
D30*
X110725000Y-111800000D03*
%TD*%
D31*
%TO.C,D2*%
X15770000Y-43420000D03*
D32*
X15770000Y-48500000D03*
X20850000Y-48500000D03*
X20850000Y-43420000D03*
%TD*%
D14*
%TO.C,J2*%
X132410000Y-41540000D03*
D15*
X134950000Y-41540000D03*
X132410000Y-44080000D03*
X134950000Y-44080000D03*
X132410000Y-46620000D03*
X134950000Y-46620000D03*
X132410000Y-49160000D03*
X134950000Y-49160000D03*
X132410000Y-51700000D03*
X134950000Y-51700000D03*
%TD*%
D14*
%TO.C,J4*%
X132910000Y-73040000D03*
D15*
X135450000Y-73040000D03*
X132910000Y-75580000D03*
X135450000Y-75580000D03*
X132910000Y-78120000D03*
X135450000Y-78120000D03*
X132910000Y-80660000D03*
X135450000Y-80660000D03*
X132910000Y-83200000D03*
X135450000Y-83200000D03*
%TD*%
D14*
%TO.C,J3*%
X71900000Y-28290000D03*
D15*
X74440000Y-28290000D03*
X71900000Y-30830000D03*
X74440000Y-30830000D03*
X71900000Y-33370000D03*
X74440000Y-33370000D03*
X71900000Y-35910000D03*
X74440000Y-35910000D03*
X71900000Y-38450000D03*
X74440000Y-38450000D03*
%TD*%
D33*
%TO.C,Y1*%
X82440000Y-96370000D03*
X82440000Y-91490000D03*
%TD*%
M02*
