%TF.GenerationSoftware,KiCad,Pcbnew,9.0.7*%
%TF.CreationDate,2026-01-07T21:02:37+05:30*%
%TF.ProjectId,PCB Design,50434220-4465-4736-9967-6e2e6b696361,rev?*%
%TF.SameCoordinates,Original*%
%TF.FileFunction,Copper,L1,Top*%
%TF.FilePolarity,Positive*%
%FSLAX46Y46*%
G04 Gerber Fmt 4.6, Leading zero omitted, Abs format (unit mm)*
G04 Created by KiCad (PCBNEW 9.0.7) date 2026-01-07 21:02:37*
%MOMM*%
%LPD*%
G01*
G04 APERTURE LIST*
G04 Aperture macros list*
%AMRoundRect*
0 Rectangle with rounded corners*
0 $1 Rounding radius*
0 $2 $3 $4 $5 $6 $7 $8 $9 X,Y pos of 4 corners*
0 Add a 4 corners polygon primitive as box body*
4,1,4,$2,$3,$4,$5,$6,$7,$8,$9,$2,$3,0*
0 Add four circle primitives for the rounded corners*
1,1,$1+$1,$2,$3*
1,1,$1+$1,$4,$5*
1,1,$1+$1,$6,$7*
1,1,$1+$1,$8,$9*
0 Add four rect primitives between the rounded corners*
20,1,$1+$1,$2,$3,$4,$5,0*
20,1,$1+$1,$4,$5,$6,$7,0*
20,1,$1+$1,$6,$7,$8,$9,0*
20,1,$1+$1,$8,$9,$2,$3,0*%
G04 Aperture macros list end*
%TA.AperFunction,ComponentPad*%
%ADD10R,1.905000X2.000000*%
%TD*%
%TA.AperFunction,ComponentPad*%
%ADD11O,1.905000X2.000000*%
%TD*%
%TA.AperFunction,ComponentPad*%
%ADD12RoundRect,0.250000X-0.550000X-0.550000X0.550000X-0.550000X0.550000X0.550000X-0.550000X0.550000X0*%
%TD*%
%TA.AperFunction,ComponentPad*%
%ADD13C,1.600000*%
%TD*%
%TA.AperFunction,ComponentPad*%
%ADD14RoundRect,0.250000X-0.600000X-0.600000X0.600000X-0.600000X0.600000X0.600000X-0.600000X0.600000X0*%
%TD*%
%TA.AperFunction,ComponentPad*%
%ADD15C,1.700000*%
%TD*%
%TA.AperFunction,ComponentPad*%
%ADD16R,1.700000X1.700000*%
%TD*%
%TA.AperFunction,ComponentPad*%
%ADD17C,2.000000*%
%TD*%
%TA.AperFunction,ComponentPad*%
%ADD18O,2.000000X1.440000*%
%TD*%
%TA.AperFunction,ComponentPad*%
%ADD19R,2.000000X1.440000*%
%TD*%
%TA.AperFunction,ComponentPad*%
%ADD20R,1.500000X1.500000*%
%TD*%
%TA.AperFunction,ComponentPad*%
%ADD21R,1.600000X1.600000*%
%TD*%
%TA.AperFunction,ComponentPad*%
%ADD22C,4.000000*%
%TD*%
%TA.AperFunction,ComponentPad*%
%ADD23RoundRect,0.875000X-0.875000X-0.875000X0.875000X-0.875000X0.875000X0.875000X-0.875000X0.875000X0*%
%TD*%
%TA.AperFunction,ComponentPad*%
%ADD24RoundRect,0.750000X-0.750000X-1.000000X0.750000X-1.000000X0.750000X1.000000X-0.750000X1.000000X0*%
%TD*%
%TA.AperFunction,ComponentPad*%
%ADD25R,3.500000X3.500000*%
%TD*%
%TA.AperFunction,ComponentPad*%
%ADD26C,1.400000*%
%TD*%
%TA.AperFunction,ComponentPad*%
%ADD27C,3.600000*%
%TD*%
%TA.AperFunction,ConnectorPad*%
%ADD28C,5.600000*%
%TD*%
%TA.AperFunction,SMDPad,CuDef*%
%ADD29RoundRect,0.218750X-0.218750X-0.381250X0.218750X-0.381250X0.218750X0.381250X-0.218750X0.381250X0*%
%TD*%
%TA.AperFunction,SMDPad,CuDef*%
%ADD30RoundRect,0.250000X0.450000X-0.262500X0.450000X0.262500X-0.450000X0.262500X-0.450000X-0.262500X0*%
%TD*%
%TA.AperFunction,SMDPad,CuDef*%
%ADD31RoundRect,0.249999X-0.750001X-0.640001X0.750001X-0.640001X0.750001X0.640001X-0.750001X0.640001X0*%
%TD*%
%TA.AperFunction,SMDPad,CuDef*%
%ADD32RoundRect,0.250000X-0.350000X-0.450000X0.350000X-0.450000X0.350000X0.450000X-0.350000X0.450000X0*%
%TD*%
%TA.AperFunction,ComponentPad*%
%ADD33R,1.800000X1.800000*%
%TD*%
%TA.AperFunction,ComponentPad*%
%ADD34C,1.800000*%
%TD*%
%TA.AperFunction,ComponentPad*%
%ADD35R,2.000000X2.000000*%
%TD*%
%TA.AperFunction,ComponentPad*%
%ADD36O,2.000000X2.000000*%
%TD*%
%TA.AperFunction,ComponentPad*%
%ADD37C,1.500000*%
%TD*%
%TA.AperFunction,SMDPad,CuDef*%
%ADD38RoundRect,0.100000X0.100000X-0.850000X0.100000X0.850000X-0.100000X0.850000X-0.100000X-0.850000X0*%
%TD*%
%TA.AperFunction,ViaPad*%
%ADD39C,0.600000*%
%TD*%
%TA.AperFunction,Conductor*%
%ADD40C,0.200000*%
%TD*%
G04 APERTURE END LIST*
D10*
%TO.P,U2,1,IN*%
%TO.N,Net-(D2-+)*%
X38770000Y-34000000D03*
D11*
%TO.P,U2,2,GND*%
%TO.N,GND*%
X41310000Y-34000000D03*
%TO.P,U2,3,OUT*%
%TO.N,Net-(SW2-A)*%
X43850000Y-34000000D03*
%TD*%
D12*
%TO.P,C4,1*%
%TO.N,Net-(D2-+)*%
X32350000Y-44500000D03*
D13*
%TO.P,C4,2*%
%TO.N,GND*%
X37350000Y-44500000D03*
%TD*%
D14*
%TO.P,J8,1,Pin_1*%
%TO.N,/P0_0*%
X155400000Y-85370000D03*
D15*
%TO.P,J8,2,Pin_2*%
%TO.N,/P0_1*%
X157940000Y-85370000D03*
%TO.P,J8,3,Pin_3*%
%TO.N,/P0_2*%
X155400000Y-87910000D03*
%TO.P,J8,4,Pin_4*%
%TO.N,/P0_3*%
X157940000Y-87910000D03*
%TO.P,J8,5,Pin_5*%
%TO.N,/P0_4*%
X155400000Y-90450000D03*
%TO.P,J8,6,Pin_6*%
%TO.N,/P0_5*%
X157940000Y-90450000D03*
%TO.P,J8,7,Pin_7*%
%TO.N,/P0_6*%
X155400000Y-92990000D03*
%TO.P,J8,8,Pin_8*%
%TO.N,/P0_7*%
X157940000Y-92990000D03*
%TO.P,J8,9,Pin_9*%
%TO.N,/P2_0*%
X155400000Y-95530000D03*
%TO.P,J8,10,Pin_10*%
%TO.N,/P2_1*%
X157940000Y-95530000D03*
%TO.P,J8,11,Pin_11*%
%TO.N,/P2_2*%
X155400000Y-98070000D03*
%TO.P,J8,12,Pin_12*%
%TO.N,/P2_3*%
X157940000Y-98070000D03*
%TO.P,J8,13,Pin_13*%
%TO.N,/P2_4*%
X155400000Y-100610000D03*
%TO.P,J8,14,Pin_14*%
%TO.N,/P2_5*%
X157940000Y-100610000D03*
%TO.P,J8,15,Pin_15*%
%TO.N,/P2_6*%
X155400000Y-103150000D03*
%TO.P,J8,16,Pin_16*%
%TO.N,/P2_7*%
X157940000Y-103150000D03*
%TO.P,J8,17,Pin_17*%
%TO.N,VCC*%
X155400000Y-105690000D03*
%TO.P,J8,18,Pin_18*%
%TO.N,GND*%
X157940000Y-105690000D03*
%TO.P,J8,19,Pin_19*%
%TO.N,VCC*%
X155400000Y-108230000D03*
%TO.P,J8,20,Pin_20*%
%TO.N,GND*%
X157940000Y-108230000D03*
%TD*%
D14*
%TO.P,J6,1,Pin_1*%
%TO.N,/P1_0*%
X155440000Y-35370000D03*
D15*
%TO.P,J6,2,Pin_2*%
%TO.N,/P1_1*%
X157980000Y-35370000D03*
%TO.P,J6,3,Pin_3*%
%TO.N,/P1_2*%
X155440000Y-37910000D03*
%TO.P,J6,4,Pin_4*%
%TO.N,/P1_3*%
X157980000Y-37910000D03*
%TO.P,J6,5,Pin_5*%
%TO.N,/P1_4*%
X155440000Y-40450000D03*
%TO.P,J6,6,Pin_6*%
%TO.N,/P1_5*%
X157980000Y-40450000D03*
%TO.P,J6,7,Pin_7*%
%TO.N,/P1_6*%
X155440000Y-42990000D03*
%TO.P,J6,8,Pin_8*%
%TO.N,/P1_7*%
X157980000Y-42990000D03*
%TO.P,J6,9,Pin_9*%
%TO.N,/P3_0*%
X155440000Y-45530000D03*
%TO.P,J6,10,Pin_10*%
%TO.N,/P3_1*%
X157980000Y-45530000D03*
%TO.P,J6,11,Pin_11*%
%TO.N,/P3_2*%
X155440000Y-48070000D03*
%TO.P,J6,12,Pin_12*%
%TO.N,/P3_3*%
X157980000Y-48070000D03*
%TO.P,J6,13,Pin_13*%
%TO.N,/P3_4*%
X155440000Y-50610000D03*
%TO.P,J6,14,Pin_14*%
%TO.N,/P3_5*%
X157980000Y-50610000D03*
%TO.P,J6,15,Pin_15*%
%TO.N,/P3_6*%
X155440000Y-53150000D03*
%TO.P,J6,16,Pin_16*%
%TO.N,/P3_7*%
X157980000Y-53150000D03*
%TO.P,J6,17,Pin_17*%
%TO.N,VCC*%
X155440000Y-55690000D03*
%TO.P,J6,18,Pin_18*%
%TO.N,GND*%
X157980000Y-55690000D03*
%TO.P,J6,19,Pin_19*%
%TO.N,VCC*%
X155440000Y-58230000D03*
%TO.P,J6,20,Pin_20*%
%TO.N,GND*%
X157980000Y-58230000D03*
%TD*%
%TO.P,J5,10,Pin_10*%
%TO.N,GND*%
X74440000Y-69950000D03*
%TO.P,J5,9,Pin_9*%
%TO.N,VCC*%
X71900000Y-69950000D03*
%TO.P,J5,8,Pin_8*%
%TO.N,/P3_7*%
X74440000Y-67410000D03*
%TO.P,J5,7,Pin_7*%
%TO.N,/P3_6*%
X71900000Y-67410000D03*
%TO.P,J5,6,Pin_6*%
%TO.N,/P3_5*%
X74440000Y-64870000D03*
%TO.P,J5,5,Pin_5*%
%TO.N,/P3_4*%
X71900000Y-64870000D03*
%TO.P,J5,4,Pin_4*%
%TO.N,/P3_3*%
X74440000Y-62330000D03*
%TO.P,J5,3,Pin_3*%
%TO.N,/P3_2*%
X71900000Y-62330000D03*
%TO.P,J5,2,Pin_2*%
%TO.N,/P3_1*%
X74440000Y-59790000D03*
D14*
%TO.P,J5,1,Pin_1*%
%TO.N,/P3_0*%
X71900000Y-59790000D03*
%TD*%
D15*
%TO.P,J10,3,Pin_3*%
%TO.N,Net-(J10-Pin_3)*%
X60050000Y-61350000D03*
%TO.P,J10,2,Pin_2*%
%TO.N,Net-(J10-Pin_2)*%
X60050000Y-63890000D03*
D16*
%TO.P,J10,1,Pin_1*%
%TO.N,Net-(J10-Pin_1)*%
X60050000Y-66430000D03*
%TD*%
D15*
%TO.P,J11,2,Pin_2*%
%TO.N,Net-(J11-Pin_2)*%
X60100000Y-77515000D03*
D16*
%TO.P,J11,1,Pin_1*%
%TO.N,VCC*%
X60100000Y-74975000D03*
%TD*%
D17*
%TO.P,C12,2*%
%TO.N,GND*%
X37550000Y-77750000D03*
%TO.P,C12,1*%
%TO.N,Net-(J9-VBUS)*%
X32550000Y-77750000D03*
%TD*%
D18*
%TO.P,U1,40,VCC*%
%TO.N,VCC*%
X107990000Y-37750000D03*
%TO.P,U1,39,P0.0/AD0*%
%TO.N,/P0_0*%
X107990000Y-40290000D03*
%TO.P,U1,38,P0.1/AD1*%
%TO.N,/P0_1*%
X107990000Y-42830000D03*
%TO.P,U1,37,P0.2/AD2*%
%TO.N,/P0_2*%
X107990000Y-45370000D03*
%TO.P,U1,36,P0.3/AD3*%
%TO.N,/P0_3*%
X107990000Y-47910000D03*
%TO.P,U1,35,P0.4/AD4*%
%TO.N,/P0_4*%
X107990000Y-50450000D03*
%TO.P,U1,34,P0.5/AD5*%
%TO.N,/P0_5*%
X107990000Y-52990000D03*
%TO.P,U1,33,P0.6/AD6*%
%TO.N,/P0_6*%
X107990000Y-55530000D03*
%TO.P,U1,32,P0.7/AD7*%
%TO.N,/P0_7*%
X107990000Y-58070000D03*
%TO.P,U1,31,~{EA}*%
%TO.N,/EA*%
X107990000Y-60610000D03*
%TO.P,U1,30,ALE*%
%TO.N,unconnected-(U1-ALE-Pad30)*%
X107990000Y-63150000D03*
%TO.P,U1,29,~{PSEN}*%
%TO.N,/PSEN*%
X107990000Y-65690000D03*
%TO.P,U1,28,P2.7/A15*%
%TO.N,/P2_7*%
X107990000Y-68230000D03*
%TO.P,U1,27,P2.6/A14*%
%TO.N,/P2_6*%
X107990000Y-70770000D03*
%TO.P,U1,26,P2.5/A13*%
%TO.N,/P2_5*%
X107990000Y-73310000D03*
%TO.P,U1,25,P2.4/A12*%
%TO.N,/P2_4*%
X107990000Y-75850000D03*
%TO.P,U1,24,P2.3/A11*%
%TO.N,/P2_3*%
X107990000Y-78390000D03*
%TO.P,U1,23,P2.2/A10*%
%TO.N,/P2_2*%
X107990000Y-80930000D03*
%TO.P,U1,22,P2.1/A9*%
%TO.N,/P2_1*%
X107990000Y-83470000D03*
%TO.P,U1,21,P2.0/A8*%
%TO.N,/P2_0*%
X107990000Y-86010000D03*
%TO.P,U1,20,VSS*%
%TO.N,GND*%
X92750000Y-86010000D03*
%TO.P,U1,19,XTAL1*%
%TO.N,Net-(U1-XTAL1)*%
X92750000Y-83470000D03*
%TO.P,U1,18,XTAL2*%
%TO.N,Net-(U1-XTAL2)*%
X92750000Y-80930000D03*
%TO.P,U1,17,P3.7/~{RD}*%
%TO.N,/P3_7*%
X92750000Y-78390000D03*
%TO.P,U1,16,P3.6/~{WR}*%
%TO.N,/P3_6*%
X92750000Y-75850000D03*
%TO.P,U1,15,P3.5/T1*%
%TO.N,/P3_5*%
X92750000Y-73310000D03*
%TO.P,U1,14,P3.4/T0*%
%TO.N,/P3_4*%
X92750000Y-70770000D03*
%TO.P,U1,13,P3.3/~{INT1}*%
%TO.N,/P3_3*%
X92750000Y-68230000D03*
%TO.P,U1,12,P3.2/~{INT0}*%
%TO.N,/P3_2*%
X92750000Y-65690000D03*
%TO.P,U1,11,P3.1/TXD*%
%TO.N,/P3_1*%
X92750000Y-63150000D03*
%TO.P,U1,10,P3.0/RXD*%
%TO.N,/P3_0*%
X92750000Y-60610000D03*
%TO.P,U1,9,RST*%
%TO.N,/RST*%
X92750000Y-58070000D03*
%TO.P,U1,8,P1.7*%
%TO.N,/P1_7*%
X92750000Y-55530000D03*
%TO.P,U1,7,P1.6*%
%TO.N,/P1_6*%
X92750000Y-52990000D03*
%TO.P,U1,6,P1.5*%
%TO.N,/P1_5*%
X92750000Y-50450000D03*
%TO.P,U1,5,P1.4*%
%TO.N,/P1_4*%
X92750000Y-47910000D03*
%TO.P,U1,4,P1.3*%
%TO.N,/P1_3*%
X92750000Y-45370000D03*
%TO.P,U1,3,P1.2*%
%TO.N,/P1_2*%
X92750000Y-42830000D03*
%TO.P,U1,2,P1.1*%
%TO.N,/P1_1*%
X92750000Y-40290000D03*
D19*
%TO.P,U1,1,P1.0*%
%TO.N,/P1_0*%
X92750000Y-37750000D03*
%TD*%
D20*
%TO.P,SW2,1,A*%
%TO.N,Net-(SW2-A)*%
X56850000Y-34460000D03*
D13*
%TO.P,SW2,2,B*%
%TO.N,Net-(SW2-B)*%
X56850000Y-31920000D03*
%TO.P,SW2,3,C*%
%TO.N,/USB*%
X56850000Y-37000000D03*
%TD*%
D21*
%TO.P,J9,1,VBUS*%
%TO.N,Net-(J9-VBUS)*%
X27587500Y-71500000D03*
D13*
%TO.P,J9,2,D-*%
%TO.N,Net-(J9-D-)*%
X27587500Y-69000000D03*
%TO.P,J9,3,D+*%
%TO.N,Net-(J9-D+)*%
X25587500Y-69000000D03*
%TO.P,J9,4,GND*%
%TO.N,GND*%
X25587500Y-71500000D03*
D22*
%TO.P,J9,5,Shield*%
%TO.N,unconnected-(J9-Shield-Pad5)*%
X22727500Y-76250000D03*
X22727500Y-64250000D03*
%TD*%
D23*
%TO.P,J1,3*%
%TO.N,N/C*%
X23350000Y-36700000D03*
D24*
%TO.P,J1,2*%
%TO.N,Net-(D2-Pad2)*%
X20350000Y-32000000D03*
D25*
%TO.P,J1,1*%
%TO.N,Net-(D2-Pad4)*%
X26350000Y-32000000D03*
%TD*%
D13*
%TO.P,J7,9,9*%
%TO.N,unconnected-(J7-Pad9)*%
X26779000Y-104734000D03*
%TO.P,J7,8,8*%
%TO.N,unconnected-(J7-Pad8)*%
X26779000Y-101964000D03*
%TO.P,J7,7,7*%
%TO.N,unconnected-(J7-Pad7)*%
X26779000Y-99194000D03*
%TO.P,J7,6,6*%
%TO.N,unconnected-(J7-Pad6)*%
X26779000Y-96424000D03*
%TO.P,J7,5,5*%
%TO.N,GND*%
X29619000Y-106119000D03*
%TO.P,J7,4,4*%
%TO.N,unconnected-(J7-Pad4)*%
X29619000Y-103349000D03*
%TO.P,J7,3,3*%
%TO.N,Net-(U3-T2OUT)*%
X29619000Y-100579000D03*
%TO.P,J7,2,2*%
%TO.N,Net-(U3-R2IN)*%
X29619000Y-97809000D03*
D21*
%TO.P,J7,1,1*%
%TO.N,unconnected-(J7-Pad1)*%
X29619000Y-95039000D03*
D22*
%TO.P,J7,0*%
%TO.N,N/C*%
X28199000Y-113079000D03*
X28199000Y-88079000D03*
%TD*%
D26*
%TO.P,R2,2*%
%TO.N,GND*%
X137450000Y-112500000D03*
%TO.P,R2,1*%
%TO.N,Net-(C1-Pad2)*%
X129830000Y-112500000D03*
%TD*%
%TO.P,R3,2*%
%TO.N,Net-(D3-A)*%
X35850000Y-55000000D03*
%TO.P,R3,1*%
%TO.N,Net-(SW2-B)*%
X28230000Y-55000000D03*
%TD*%
%TO.P,R4,2*%
%TO.N,/EA*%
X137760000Y-96000000D03*
%TO.P,R4,1*%
%TO.N,VCC*%
X130140000Y-96000000D03*
%TD*%
%TO.P,R5,2*%
%TO.N,/PSEN*%
X137760000Y-101150000D03*
%TO.P,R5,1*%
%TO.N,VCC*%
X130140000Y-101150000D03*
%TD*%
D12*
%TO.P,C8,1*%
%TO.N,Net-(U3-C1+)*%
X38964000Y-88679000D03*
D13*
%TO.P,C8,2*%
%TO.N,Net-(U3-C1-)*%
X41464000Y-88679000D03*
%TD*%
D21*
%TO.P,RN1,1,common*%
%TO.N,VCC*%
X118440000Y-38160000D03*
D13*
%TO.P,RN1,2,R1*%
%TO.N,/P0_0*%
X118440000Y-40700000D03*
%TO.P,RN1,3,R2*%
%TO.N,/P0_1*%
X118440000Y-43240000D03*
%TO.P,RN1,4,R3*%
%TO.N,/P0_2*%
X118440000Y-45780000D03*
%TO.P,RN1,5,R4*%
%TO.N,/P0_3*%
X118440000Y-48320000D03*
%TO.P,RN1,6,R5*%
%TO.N,/P0_4*%
X118440000Y-50860000D03*
%TO.P,RN1,7,R6*%
%TO.N,/P0_5*%
X118440000Y-53400000D03*
%TO.P,RN1,8,R7*%
%TO.N,/P0_6*%
X118440000Y-55940000D03*
%TO.P,RN1,9,R8*%
%TO.N,/P0_7*%
X118440000Y-58480000D03*
%TD*%
D12*
%TO.P,C9,1*%
%TO.N,Net-(U3-VS+)*%
X38964000Y-95229000D03*
D13*
%TO.P,C9,2*%
%TO.N,VCC*%
X41464000Y-95229000D03*
%TD*%
D27*
%TO.P,REF\u002A\u002A,1*%
%TO.N,N/C*%
X17450000Y-129250000D03*
D28*
X17450000Y-129250000D03*
%TD*%
D12*
%TO.P,C11,1*%
%TO.N,GND*%
X38964000Y-108329000D03*
D13*
%TO.P,C11,2*%
%TO.N,Net-(U3-VS-)*%
X41464000Y-108329000D03*
%TD*%
D27*
%TO.P,REF\u002A\u002A,1*%
%TO.N,N/C*%
X18250000Y-18450000D03*
D28*
X18250000Y-18450000D03*
%TD*%
D13*
%TO.P,C3,1*%
%TO.N,Net-(U1-XTAL2)*%
X74940000Y-99990000D03*
%TO.P,C3,2*%
%TO.N,GND*%
X74940000Y-94990000D03*
%TD*%
D27*
%TO.P,REF\u002A\u002A,1*%
%TO.N,N/C*%
X168600000Y-19200000D03*
D28*
X168600000Y-19200000D03*
%TD*%
D17*
%TO.P,SW4,1,1*%
%TO.N,Net-(SW3-Pad1)*%
X117950000Y-107100000D03*
X124450000Y-107100000D03*
%TO.P,SW4,2,2*%
%TO.N,/P3_3*%
X117950000Y-111600000D03*
X124450000Y-111600000D03*
%TD*%
D29*
%TO.P,L1,1,1*%
%TO.N,Net-(J9-VBUS)*%
X52275000Y-77750000D03*
%TO.P,L1,2,2*%
%TO.N,/USB*%
X54400000Y-77750000D03*
%TD*%
D12*
%TO.P,C10,1*%
%TO.N,Net-(U3-C2+)*%
X38964000Y-101779000D03*
D13*
%TO.P,C10,2*%
%TO.N,Net-(U3-C2-)*%
X41464000Y-101779000D03*
%TD*%
D12*
%TO.P,C6,1*%
%TO.N,Net-(SW2-A)*%
X43350000Y-45000000D03*
D13*
%TO.P,C6,2*%
%TO.N,GND*%
X45850000Y-45000000D03*
%TD*%
D12*
%TO.P,C1,1*%
%TO.N,VCC*%
X72994888Y-108550000D03*
D13*
%TO.P,C1,2*%
%TO.N,Net-(C1-Pad2)*%
X75494888Y-108550000D03*
%TD*%
%TO.P,C7,1*%
%TO.N,Net-(SW2-A)*%
X44350000Y-55000000D03*
%TO.P,C7,2*%
%TO.N,GND*%
X49350000Y-55000000D03*
%TD*%
D17*
%TO.P,C5,1*%
%TO.N,VCC*%
X117900000Y-28200000D03*
%TO.P,C5,2*%
%TO.N,GND*%
X117900000Y-33200000D03*
%TD*%
%TO.P,C13,1*%
%TO.N,Net-(J11-Pin_2)*%
X43300000Y-77750000D03*
%TO.P,C13,2*%
%TO.N,GND*%
X48300000Y-77750000D03*
%TD*%
D13*
%TO.P,C2,1*%
%TO.N,Net-(U1-XTAL1)*%
X74940000Y-91990000D03*
%TO.P,C2,2*%
%TO.N,GND*%
X74940000Y-86990000D03*
%TD*%
D17*
%TO.P,SW3,1,1*%
%TO.N,Net-(SW3-Pad1)*%
X96450000Y-106800000D03*
X102950000Y-106800000D03*
%TO.P,SW3,2,2*%
%TO.N,/P3_2*%
X96450000Y-111300000D03*
X102950000Y-111300000D03*
%TD*%
D30*
%TO.P,R7,1*%
%TO.N,VCC*%
X67112500Y-110462500D03*
%TO.P,R7,2*%
%TO.N,/P3_3*%
X67112500Y-108637500D03*
%TD*%
D17*
%TO.P,SW1,1,1*%
%TO.N,/RST*%
X81700000Y-106550000D03*
X88200000Y-106550000D03*
%TO.P,SW1,2,2*%
%TO.N,VCC*%
X81700000Y-111050000D03*
X88200000Y-111050000D03*
%TD*%
D27*
%TO.P,REF\u002A\u002A,1*%
%TO.N,N/C*%
X169950000Y-127450000D03*
D28*
X169950000Y-127450000D03*
%TD*%
D31*
%TO.P,U3,1,C1+*%
%TO.N,Net-(U3-C1+)*%
X49239000Y-90489000D03*
%TO.P,U3,2,VS+*%
%TO.N,Net-(U3-VS+)*%
X49239000Y-93029000D03*
%TO.P,U3,3,C1-*%
%TO.N,Net-(U3-C1-)*%
X49239000Y-95569000D03*
%TO.P,U3,4,C2+*%
%TO.N,Net-(U3-C2+)*%
X49239000Y-98109000D03*
%TO.P,U3,5,C2-*%
%TO.N,Net-(U3-C2-)*%
X49239000Y-100649000D03*
%TO.P,U3,6,VS-*%
%TO.N,Net-(U3-VS-)*%
X49239000Y-103189000D03*
%TO.P,U3,7,T2OUT*%
%TO.N,Net-(U3-T2OUT)*%
X49239000Y-105729000D03*
%TO.P,U3,8,R2IN*%
%TO.N,Net-(U3-R2IN)*%
X49239000Y-108269000D03*
%TO.P,U3,9,R2OUT*%
%TO.N,/P3_0*%
X56859000Y-108269000D03*
%TO.P,U3,10,T2IN*%
%TO.N,/P3_1*%
X56859000Y-105729000D03*
%TO.P,U3,11,T1IN*%
%TO.N,unconnected-(U3-T1IN-Pad11)*%
X56859000Y-103189000D03*
%TO.P,U3,12,R1OUT*%
%TO.N,unconnected-(U3-R1OUT-Pad12)*%
X56859000Y-100649000D03*
%TO.P,U3,13,R1IN*%
%TO.N,unconnected-(U3-R1IN-Pad13)*%
X56859000Y-98109000D03*
%TO.P,U3,14,T1OUT*%
%TO.N,unconnected-(U3-T1OUT-Pad14)*%
X56859000Y-95569000D03*
%TO.P,U3,15,GND*%
%TO.N,GND*%
X56859000Y-93029000D03*
%TO.P,U3,16,VCC*%
%TO.N,VCC*%
X56859000Y-90489000D03*
%TD*%
D26*
%TO.P,R6,1*%
%TO.N,VCC*%
X130330000Y-106650000D03*
%TO.P,R6,2*%
%TO.N,/P3_2*%
X137950000Y-106650000D03*
%TD*%
D32*
%TO.P,R1,1*%
%TO.N,/P3_2*%
X109950000Y-106800000D03*
%TO.P,R1,2*%
%TO.N,Net-(D1-A)*%
X111950000Y-106800000D03*
%TD*%
D33*
%TO.P,D3,1,K*%
%TO.N,GND*%
X57850000Y-50000000D03*
D34*
%TO.P,D3,2,A*%
%TO.N,Net-(D3-A)*%
X57850000Y-47460000D03*
%TD*%
D33*
%TO.P,D1,1,K*%
%TO.N,GND*%
X108185000Y-111800000D03*
D34*
%TO.P,D1,2,A*%
%TO.N,Net-(D1-A)*%
X110725000Y-111800000D03*
%TD*%
D35*
%TO.P,D2,1,+*%
%TO.N,Net-(D2-+)*%
X15770000Y-43420000D03*
D36*
%TO.P,D2,2*%
%TO.N,Net-(D2-Pad2)*%
X15770000Y-48500000D03*
%TO.P,D2,3,-*%
%TO.N,GND*%
X20850000Y-48500000D03*
%TO.P,D2,4*%
%TO.N,Net-(D2-Pad4)*%
X20850000Y-43420000D03*
%TD*%
D14*
%TO.P,J2,1,Pin_1*%
%TO.N,/P0_0*%
X132410000Y-41540000D03*
D15*
%TO.P,J2,2,Pin_2*%
%TO.N,/P0_1*%
X134950000Y-41540000D03*
%TO.P,J2,3,Pin_3*%
%TO.N,/P0_2*%
X132410000Y-44080000D03*
%TO.P,J2,4,Pin_4*%
%TO.N,/P0_3*%
X134950000Y-44080000D03*
%TO.P,J2,5,Pin_5*%
%TO.N,/P0_4*%
X132410000Y-46620000D03*
%TO.P,J2,6,Pin_6*%
%TO.N,/P0_5*%
X134950000Y-46620000D03*
%TO.P,J2,7,Pin_7*%
%TO.N,/P0_6*%
X132410000Y-49160000D03*
%TO.P,J2,8,Pin_8*%
%TO.N,/P0_7*%
X134950000Y-49160000D03*
%TO.P,J2,9,Pin_9*%
%TO.N,VCC*%
X132410000Y-51700000D03*
%TO.P,J2,10,Pin_10*%
%TO.N,GND*%
X134950000Y-51700000D03*
%TD*%
D14*
%TO.P,J4,1,Pin_1*%
%TO.N,/P2_0*%
X132910000Y-73040000D03*
D15*
%TO.P,J4,2,Pin_2*%
%TO.N,/P2_1*%
X135450000Y-73040000D03*
%TO.P,J4,3,Pin_3*%
%TO.N,/P2_2*%
X132910000Y-75580000D03*
%TO.P,J4,4,Pin_4*%
%TO.N,/P2_3*%
X135450000Y-75580000D03*
%TO.P,J4,5,Pin_5*%
%TO.N,/P2_4*%
X132910000Y-78120000D03*
%TO.P,J4,6,Pin_6*%
%TO.N,/P2_5*%
X135450000Y-78120000D03*
%TO.P,J4,7,Pin_7*%
%TO.N,/P2_6*%
X132910000Y-80660000D03*
%TO.P,J4,8,Pin_8*%
%TO.N,/P2_7*%
X135450000Y-80660000D03*
%TO.P,J4,9,Pin_9*%
%TO.N,VCC*%
X132910000Y-83200000D03*
%TO.P,J4,10,Pin_10*%
%TO.N,GND*%
X135450000Y-83200000D03*
%TD*%
D14*
%TO.P,J3,1,Pin_1*%
%TO.N,/P1_0*%
X71900000Y-28290000D03*
D15*
%TO.P,J3,2,Pin_2*%
%TO.N,/P1_1*%
X74440000Y-28290000D03*
%TO.P,J3,3,Pin_3*%
%TO.N,/P1_2*%
X71900000Y-30830000D03*
%TO.P,J3,4,Pin_4*%
%TO.N,/P1_3*%
X74440000Y-30830000D03*
%TO.P,J3,5,Pin_5*%
%TO.N,/P1_4*%
X71900000Y-33370000D03*
%TO.P,J3,6,Pin_6*%
%TO.N,/P1_5*%
X74440000Y-33370000D03*
%TO.P,J3,7,Pin_7*%
%TO.N,/P1_6*%
X71900000Y-35910000D03*
%TO.P,J3,8,Pin_8*%
%TO.N,/P1_7*%
X74440000Y-35910000D03*
%TO.P,J3,9,Pin_9*%
%TO.N,VCC*%
X71900000Y-38450000D03*
%TO.P,J3,10,Pin_10*%
%TO.N,GND*%
X74440000Y-38450000D03*
%TD*%
D37*
%TO.P,Y1,1,1*%
%TO.N,Net-(U1-XTAL1)*%
X82440000Y-96370000D03*
%TO.P,Y1,2,2*%
%TO.N,Net-(U1-XTAL2)*%
X82440000Y-91490000D03*
%TD*%
D38*
%TO.P,U4,28,OSCO*%
%TO.N,unconnected-(U4-OSCO-Pad28)*%
X34200000Y-63250000D03*
%TO.P,U4,27,OSCI*%
%TO.N,unconnected-(U4-OSCI-Pad27)*%
X34850000Y-63250000D03*
%TO.P,U4,26,TEST*%
%TO.N,GND*%
X35500000Y-63250000D03*
%TO.P,U4,25,AGND*%
X36150000Y-63250000D03*
%TO.P,U4,24*%
%TO.N,N/C*%
X36800000Y-63250000D03*
%TO.P,U4,23,CBUS0*%
%TO.N,unconnected-(U4-CBUS0-Pad23)*%
X37450000Y-63250000D03*
%TO.P,U4,22,CBUS1*%
%TO.N,unconnected-(U4-CBUS1-Pad22)*%
X38100000Y-63250000D03*
%TO.P,U4,21,GND*%
%TO.N,GND*%
X38750000Y-63250000D03*
%TO.P,U4,20,VCC*%
%TO.N,Net-(J11-Pin_2)*%
X39400000Y-63250000D03*
%TO.P,U4,19,~{RESET}*%
%TO.N,unconnected-(U4-~{RESET}-Pad19)*%
X40050000Y-63250000D03*
%TO.P,U4,18,GND*%
%TO.N,GND*%
X40700000Y-63250000D03*
%TO.P,U4,17,3V3OUT*%
%TO.N,unconnected-(U4-3V3OUT-Pad17)*%
X41350000Y-63250000D03*
%TO.P,U4,16,USBD-*%
%TO.N,Net-(J9-D-)*%
X42000000Y-63250000D03*
%TO.P,U4,15,USBD+*%
%TO.N,Net-(J9-D+)*%
X42650000Y-63250000D03*
%TO.P,U4,14,CBUS3*%
%TO.N,unconnected-(U4-CBUS3-Pad14)*%
X42650000Y-70250000D03*
%TO.P,U4,13,CBUS2*%
%TO.N,unconnected-(U4-CBUS2-Pad13)*%
X42000000Y-70250000D03*
%TO.P,U4,12,CBUS4*%
%TO.N,unconnected-(U4-CBUS4-Pad12)*%
X41350000Y-70250000D03*
%TO.P,U4,11,CTS*%
%TO.N,Net-(J10-Pin_2)*%
X40700000Y-70250000D03*
%TO.P,U4,10,DCD*%
%TO.N,unconnected-(U4-DCD-Pad10)*%
X40050000Y-70250000D03*
%TO.P,U4,9,DCR*%
%TO.N,unconnected-(U4-DCR-Pad9)*%
X39400000Y-70250000D03*
%TO.P,U4,8*%
%TO.N,N/C*%
X38750000Y-70250000D03*
%TO.P,U4,7,GND*%
%TO.N,GND*%
X38100000Y-70250000D03*
%TO.P,U4,6,RI*%
%TO.N,unconnected-(U4-RI-Pad6)*%
X37450000Y-70250000D03*
%TO.P,U4,5,RXD*%
%TO.N,/P3_0*%
X36800000Y-70250000D03*
%TO.P,U4,4,VCCIO*%
%TO.N,Net-(J11-Pin_2)*%
X36150000Y-70250000D03*
%TO.P,U4,3,RTS*%
%TO.N,Net-(J10-Pin_1)*%
X35500000Y-70250000D03*
%TO.P,U4,2,DTR*%
%TO.N,Net-(J10-Pin_3)*%
X34850000Y-70250000D03*
%TO.P,U4,1,TXD*%
%TO.N,/P3_1*%
X34200000Y-70250000D03*
%TD*%
D39*
%TO.N,Net-(D1-A)*%
X114600000Y-107450000D03*
%TO.N,Net-(J9-VBUS)*%
X50500000Y-77750000D03*
%TO.N,/P3_1*%
X54099000Y-104379000D03*
%TO.N,/P3_0*%
X38450000Y-72250000D03*
%TO.N,Net-(J10-Pin_2)*%
X41500000Y-67350000D03*
%TD*%
D40*
%TO.N,Net-(SW2-B)*%
X42564840Y-42435160D02*
X30000000Y-55000000D01*
X42564840Y-33464943D02*
X42564840Y-42435160D01*
X30000000Y-55000000D02*
X28230000Y-55000000D01*
X44109783Y-31920000D02*
X42564840Y-33464943D01*
X56850000Y-31920000D02*
X44109783Y-31920000D01*
%TO.N,Net-(J11-Pin_2)*%
X61250000Y-58150000D02*
X64350000Y-61250000D01*
X61150000Y-58150000D02*
X61250000Y-58150000D01*
X64350000Y-61250000D02*
X64350000Y-67350000D01*
X64350000Y-67350000D02*
X65799000Y-68799000D01*
%TO.N,Net-(D1-A)*%
X114600000Y-107450000D02*
X113950000Y-106800000D01*
X113950000Y-106800000D02*
X111950000Y-106800000D01*
%TO.N,/P3_3*%
X74440000Y-62330000D02*
X76820000Y-62330000D01*
X76820000Y-62330000D02*
X78000000Y-61150000D01*
%TO.N,/P3_4*%
X76731000Y-63719000D02*
X78300000Y-62150000D01*
%TO.N,/P3_5*%
X76630000Y-64870000D02*
X78500000Y-63000000D01*
%TO.N,/P3_4*%
X71900000Y-64870000D02*
X73051000Y-63719000D01*
X73051000Y-63719000D02*
X76731000Y-63719000D01*
%TO.N,/P3_5*%
X74440000Y-64870000D02*
X76630000Y-64870000D01*
%TO.N,/P3_7*%
X83000000Y-65500000D02*
X83000000Y-68300000D01*
X77840000Y-67410000D02*
X79750000Y-65500000D01*
X79750000Y-65500000D02*
X83000000Y-65500000D01*
%TO.N,/P3_6*%
X71900000Y-67410000D02*
X73051000Y-66259000D01*
X77091000Y-66259000D02*
X79000000Y-64350000D01*
%TO.N,/P3_7*%
X74440000Y-67410000D02*
X77840000Y-67410000D01*
%TO.N,/P3_6*%
X73051000Y-66259000D02*
X77091000Y-66259000D01*
%TO.N,Net-(J11-Pin_2)*%
X72376760Y-68799000D02*
X73051000Y-69473240D01*
X73051000Y-70426760D02*
X65962760Y-77515000D01*
X65799000Y-68799000D02*
X72376760Y-68799000D01*
X73051000Y-69473240D02*
X73051000Y-70426760D01*
%TO.N,VCC*%
X71900000Y-69950000D02*
X66875000Y-74975000D01*
%TO.N,/P3_2*%
X77259000Y-60941000D02*
X77800000Y-60400000D01*
%TO.N,/P3_0*%
X71900000Y-59790000D02*
X73051000Y-58639000D01*
%TO.N,/P3_2*%
X71900000Y-62330000D02*
X73289000Y-60941000D01*
X73289000Y-60941000D02*
X77259000Y-60941000D01*
%TO.N,GND*%
X55558000Y-91728000D02*
X56859000Y-93029000D01*
X55558000Y-90820900D02*
X55558000Y-91728000D01*
X51587100Y-86850000D02*
X55558000Y-90820900D01*
X43210108Y-79250000D02*
X50810108Y-86850000D01*
X42700000Y-79250000D02*
X43210108Y-79250000D01*
X41700000Y-78250000D02*
X42700000Y-79250000D01*
X42151000Y-76449000D02*
X41700000Y-76900000D01*
X46999000Y-76449000D02*
X42151000Y-76449000D01*
X41700000Y-76900000D02*
X41700000Y-78250000D01*
X50810108Y-86850000D02*
X51587100Y-86850000D01*
X48300000Y-77750000D02*
X46999000Y-76449000D01*
%TO.N,/P3_1*%
X49830000Y-87430000D02*
X34200000Y-71800000D01*
X51080000Y-87430000D02*
X49830000Y-87430000D01*
X51600000Y-87950000D02*
X51080000Y-87430000D01*
X51600000Y-100470000D02*
X51600000Y-87950000D01*
X34200000Y-71800000D02*
X34200000Y-70250000D01*
X56859000Y-105729000D02*
X51600000Y-100470000D01*
%TO.N,/P3_0*%
X36418870Y-68999000D02*
X36800000Y-69380130D01*
X33931130Y-68999000D02*
X36418870Y-68999000D01*
X33699000Y-69231130D02*
X33931130Y-68999000D01*
X33699000Y-72059108D02*
X33699000Y-69231130D01*
X38851000Y-77401000D02*
X38851000Y-77211108D01*
X50850000Y-88700000D02*
X50150000Y-88700000D01*
X51199000Y-89049000D02*
X50850000Y-88700000D01*
X51199000Y-102609000D02*
X51199000Y-89049000D01*
X38851000Y-77211108D02*
X33699000Y-72059108D01*
X56859000Y-108269000D02*
X51199000Y-102609000D01*
X50150000Y-88700000D02*
X38851000Y-77401000D01*
X36800000Y-69380130D02*
X36800000Y-70250000D01*
%TO.N,VCC*%
X58599000Y-92229000D02*
X56859000Y-90489000D01*
X58599000Y-109272260D02*
X58599000Y-92229000D01*
X58561000Y-109310260D02*
X58599000Y-109272260D01*
X57010000Y-90338000D02*
X56859000Y-90489000D01*
X57010000Y-77840000D02*
X57010000Y-90338000D01*
X59875000Y-74975000D02*
X57010000Y-77840000D01*
X66875000Y-74975000D02*
X59875000Y-74975000D01*
X66950000Y-110300000D02*
X59550740Y-110300000D01*
X67112500Y-110462500D02*
X66950000Y-110300000D01*
X59550740Y-110300000D02*
X58561000Y-109310260D01*
%TO.N,Net-(J11-Pin_2)*%
X55026100Y-79723900D02*
X55850000Y-78900000D01*
X55850000Y-75100000D02*
X62151000Y-68799000D01*
X62151000Y-68799000D02*
X65799000Y-68799000D01*
X45523900Y-79723900D02*
X55026100Y-79723900D01*
X43550000Y-77750000D02*
X45523900Y-79723900D01*
X55850000Y-78900000D02*
X55850000Y-75100000D01*
X43300000Y-77750000D02*
X43550000Y-77750000D01*
%TO.N,/USB*%
X63800000Y-65900000D02*
X54400000Y-75300000D01*
X54400000Y-75300000D02*
X54400000Y-77750000D01*
X60300000Y-58392240D02*
X63800000Y-61892240D01*
X63800000Y-61892240D02*
X63800000Y-65900000D01*
X60300000Y-40450000D02*
X60300000Y-58392240D01*
X56850000Y-37000000D02*
X60300000Y-40450000D01*
%TO.N,Net-(J10-Pin_3)*%
X63150000Y-62870000D02*
X61630000Y-61350000D01*
X63150000Y-65550000D02*
X63150000Y-62870000D01*
X61630000Y-61350000D02*
X60050000Y-61350000D01*
X52750000Y-75950000D02*
X63150000Y-65550000D01*
X39680130Y-75950000D02*
X52750000Y-75950000D01*
X34850000Y-71119870D02*
X39680130Y-75950000D01*
X34850000Y-70250000D02*
X34850000Y-71119870D01*
%TO.N,Net-(J11-Pin_2)*%
X65962760Y-77515000D02*
X60100000Y-77515000D01*
%TO.N,Net-(J10-Pin_1)*%
X51830000Y-74650000D02*
X60050000Y-66430000D01*
X38950001Y-74650000D02*
X51830000Y-74650000D01*
X35500000Y-71199999D02*
X38950001Y-74650000D01*
X35500000Y-70250000D02*
X35500000Y-71199999D01*
%TO.N,Net-(J9-VBUS)*%
X50500000Y-77750000D02*
X52275000Y-77750000D01*
%TO.N,GND*%
X48550000Y-77750000D02*
X48300000Y-77750000D01*
%TO.N,/P1_0*%
X87633044Y-39583044D02*
X91733044Y-39583044D01*
X75189000Y-27139000D02*
X87633044Y-39583044D01*
X91733044Y-39583044D02*
X92750000Y-38566088D01*
X71900000Y-28290000D02*
X73051000Y-27139000D01*
X73051000Y-27139000D02*
X75189000Y-27139000D01*
X92750000Y-38566088D02*
X92750000Y-37750000D01*
%TO.N,/P1_2*%
X88680000Y-42830000D02*
X92750000Y-42830000D01*
X77831000Y-31981000D02*
X88680000Y-42830000D01*
X73051000Y-31981000D02*
X77831000Y-31981000D01*
X71900000Y-30830000D02*
X73051000Y-31981000D01*
%TO.N,/P1_1*%
X87290000Y-40290000D02*
X92750000Y-40290000D01*
X75290000Y-28290000D02*
X87290000Y-40290000D01*
X74440000Y-28290000D02*
X75290000Y-28290000D01*
%TO.N,Net-(J11-Pin_2)*%
X61150000Y-39742950D02*
X61150000Y-58150000D01*
X57306050Y-35899000D02*
X61150000Y-39742950D01*
X50451000Y-41841950D02*
X56393950Y-35899000D01*
X56393950Y-35899000D02*
X57306050Y-35899000D01*
X43084970Y-64902000D02*
X50451000Y-57535970D01*
X40250000Y-64902000D02*
X43084970Y-64902000D01*
X50451000Y-57535970D02*
X50451000Y-41841950D01*
%TO.N,GND*%
X32447000Y-70101000D02*
X33298000Y-69250000D01*
X26784500Y-70101000D02*
X32447000Y-70101000D01*
X33298000Y-69250000D02*
X33298000Y-69065030D01*
X25587500Y-71500000D02*
X25587500Y-71298000D01*
X25587500Y-71298000D02*
X26784500Y-70101000D01*
X38149000Y-70250000D02*
X38249000Y-70150000D01*
X38100000Y-70250000D02*
X38149000Y-70250000D01*
X38100000Y-69300001D02*
X38100000Y-70250000D01*
X33765030Y-68598000D02*
X37397999Y-68598000D01*
X33298000Y-73498000D02*
X33298000Y-69250000D01*
X33298000Y-69065030D02*
X33765030Y-68598000D01*
X37550000Y-77750000D02*
X33298000Y-73498000D01*
X37397999Y-68598000D02*
X38100000Y-69300001D01*
%TO.N,/P3_1*%
X55449000Y-105729000D02*
X56859000Y-105729000D01*
X54099000Y-104379000D02*
X55449000Y-105729000D01*
%TO.N,/P3_0*%
X37850001Y-72250000D02*
X38450000Y-72250000D01*
X36800000Y-70250000D02*
X36800000Y-71199999D01*
X36800000Y-71199999D02*
X37850001Y-72250000D01*
%TO.N,/P3_3*%
X106566840Y-110599000D02*
X116949000Y-110599000D01*
X104564840Y-112601000D02*
X106566840Y-110599000D01*
X95911108Y-112601000D02*
X104564840Y-112601000D01*
X95149000Y-111838892D02*
X95911108Y-112601000D01*
X95149000Y-110761108D02*
X95149000Y-111838892D01*
X89636892Y-105249000D02*
X95149000Y-110761108D01*
X70501000Y-105249000D02*
X89636892Y-105249000D01*
X67112500Y-108637500D02*
X70501000Y-105249000D01*
X116949000Y-110599000D02*
X117950000Y-111600000D01*
%TO.N,Net-(J10-Pin_2)*%
X41500000Y-67500000D02*
X41500000Y-67350000D01*
X40700000Y-68300000D02*
X41500000Y-67500000D01*
X40700000Y-70250000D02*
X40700000Y-68300000D01*
%TO.N,Net-(J11-Pin_2)*%
X39116101Y-74249000D02*
X40170870Y-74249000D01*
X40170870Y-74249000D02*
X43151000Y-71268870D01*
X36150000Y-70250000D02*
X36150000Y-71282899D01*
X36150000Y-71282899D02*
X39116101Y-74249000D01*
X43151000Y-67803000D02*
X40250000Y-64902000D01*
X43151000Y-71268870D02*
X43151000Y-67803000D01*
X39400000Y-64199999D02*
X40102001Y-64902000D01*
X40102001Y-64902000D02*
X40250000Y-64902000D01*
X39400000Y-63250000D02*
X39400000Y-64199999D01*
%TO.N,/P3_7*%
X99705000Y-71435000D02*
X92750000Y-78390000D01*
X99705000Y-38496300D02*
X99705000Y-71435000D01*
X144102000Y-22552000D02*
X115649300Y-22552000D01*
X148401000Y-26851000D02*
X144102000Y-22552000D01*
X148401000Y-47151000D02*
X148401000Y-26851000D01*
X115649300Y-22552000D02*
X99705000Y-38496300D01*
X154289000Y-53626760D02*
X154289000Y-53039000D01*
X154963240Y-54301000D02*
X154289000Y-53626760D01*
X156317760Y-53900000D02*
X155916760Y-54301000D01*
X154289000Y-53039000D02*
X148401000Y-47151000D01*
X157230000Y-53900000D02*
X156317760Y-53900000D01*
X155916760Y-54301000D02*
X154963240Y-54301000D01*
X157980000Y-53150000D02*
X157230000Y-53900000D01*
%TO.N,Net-(SW2-A)*%
X43850000Y-44500000D02*
X43350000Y-45000000D01*
X43850000Y-34000000D02*
X43850000Y-44500000D01*
%TO.N,Net-(D2-+)*%
X38770000Y-38080000D02*
X32350000Y-44500000D01*
X38770000Y-34000000D02*
X38770000Y-38080000D01*
X32129000Y-44721000D02*
X32350000Y-44500000D01*
X17071000Y-44721000D02*
X32129000Y-44721000D01*
X15770000Y-43420000D02*
X17071000Y-44721000D01*
%TO.N,Net-(D2-Pad4)*%
X20850000Y-35550000D02*
X20850000Y-43420000D01*
X26350000Y-32000000D02*
X24400000Y-32000000D01*
X24400000Y-32000000D02*
X20850000Y-35550000D01*
%TO.N,Net-(D2-Pad2)*%
X12950000Y-45680000D02*
X15770000Y-48500000D01*
X12950000Y-39400000D02*
X12950000Y-45680000D01*
X20350000Y-32000000D02*
X12950000Y-39400000D01*
%TO.N,GND*%
X38750000Y-64119870D02*
X38750000Y-63250000D01*
X38100000Y-64769870D02*
X38750000Y-64119870D01*
X38100000Y-70250000D02*
X38100000Y-64769870D01*
X42918870Y-64501000D02*
X49350000Y-58069870D01*
X41001001Y-64501000D02*
X42918870Y-64501000D01*
X40700000Y-64199999D02*
X41001001Y-64501000D01*
X40700000Y-63250000D02*
X40700000Y-64199999D01*
X49350000Y-58069870D02*
X49350000Y-55000000D01*
X38750000Y-62380130D02*
X38750000Y-63250000D01*
X40700000Y-62300001D02*
X40398999Y-61999000D01*
X40398999Y-61999000D02*
X39131130Y-61999000D01*
X39131130Y-61999000D02*
X38750000Y-62380130D01*
X40700000Y-63250000D02*
X40700000Y-62300001D01*
%TO.N,Net-(J9-D+)*%
X42650000Y-62380130D02*
X42650000Y-63250000D01*
X41466870Y-61197000D02*
X42650000Y-62380130D01*
X33390500Y-61197000D02*
X41466870Y-61197000D01*
X25587500Y-69000000D02*
X33390500Y-61197000D01*
%TO.N,Net-(J9-D-)*%
X41217870Y-61598000D02*
X42000000Y-62380130D01*
X42000000Y-62380130D02*
X42000000Y-63250000D01*
X34552000Y-61598000D02*
X41217870Y-61598000D01*
X34550000Y-61600000D02*
X34552000Y-61598000D01*
X33856130Y-61600000D02*
X34550000Y-61600000D01*
X27587500Y-67868630D02*
X33856130Y-61600000D01*
X27587500Y-69000000D02*
X27587500Y-67868630D01*
%TO.N,Net-(SW2-A)*%
X43350000Y-45000000D02*
X53890000Y-34460000D01*
X53890000Y-34460000D02*
X56850000Y-34460000D01*
X44350000Y-46000000D02*
X43350000Y-45000000D01*
X44350000Y-55000000D02*
X44350000Y-46000000D01*
%TO.N,GND*%
X38368870Y-61999000D02*
X38750000Y-62380130D01*
X36451001Y-61999000D02*
X38368870Y-61999000D01*
X36150000Y-63250000D02*
X36150000Y-62300001D01*
X36150000Y-62300001D02*
X36451001Y-61999000D01*
X35500000Y-63250000D02*
X36150000Y-63250000D01*
%TO.N,Net-(J9-VBUS)*%
X27587500Y-72787500D02*
X32550000Y-77750000D01*
X27587500Y-71500000D02*
X27587500Y-72787500D01*
%TO.N,GND*%
X74440000Y-86490000D02*
X74940000Y-86990000D01*
X74440000Y-69950000D02*
X74440000Y-86490000D01*
%TO.N,VCC*%
X57208260Y-110663000D02*
X58561000Y-109310260D01*
X32605950Y-110663000D02*
X57208260Y-110663000D01*
X28518000Y-106575050D02*
X32605950Y-110663000D01*
X28518000Y-97352950D02*
X28518000Y-106575050D01*
X37863000Y-94965000D02*
X36120000Y-96708000D01*
X37863000Y-94443840D02*
X37863000Y-94965000D01*
X36120000Y-96708000D02*
X29162950Y-96708000D01*
X38178840Y-94128000D02*
X37863000Y-94443840D01*
X40363000Y-94128000D02*
X38178840Y-94128000D01*
X29162950Y-96708000D02*
X28518000Y-97352950D01*
X41464000Y-95229000D02*
X40363000Y-94128000D01*
%TO.N,GND*%
X57042160Y-110262000D02*
X40897000Y-110262000D01*
X58160000Y-109144160D02*
X57042160Y-110262000D01*
X58160000Y-94330000D02*
X58160000Y-109144160D01*
X56859000Y-93029000D02*
X58160000Y-94330000D01*
X40897000Y-110262000D02*
X38964000Y-108329000D01*
X36754000Y-106119000D02*
X38964000Y-108329000D01*
X29619000Y-106119000D02*
X36754000Y-106119000D01*
%TO.N,Net-(U3-C1+)*%
X49239000Y-90489000D02*
X46328000Y-87578000D01*
X46328000Y-87578000D02*
X40065000Y-87578000D01*
X40065000Y-87578000D02*
X38964000Y-88679000D01*
%TO.N,Net-(U3-VS+)*%
X40495000Y-96760000D02*
X38964000Y-95229000D01*
X50224160Y-96760000D02*
X40495000Y-96760000D01*
X50540000Y-96444160D02*
X50224160Y-96760000D01*
X49239000Y-93029000D02*
X50540000Y-94330000D01*
X50540000Y-94330000D02*
X50540000Y-96444160D01*
%TO.N,Net-(U3-C1-)*%
X48354000Y-95569000D02*
X41464000Y-88679000D01*
X49239000Y-95569000D02*
X48354000Y-95569000D01*
%TO.N,Net-(U3-C2+)*%
X42634000Y-98109000D02*
X38964000Y-101779000D01*
X49239000Y-98109000D02*
X42634000Y-98109000D01*
%TO.N,Net-(U3-C2-)*%
X42594000Y-100649000D02*
X41464000Y-101779000D01*
X49239000Y-100649000D02*
X42594000Y-100649000D01*
%TO.N,Net-(U3-VS-)*%
X42996000Y-109861000D02*
X41464000Y-108329000D01*
X50390260Y-109861000D02*
X42996000Y-109861000D01*
X50941000Y-104891000D02*
X50941000Y-109310260D01*
X50941000Y-109310260D02*
X50390260Y-109861000D01*
X49239000Y-103189000D02*
X50941000Y-104891000D01*
%TO.N,Net-(U3-T2OUT)*%
X35310740Y-100579000D02*
X29619000Y-100579000D01*
X44191740Y-109460000D02*
X35310740Y-100579000D01*
X50540000Y-109144160D02*
X50224160Y-109460000D01*
X50224160Y-109460000D02*
X44191740Y-109460000D01*
X50540000Y-107030000D02*
X50540000Y-109144160D01*
X49239000Y-105729000D02*
X50540000Y-107030000D01*
%TO.N,Net-(U3-R2IN)*%
X33107840Y-97809000D02*
X29619000Y-97809000D01*
X43567840Y-108269000D02*
X33107840Y-97809000D01*
X49239000Y-108269000D02*
X43567840Y-108269000D01*
%TO.N,GND*%
X76041000Y-88091000D02*
X74940000Y-86990000D01*
X76041000Y-93889000D02*
X76041000Y-88091000D01*
X74940000Y-94990000D02*
X76041000Y-93889000D01*
%TO.N,Net-(U1-XTAL2)*%
X92750000Y-81180000D02*
X82440000Y-91490000D01*
X92750000Y-80930000D02*
X92750000Y-81180000D01*
%TO.N,Net-(U1-XTAL1)*%
X82440000Y-93780000D02*
X82440000Y-96370000D01*
X92750000Y-83470000D02*
X82440000Y-93780000D01*
%TO.N,Net-(U1-XTAL2)*%
X74940000Y-98990000D02*
X74940000Y-99990000D01*
X82440000Y-91490000D02*
X74940000Y-98990000D01*
%TO.N,/P1_6*%
X90850000Y-51090000D02*
X92750000Y-52990000D01*
X90850000Y-46050000D02*
X90850000Y-51090000D01*
X77500000Y-32700000D02*
X90850000Y-46050000D01*
X76300000Y-32700000D02*
X77500000Y-32700000D01*
X74916760Y-34521000D02*
X76300000Y-33137760D01*
X72812240Y-35910000D02*
X74201240Y-34521000D01*
X76300000Y-33137760D02*
X76300000Y-32700000D01*
X74201240Y-34521000D02*
X74916760Y-34521000D01*
X71900000Y-35910000D02*
X72812240Y-35910000D01*
%TO.N,/P1_7*%
X90400000Y-53180000D02*
X92750000Y-55530000D01*
X90400000Y-46600000D02*
X90400000Y-53180000D01*
X76600000Y-33750000D02*
X77550000Y-33750000D01*
X74440000Y-35910000D02*
X76600000Y-33750000D01*
X77550000Y-33750000D02*
X90400000Y-46600000D01*
%TO.N,VCC*%
X69025000Y-108550000D02*
X67112500Y-110462500D01*
X72994888Y-108550000D02*
X69025000Y-108550000D01*
X78099000Y-107449000D02*
X74095888Y-107449000D01*
X74095888Y-107449000D02*
X72994888Y-108550000D01*
X81700000Y-111050000D02*
X78099000Y-107449000D01*
X81700000Y-111050000D02*
X88200000Y-111050000D01*
%TO.N,/RST*%
X88200000Y-106550000D02*
X81700000Y-106550000D01*
%TO.N,/P2_1*%
X134299000Y-71889000D02*
X135450000Y-73040000D01*
X131763840Y-72200000D02*
X132074840Y-71889000D01*
X109849000Y-74101000D02*
X111750000Y-72200000D01*
X109849000Y-81611000D02*
X109849000Y-74101000D01*
X132074840Y-71889000D02*
X134299000Y-71889000D01*
X107990000Y-83470000D02*
X109849000Y-81611000D01*
X111750000Y-72200000D02*
X131763840Y-72200000D01*
%TO.N,/P2_6*%
X128100000Y-75850000D02*
X132910000Y-80660000D01*
X113150000Y-75850000D02*
X128100000Y-75850000D01*
X112650000Y-84208112D02*
X112650000Y-76350000D01*
X106954888Y-87833000D02*
X109025112Y-87833000D01*
X105887000Y-86765112D02*
X106954888Y-87833000D01*
X105887000Y-72873000D02*
X105887000Y-86765112D01*
X109025112Y-87833000D02*
X112650000Y-84208112D01*
X107990000Y-70770000D02*
X105887000Y-72873000D01*
X112650000Y-76350000D02*
X113150000Y-75850000D01*
%TO.N,/P2_0*%
X111760000Y-73040000D02*
X132910000Y-73040000D01*
X110250000Y-74550000D02*
X111760000Y-73040000D01*
X110250000Y-83750000D02*
X110250000Y-74550000D01*
X107990000Y-86010000D02*
X110250000Y-83750000D01*
%TO.N,/P2_2*%
X134061000Y-74429000D02*
X132910000Y-75580000D01*
X136601000Y-73599000D02*
X135771000Y-74429000D01*
X135525760Y-71488000D02*
X136601000Y-72563240D01*
X136601000Y-72563240D02*
X136601000Y-73599000D01*
X111512000Y-71488000D02*
X135525760Y-71488000D01*
X109300000Y-73700000D02*
X111512000Y-71488000D01*
X135771000Y-74429000D02*
X134061000Y-74429000D01*
X109300000Y-79620000D02*
X109300000Y-73700000D01*
X107990000Y-80930000D02*
X109300000Y-79620000D01*
%TO.N,/P0_4*%
X131780000Y-47250000D02*
X132410000Y-46620000D01*
X122050000Y-47250000D02*
X131780000Y-47250000D01*
X118440000Y-50860000D02*
X122050000Y-47250000D01*
%TO.N,/P0_1*%
X134950000Y-41600000D02*
X134950000Y-41540000D01*
X147250000Y-53900000D02*
X134950000Y-41600000D01*
X154564840Y-86521000D02*
X147250000Y-79206160D01*
X147250000Y-79206160D02*
X147250000Y-53900000D01*
X157940000Y-85370000D02*
X156789000Y-86521000D01*
X156789000Y-86521000D02*
X154564840Y-86521000D01*
%TO.N,/P0_0*%
X132572240Y-41702240D02*
X132410000Y-41540000D01*
X134473240Y-40389000D02*
X133160000Y-41702240D01*
X133160000Y-41702240D02*
X132572240Y-41702240D01*
X136101000Y-41901000D02*
X136101000Y-41063240D01*
X136101000Y-41063240D02*
X135426760Y-40389000D01*
X135426760Y-40389000D02*
X134473240Y-40389000D01*
X148000000Y-53800000D02*
X136101000Y-41901000D01*
X148000000Y-77970000D02*
X148000000Y-53800000D01*
X155400000Y-85370000D02*
X148000000Y-77970000D01*
%TO.N,/P0_3*%
X135330000Y-44080000D02*
X134950000Y-44080000D01*
X146150000Y-54900000D02*
X135330000Y-44080000D01*
X154861000Y-89061000D02*
X146150000Y-80350000D01*
X156789000Y-89061000D02*
X154861000Y-89061000D01*
X157940000Y-87910000D02*
X156789000Y-89061000D01*
X146150000Y-80350000D02*
X146150000Y-54900000D01*
%TO.N,/P0_2*%
X133084240Y-44080000D02*
X132410000Y-44080000D01*
X135188760Y-42691000D02*
X134473240Y-42691000D01*
X136101000Y-43701000D02*
X136101000Y-43603240D01*
X134473240Y-42691000D02*
X133084240Y-44080000D01*
X146750000Y-80050000D02*
X146750000Y-54350000D01*
X136101000Y-43603240D02*
X135188760Y-42691000D01*
X154610000Y-87910000D02*
X146750000Y-80050000D01*
X155400000Y-87910000D02*
X154610000Y-87910000D01*
X146750000Y-54350000D02*
X136101000Y-43701000D01*
%TO.N,/P0_5*%
X135720000Y-46620000D02*
X134950000Y-46620000D01*
X144950000Y-81627760D02*
X144950000Y-55850000D01*
X154923240Y-91601000D02*
X144950000Y-81627760D01*
X144950000Y-55850000D02*
X135720000Y-46620000D01*
X157940000Y-90450000D02*
X156789000Y-91601000D01*
X156789000Y-91601000D02*
X154923240Y-91601000D01*
%TO.N,/P0_4*%
X135426760Y-45469000D02*
X134381000Y-45469000D01*
X145550000Y-55592240D02*
X135426760Y-45469000D01*
X133230000Y-46620000D02*
X132410000Y-46620000D01*
X145550000Y-80600000D02*
X145550000Y-55592240D01*
X155400000Y-90450000D02*
X145550000Y-80600000D01*
X134381000Y-45469000D02*
X133230000Y-46620000D01*
%TO.N,GND*%
X156789000Y-104539000D02*
X157940000Y-105690000D01*
X156789000Y-102673240D02*
X156789000Y-104539000D01*
X155876760Y-101761000D02*
X156789000Y-102673240D01*
X135450000Y-84400000D02*
X152811000Y-101761000D01*
X152811000Y-101761000D02*
X155876760Y-101761000D01*
X135450000Y-83200000D02*
X135450000Y-84400000D01*
X137804000Y-80846000D02*
X137804000Y-54554000D01*
X137804000Y-54554000D02*
X134950000Y-51700000D01*
X135450000Y-83200000D02*
X137804000Y-80846000D01*
%TO.N,VCC*%
X118030000Y-37750000D02*
X118440000Y-38160000D01*
X107990000Y-37750000D02*
X118030000Y-37750000D01*
X108350000Y-37750000D02*
X107990000Y-37750000D01*
X117900000Y-28200000D02*
X108350000Y-37750000D01*
X155440000Y-58230000D02*
X155440000Y-55690000D01*
%TO.N,GND*%
X157980000Y-55690000D02*
X157980000Y-58230000D01*
%TO.N,VCC*%
X130140000Y-85970000D02*
X130140000Y-96000000D01*
X132910000Y-83200000D02*
X130140000Y-85970000D01*
X130140000Y-101150000D02*
X130140000Y-96000000D01*
X130140000Y-106230000D02*
X130140000Y-101150000D01*
X130330000Y-106420000D02*
X130140000Y-106230000D01*
X130330000Y-106650000D02*
X130330000Y-106420000D01*
X132140000Y-104840000D02*
X130330000Y-106650000D01*
X154550000Y-104840000D02*
X132140000Y-104840000D01*
X155400000Y-105690000D02*
X154550000Y-104840000D01*
X155400000Y-105690000D02*
X155400000Y-108230000D01*
%TO.N,GND*%
X157940000Y-105690000D02*
X157940000Y-108230000D01*
X140569000Y-109381000D02*
X156789000Y-109381000D01*
X137450000Y-112500000D02*
X140569000Y-109381000D01*
X156789000Y-109381000D02*
X157940000Y-108230000D01*
%TO.N,Net-(C1-Pad2)*%
X80144888Y-113200000D02*
X75494888Y-108550000D01*
X129130000Y-113200000D02*
X80144888Y-113200000D01*
X129830000Y-112500000D02*
X129130000Y-113200000D01*
%TO.N,/P3_3*%
X117950000Y-111600000D02*
X124450000Y-111600000D01*
%TO.N,Net-(SW3-Pad1)*%
X103951000Y-105799000D02*
X102950000Y-106800000D01*
X117950000Y-107100000D02*
X116649000Y-105799000D01*
X116649000Y-105799000D02*
X103951000Y-105799000D01*
X117950000Y-107100000D02*
X124450000Y-107100000D01*
X96450000Y-106800000D02*
X102950000Y-106800000D01*
%TO.N,/P3_2*%
X102950000Y-111300000D02*
X96450000Y-111300000D01*
X107450000Y-106800000D02*
X102950000Y-111300000D01*
X109950000Y-106800000D02*
X107450000Y-106800000D01*
X111551000Y-108401000D02*
X109950000Y-106800000D01*
X136199000Y-108401000D02*
X111551000Y-108401000D01*
X137950000Y-106650000D02*
X136199000Y-108401000D01*
%TO.N,/P1_6*%
X95750000Y-35500000D02*
X95750000Y-49990000D01*
X113450000Y-17800000D02*
X95750000Y-35500000D01*
X145467100Y-17800000D02*
X113450000Y-17800000D01*
X154001000Y-26333900D02*
X145467100Y-17800000D01*
X95750000Y-49990000D02*
X92750000Y-52990000D01*
X155440000Y-42990000D02*
X154001000Y-41551000D01*
X154001000Y-41551000D02*
X154001000Y-26333900D01*
%TO.N,/P1_7*%
X96250000Y-52030000D02*
X92750000Y-55530000D01*
X145500000Y-18400000D02*
X113650000Y-18400000D01*
X113650000Y-18400000D02*
X96250000Y-35800000D01*
X153600000Y-26500000D02*
X145500000Y-18400000D01*
X153600000Y-42777760D02*
X153600000Y-26500000D01*
X156829000Y-44141000D02*
X154963240Y-44141000D01*
X96250000Y-35800000D02*
X96250000Y-52030000D01*
X157980000Y-42990000D02*
X156829000Y-44141000D01*
X154963240Y-44141000D02*
X153600000Y-42777760D01*
%TO.N,/P3_6*%
X144451000Y-22151000D02*
X115483200Y-22151000D01*
X115483200Y-22151000D02*
X99304000Y-38330200D01*
X149101000Y-26801000D02*
X144451000Y-22151000D01*
X149101000Y-46811000D02*
X149101000Y-26801000D01*
X99304000Y-38330200D02*
X99304000Y-69296000D01*
X99304000Y-69296000D02*
X92750000Y-75850000D01*
X155440000Y-53150000D02*
X149101000Y-46811000D01*
%TO.N,/P3_5*%
X98903000Y-67157000D02*
X92750000Y-73310000D01*
X149851000Y-26801000D02*
X144800000Y-21750000D01*
X98903000Y-38164100D02*
X98903000Y-67157000D01*
X149851000Y-46648760D02*
X149851000Y-26801000D01*
X154963240Y-51761000D02*
X149851000Y-46648760D01*
X144800000Y-21750000D02*
X115317100Y-21750000D01*
X115317100Y-21750000D02*
X98903000Y-38164100D01*
X156829000Y-51761000D02*
X154963240Y-51761000D01*
X157980000Y-50610000D02*
X156829000Y-51761000D01*
%TO.N,/P3_4*%
X98502000Y-65018000D02*
X92750000Y-70770000D01*
X98502000Y-37998000D02*
X98502000Y-65018000D01*
X115200000Y-21300000D02*
X98502000Y-37998000D01*
X144950000Y-21300000D02*
X115200000Y-21300000D01*
X150333900Y-45503900D02*
X150333900Y-26683900D01*
X155440000Y-50610000D02*
X150333900Y-45503900D01*
X150333900Y-26683900D02*
X144950000Y-21300000D01*
%TO.N,/P3_3*%
X98101000Y-62879000D02*
X92750000Y-68230000D01*
X98101000Y-37599000D02*
X98101000Y-62879000D01*
X114841450Y-20858550D02*
X98101000Y-37599000D01*
X150850000Y-26500000D02*
X145208550Y-20858550D01*
X150850000Y-45107760D02*
X150850000Y-26500000D01*
X145208550Y-20858550D02*
X114841450Y-20858550D01*
X156829000Y-49221000D02*
X154963240Y-49221000D01*
X154963240Y-49221000D02*
X150850000Y-45107760D01*
X157980000Y-48070000D02*
X156829000Y-49221000D01*
%TO.N,/P3_2*%
X114700000Y-20200000D02*
X97700000Y-37200000D01*
X97700000Y-60740000D02*
X92750000Y-65690000D01*
X145232900Y-20200000D02*
X114700000Y-20200000D01*
X151400000Y-44030000D02*
X151400000Y-26367100D01*
X151400000Y-26367100D02*
X145232900Y-20200000D01*
X97700000Y-37200000D02*
X97700000Y-60740000D01*
X155440000Y-48070000D02*
X151400000Y-44030000D01*
%TO.N,/P3_1*%
X97200000Y-58700000D02*
X92750000Y-63150000D01*
X97200000Y-36700000D02*
X97200000Y-58700000D01*
X145100000Y-19500000D02*
X114400000Y-19500000D01*
X114400000Y-19500000D02*
X97200000Y-36700000D01*
X154963240Y-46681000D02*
X151900000Y-43617760D01*
X151900000Y-43617760D02*
X151900000Y-26300000D01*
X156829000Y-46681000D02*
X154963240Y-46681000D01*
X151900000Y-26300000D02*
X145100000Y-19500000D01*
X157980000Y-45530000D02*
X156829000Y-46681000D01*
%TO.N,/P3_0*%
X96800000Y-56550000D02*
X92750000Y-60600000D01*
X96800000Y-36050000D02*
X96800000Y-56550000D01*
X92750000Y-60600000D02*
X92750000Y-60610000D01*
X145200000Y-19000000D02*
X113850000Y-19000000D01*
X152350000Y-26150000D02*
X145200000Y-19000000D01*
X152350000Y-42440000D02*
X152350000Y-26150000D01*
X155440000Y-45530000D02*
X152350000Y-42440000D01*
X113850000Y-19000000D02*
X96800000Y-36050000D01*
%TO.N,/P0_7*%
X143700000Y-57910000D02*
X134950000Y-49160000D01*
X143700000Y-82917760D02*
X143700000Y-57910000D01*
X154923240Y-94141000D02*
X143700000Y-82917760D01*
X156789000Y-94141000D02*
X154923240Y-94141000D01*
X157940000Y-92990000D02*
X156789000Y-94141000D01*
%TO.N,/P0_6*%
X144349000Y-56931240D02*
X144349000Y-81939000D01*
X144349000Y-81939000D02*
X155400000Y-92990000D01*
X134632240Y-47850000D02*
X135267760Y-47850000D01*
X135267760Y-47850000D02*
X144349000Y-56931240D01*
X133322240Y-49160000D02*
X134632240Y-47850000D01*
X132410000Y-49160000D02*
X133322240Y-49160000D01*
%TO.N,/P3_3*%
X89150000Y-64630000D02*
X92750000Y-68230000D01*
X89150000Y-61350000D02*
X89150000Y-64630000D01*
X88950000Y-61150000D02*
X89150000Y-61350000D01*
X78000000Y-61150000D02*
X88950000Y-61150000D01*
%TO.N,/P3_6*%
X84750000Y-64550000D02*
X84750000Y-67850000D01*
X84550000Y-64350000D02*
X84750000Y-64550000D01*
X84750000Y-67850000D02*
X92750000Y-75850000D01*
X79000000Y-64350000D02*
X84550000Y-64350000D01*
%TO.N,/P3_7*%
X83000000Y-68300000D02*
X92750000Y-78050000D01*
X92750000Y-78050000D02*
X92750000Y-78390000D01*
%TO.N,/P3_5*%
X86400000Y-63850000D02*
X86400000Y-67750000D01*
X85550000Y-63000000D02*
X86400000Y-63850000D01*
X78500000Y-63000000D02*
X85550000Y-63000000D01*
X86400000Y-67750000D02*
X91960000Y-73310000D01*
X91960000Y-73310000D02*
X92750000Y-73310000D01*
%TO.N,/P3_4*%
X87450000Y-62350000D02*
X87450000Y-65470000D01*
X87450000Y-65470000D02*
X92750000Y-70770000D01*
X78300000Y-62150000D02*
X87250000Y-62150000D01*
X87250000Y-62150000D02*
X87450000Y-62350000D01*
%TO.N,/P3_2*%
X90250000Y-63800000D02*
X92140000Y-65690000D01*
X90250000Y-61650000D02*
X90250000Y-63800000D01*
X92140000Y-65690000D02*
X92750000Y-65690000D01*
X89000000Y-60400000D02*
X90250000Y-61650000D01*
X77800000Y-60400000D02*
X89000000Y-60400000D01*
%TO.N,/P3_1*%
X91150000Y-61550000D02*
X92750000Y-63150000D01*
X91150000Y-60200000D02*
X91150000Y-61550000D01*
X90740000Y-59790000D02*
X91150000Y-60200000D01*
X74440000Y-59790000D02*
X90740000Y-59790000D01*
%TO.N,/P3_0*%
X73051000Y-58639000D02*
X90779000Y-58639000D01*
X90779000Y-58639000D02*
X92750000Y-60610000D01*
%TO.N,/P1_3*%
X94150000Y-45370000D02*
X92750000Y-45370000D01*
X94250000Y-45270000D02*
X94150000Y-45370000D01*
X94250000Y-36650000D02*
X94250000Y-45270000D01*
X93200000Y-35600000D02*
X94250000Y-36650000D01*
X90427000Y-37751000D02*
X92578000Y-35600000D01*
X75988000Y-26738000D02*
X87001000Y-37751000D01*
X70749000Y-27454840D02*
X71465840Y-26738000D01*
X70749000Y-29125160D02*
X70749000Y-27454840D01*
X87001000Y-37751000D02*
X90427000Y-37751000D01*
X71064840Y-29441000D02*
X70749000Y-29125160D01*
X73051000Y-29441000D02*
X71064840Y-29441000D01*
X74440000Y-30830000D02*
X73051000Y-29441000D01*
X92578000Y-35600000D02*
X93200000Y-35600000D01*
X71465840Y-26738000D02*
X75988000Y-26738000D01*
%TO.N,/P1_5*%
X95201000Y-47999000D02*
X92750000Y-50450000D01*
X95201000Y-35133900D02*
X95201000Y-47999000D01*
X94117100Y-34050000D02*
X95201000Y-35133900D01*
X91800000Y-34050000D02*
X94117100Y-34050000D01*
X89850000Y-36000000D02*
X91800000Y-34050000D01*
X69549000Y-25251000D02*
X69700000Y-25100000D01*
X69700000Y-25100000D02*
X77250000Y-25100000D01*
X71423240Y-34521000D02*
X69549000Y-32646760D01*
X77250000Y-25100000D02*
X88150000Y-36000000D01*
X69549000Y-32646760D02*
X69549000Y-25251000D01*
X88150000Y-36000000D02*
X89850000Y-36000000D01*
X73289000Y-34521000D02*
X71423240Y-34521000D01*
X74440000Y-33370000D02*
X73289000Y-34521000D01*
%TO.N,/P1_4*%
X94800000Y-45860000D02*
X92750000Y-47910000D01*
X94800000Y-35300000D02*
X94800000Y-45860000D01*
X77200000Y-26150000D02*
X87951000Y-36901000D01*
X92150000Y-34600000D02*
X94100000Y-34600000D01*
X94100000Y-34600000D02*
X94800000Y-35300000D01*
X69950000Y-26400000D02*
X70200000Y-26150000D01*
X87951000Y-36901000D02*
X89849000Y-36901000D01*
X69950000Y-31420000D02*
X69950000Y-26400000D01*
X71900000Y-33370000D02*
X69950000Y-31420000D01*
X70200000Y-26150000D02*
X77200000Y-26150000D01*
X89849000Y-36901000D02*
X92150000Y-34600000D01*
%TO.N,/P2_4*%
X130450000Y-75660000D02*
X132910000Y-78120000D01*
X130450000Y-75350000D02*
X130450000Y-75660000D01*
X130300000Y-75200000D02*
X130450000Y-75350000D01*
X111950000Y-75200000D02*
X130300000Y-75200000D01*
X108859012Y-87432000D02*
X111950000Y-84341012D01*
X107120988Y-87432000D02*
X108859012Y-87432000D01*
X106288000Y-77552000D02*
X106288000Y-86599012D01*
X111950000Y-84341012D02*
X111950000Y-75200000D01*
X107990000Y-75850000D02*
X106288000Y-77552000D01*
X106288000Y-86599012D02*
X107120988Y-87432000D01*
%TO.N,/P2_3*%
X134299000Y-76731000D02*
X135450000Y-75580000D01*
X131150000Y-74050000D02*
X131150000Y-75447760D01*
X130950000Y-73850000D02*
X131150000Y-74050000D01*
X111100000Y-84623912D02*
X111100000Y-74800000D01*
X111100000Y-74800000D02*
X112050000Y-73850000D01*
X108692912Y-87031000D02*
X111100000Y-84623912D01*
X131150000Y-75447760D02*
X132433240Y-76731000D01*
X107287088Y-87031000D02*
X108692912Y-87031000D01*
X132433240Y-76731000D02*
X134299000Y-76731000D01*
X106689000Y-86432912D02*
X107287088Y-87031000D01*
X106689000Y-79691000D02*
X106689000Y-86432912D01*
X112050000Y-73850000D02*
X130950000Y-73850000D01*
X107990000Y-78390000D02*
X106689000Y-79691000D01*
%TO.N,/P2_7*%
X107990000Y-68440000D02*
X107990000Y-68230000D01*
X109750000Y-70200000D02*
X107990000Y-68440000D01*
X137403000Y-72231040D02*
X135371960Y-70200000D01*
X135371960Y-70200000D02*
X109750000Y-70200000D01*
X137403000Y-78707000D02*
X137403000Y-72231040D01*
X135450000Y-80660000D02*
X137403000Y-78707000D01*
%TO.N,/P2_5*%
X137002000Y-76568000D02*
X135450000Y-78120000D01*
X137002000Y-72397140D02*
X137002000Y-76568000D01*
X135454860Y-70850000D02*
X137002000Y-72397140D01*
X110450000Y-70850000D02*
X135454860Y-70850000D01*
X107990000Y-73310000D02*
X110450000Y-70850000D01*
%TO.N,/P0_3*%
X133799000Y-45231000D02*
X134950000Y-44080000D01*
X130852240Y-46550000D02*
X132171240Y-45231000D01*
X132171240Y-45231000D02*
X133799000Y-45231000D01*
X120210000Y-46550000D02*
X130852240Y-46550000D01*
X118440000Y-48320000D02*
X120210000Y-46550000D01*
%TO.N,/P0_5*%
X133561000Y-48009000D02*
X134950000Y-46620000D01*
X123831000Y-48009000D02*
X133561000Y-48009000D01*
X118440000Y-53400000D02*
X123831000Y-48009000D01*
%TO.N,/P0_6*%
X118440000Y-55940000D02*
X125220000Y-49160000D01*
X125220000Y-49160000D02*
X132410000Y-49160000D01*
%TO.N,/P0_7*%
X133799000Y-50311000D02*
X134950000Y-49160000D01*
X126609000Y-50311000D02*
X133799000Y-50311000D01*
X118440000Y-58480000D02*
X126609000Y-50311000D01*
%TO.N,/P0_2*%
X130710000Y-45780000D02*
X132410000Y-44080000D01*
X118440000Y-45780000D02*
X130710000Y-45780000D01*
%TO.N,/P0_1*%
X133799000Y-42691000D02*
X134950000Y-41540000D01*
X118989000Y-42691000D02*
X133799000Y-42691000D01*
X118440000Y-43240000D02*
X118989000Y-42691000D01*
%TO.N,/P0_0*%
X131570000Y-40700000D02*
X132410000Y-41540000D01*
X118440000Y-40700000D02*
X131570000Y-40700000D01*
%TO.N,/P0_7*%
X118030000Y-58070000D02*
X118440000Y-58480000D01*
X107990000Y-58070000D02*
X118030000Y-58070000D01*
%TO.N,/P0_6*%
X118030000Y-55530000D02*
X118440000Y-55940000D01*
X107990000Y-55530000D02*
X118030000Y-55530000D01*
%TO.N,/P0_5*%
X118030000Y-52990000D02*
X118440000Y-53400000D01*
X107990000Y-52990000D02*
X118030000Y-52990000D01*
%TO.N,/P0_4*%
X118030000Y-50450000D02*
X118440000Y-50860000D01*
X107990000Y-50450000D02*
X118030000Y-50450000D01*
%TO.N,/P0_3*%
X118030000Y-47910000D02*
X118440000Y-48320000D01*
X107990000Y-47910000D02*
X118030000Y-47910000D01*
%TO.N,/P0_2*%
X118030000Y-45370000D02*
X118440000Y-45780000D01*
X107990000Y-45370000D02*
X118030000Y-45370000D01*
%TO.N,/P0_1*%
X107990000Y-42830000D02*
X118030000Y-42830000D01*
X118030000Y-42830000D02*
X118440000Y-43240000D01*
%TO.N,/P0_0*%
X107990000Y-40290000D02*
X118030000Y-40290000D01*
X118030000Y-40290000D02*
X118440000Y-40700000D01*
%TD*%
M02*
